<svg width="127" height="43" viewBox="0 0 127 43" fill="none" xmlns="http://www.w3.org/2000/svg">
<path d="M116.012 0H8.15646C7.4477 0.00496523 6.74041 0.0654634 6.0411 0.180926C5.34961 0.301663 4.67929 0.521943 4.051 0.834976C3.42398 1.16263 2.85128 1.58515 2.35315 2.08752C1.84224 2.575 1.42275 3.14998 1.11455 3.78534C0.788931 4.4145 0.563532 5.09066 0.446529 5.78936C0.330472 6.48392 0.269989 7.18664 0.265625 7.89082C0.265625 8.21091 0.265625 8.531 0.265625 8.85108V33.1499C0.265625 33.4839 0.265625 33.79 0.265625 34.124C0.270573 34.8282 0.331052 35.5308 0.446529 36.2255C0.563532 36.9242 0.788931 37.6003 1.11455 38.2295C1.42649 38.8626 1.84552 39.437 2.35315 39.9274C2.84816 40.4296 3.4216 40.8479 4.051 41.1659C4.68121 41.4773 5.35064 41.7021 6.0411 41.834C6.74126 41.9426 7.44804 42.003 8.15646 42.0149H118.099C118.808 42.0036 119.515 41.9432 120.215 41.834C120.909 41.6999 121.583 41.4753 122.219 41.1659C123.48 40.517 124.506 39.4903 125.155 38.2295C125.47 37.5972 125.691 36.922 125.809 36.2255C125.923 35.5303 125.988 34.8281 126.004 34.124V33.1499C126.004 32.7741 126.004 32.3984 126.004 32.0087V10.02C126.004 9.63038 126.004 9.25469 126.004 8.86501V7.90475C125.988 7.20059 125.923 6.49838 125.809 5.80329C125.691 5.1068 125.47 4.43154 125.155 3.79927C124.837 3.16987 124.419 2.59638 123.917 2.10137C123.416 1.60224 122.844 1.18019 122.219 0.848906C121.585 0.537802 120.91 0.317561 120.215 0.194771C119.516 0.0786786 118.808 0.0181762 118.099 0.0138455H115.998L116.012 0Z" fill="#B1B1B2"/>
<path d="M9.13402 41.1095H8.17375C7.51664 41.0982 6.86105 41.0424 6.21148 40.9425C5.606 40.8344 5.01981 40.6374 4.47187 40.358C3.92748 40.0796 3.42978 39.7181 2.99669 39.2864C2.55912 38.8637 2.19675 38.3696 1.92511 37.8252C1.65035 37.2765 1.45808 36.6904 1.35452 36.0856C1.25042 35.4318 1.19459 34.7713 1.1875 34.1093C1.1875 33.8866 1.1875 33.1491 1.1875 33.1491V8.86425C1.1875 8.86425 1.1875 8.14051 1.1875 7.93176C1.19352 7.27439 1.24936 6.61846 1.35452 5.96953C1.45593 5.35977 1.64828 4.76867 1.92511 4.21599C2.20009 3.66949 2.56199 3.17128 2.99669 2.74081C3.42978 2.30917 3.92748 1.94761 4.47187 1.66919C5.01963 1.3923 5.60614 1.19996 6.21148 1.09864C6.86055 0.994619 7.51644 0.938806 8.17375 0.931641H118.117C118.774 0.938239 119.43 0.994056 120.079 1.09864C120.687 1.20856 121.277 1.40048 121.833 1.66919C122.348 1.95389 122.817 2.31523 123.224 2.74081C123.659 3.17128 124.021 3.66949 124.296 4.21599C124.573 4.76375 124.765 5.35026 124.866 5.9556C124.974 6.6091 125.035 7.26953 125.047 7.93176V8.86425C125.047 9.26784 125.047 9.64353 125.047 10.0193V32.0218C125.047 32.3975 125.047 32.7734 125.047 33.1491V34.1232C125.034 34.7762 124.974 35.4274 124.866 36.0716C124.767 36.682 124.575 37.2734 124.296 37.8252C124.021 38.3639 123.664 38.8568 123.238 39.2864C122.802 39.7149 122.305 40.0761 121.763 40.358C121.21 40.6374 120.619 40.8343 120.009 40.9425C119.36 41.0424 118.704 41.0982 118.047 41.1095H9.07836H9.13402Z" fill="black"/>
<path d="M26.2791 21.3341C26.2961 20.4571 26.5316 19.5983 26.9641 18.8353C27.3967 18.0723 28.0126 17.4292 28.7563 16.9642C28.2833 16.289 27.66 15.7327 26.9355 15.339C26.2111 14.9454 25.4052 14.7252 24.5813 14.6958C22.8138 14.5149 21.1021 15.7535 20.2114 15.7535C19.3207 15.7535 17.9012 14.7236 16.4121 14.7514C15.4467 14.7802 14.5054 15.0596 13.6807 15.5622C12.856 16.0648 12.1762 16.7734 11.7082 17.6183C9.67635 21.1392 11.1933 26.3163 13.0999 29.1553C14.0741 30.547 15.2152 32.1057 16.7043 32.05C18.1934 31.9944 18.7084 31.1176 20.4619 31.1176C22.2154 31.1176 22.7164 32.0501 24.2334 32.0083C25.7503 31.9666 26.794 30.6166 27.7265 29.225C28.43 28.2316 28.9703 27.1322 29.3269 25.9684C28.4211 25.5789 27.6496 24.9322 27.1078 24.1084C26.566 23.2846 26.2779 22.32 26.2791 21.3341Z" fill="white"/>
<path d="M23.4072 12.8303C24.2593 11.8039 24.6786 10.4863 24.5763 9.15625C23.2745 9.3011 22.0735 9.92638 21.2084 10.9098C20.785 11.3906 20.4612 11.9505 20.2558 12.5573C20.0504 13.1641 19.9673 13.8056 20.0115 14.4447C20.662 14.4453 21.3044 14.3007 21.8919 14.0214C22.4794 13.7421 22.9971 13.3352 23.4072 12.8303Z" fill="white"/>
<path d="M44.718 28.5857H39.7358L38.539 32.1067H36.4375L41.1553 19.0527H43.3403L48.0581 32.1067H45.9009L44.718 28.5857ZM40.2507 26.9575H44.2031L42.2547 21.2238L40.2507 26.9575Z" fill="white"/>
<path d="M58.2332 27.2903C58.2332 30.2546 56.6467 32.1473 54.253 32.1473C53.6492 32.1791 53.0486 32.0407 52.5196 31.7479C51.9907 31.4551 51.5545 31.0197 51.2609 30.4912V35.1951H49.3125V22.5308H51.2052V24.1173C51.5116 23.5887 51.9555 23.1531 52.4897 22.8566C53.0239 22.5601 53.6284 22.4138 54.2391 22.4334C56.6328 22.4334 58.2332 24.4095 58.2332 27.2903ZM56.2292 27.2903C56.2292 25.3698 55.2272 24.1034 53.7102 24.1034C52.1933 24.1034 51.2052 25.3976 51.2052 27.2903C51.2052 29.183 52.2211 30.4912 53.7102 30.4912C55.1993 30.4912 56.2292 29.2387 56.2292 27.2903Z" fill="white"/>
<path d="M68.6941 27.2899C68.6941 30.2542 67.1215 32.1469 64.7278 32.1469C64.1238 32.1803 63.5226 32.0427 62.9933 31.7497C62.464 31.4567 62.0281 31.0204 61.7357 30.4908V35.1947H59.7734V22.5304H61.6661V24.1168C61.9714 23.5904 62.4131 23.1562 62.9446 22.8598C63.4761 22.5634 64.0778 22.416 64.6861 22.433C67.1076 22.433 68.6941 24.4091 68.6941 27.2899ZM66.6901 27.2899C66.6901 25.3694 65.702 24.103 64.1712 24.103C62.6403 24.103 61.68 25.3972 61.68 27.2899C61.68 29.1826 62.6821 30.4908 64.1712 30.4908C65.6603 30.4908 66.6901 29.2383 66.6901 27.2899Z" fill="white"/>
<path d="M75.5841 28.4178C75.7233 29.7121 76.9758 30.561 78.7015 30.561C80.4272 30.561 81.4849 29.712 81.4849 28.543C81.4849 27.374 80.7612 26.9148 79.0772 26.5112L77.3794 26.0937C74.9857 25.5231 73.8723 24.3958 73.8723 22.5727C73.8723 20.3321 75.8346 18.7734 78.618 18.7734C81.4013 18.7734 83.2662 20.3321 83.3358 22.5727H81.3596C81.2483 21.2784 80.1627 20.4852 78.5762 20.4852C76.9897 20.4852 75.932 21.2924 75.932 22.4475C75.932 23.366 76.614 23.8391 78.2979 24.3262L79.6896 24.6742C82.3755 25.3143 83.4889 26.3859 83.4889 28.2925C83.4889 30.7419 81.5405 32.2728 78.451 32.2728C75.3614 32.2728 73.594 30.7697 73.4688 28.4178H75.5841Z" fill="white"/>
<path d="M87.854 20.2344V22.4889H89.6631V24.0336H87.854V29.2803C87.854 30.1014 88.2158 30.4771 89.009 30.4771H89.6492V32.008C89.2918 32.0788 88.928 32.1115 88.5637 32.1055C86.6432 32.1055 85.8917 31.3817 85.8917 29.5308V24.0754H84.5V22.5307H85.8917V20.2344H87.854Z" fill="white"/>
<path d="M90.7109 27.2908C90.7109 24.2987 92.4784 22.4199 95.22 22.4199C97.9616 22.4199 99.7429 24.2987 99.7429 27.2908C99.7429 30.2829 97.9894 32.1617 95.22 32.1617C92.4505 32.1617 90.7109 30.2968 90.7109 27.2908ZM97.7528 27.2908C97.7528 25.245 96.8065 24.0203 95.22 24.0203C93.6335 24.0203 92.701 25.245 92.701 27.2908C92.701 29.3366 93.6474 30.5612 95.22 30.5612C96.7926 30.5612 97.7528 29.3505 97.7528 27.2908Z" fill="white"/>
<path d="M101.345 22.5308H103.21V24.159C103.332 23.6517 103.626 23.2024 104.042 22.8877C104.458 22.573 104.971 22.4125 105.492 22.4334C105.714 22.4128 105.938 22.4128 106.16 22.4334V24.4095C105.877 24.3169 105.581 24.2745 105.283 24.2842C105 24.2723 104.717 24.322 104.455 24.4297C104.193 24.5375 103.957 24.7009 103.764 24.9086C103.571 25.1162 103.425 25.3633 103.336 25.6327C103.248 25.9021 103.219 26.1875 103.251 26.4692V32.1194H101.289L101.345 22.5308Z" fill="white"/>
<path d="M115.22 29.253C115.005 30.151 114.472 30.9407 113.72 31.4756C112.967 32.0105 112.046 32.2543 111.128 32.1617C108.345 32.1617 106.633 30.3107 106.633 27.3325C106.633 24.3543 108.372 22.4199 111.044 22.4199C113.716 22.4199 115.331 24.2291 115.331 27.1099V27.7779H108.609V27.9032C108.579 28.2527 108.624 28.6047 108.74 28.9356C108.857 29.2666 109.042 29.569 109.284 29.8229C109.526 30.0769 109.82 30.2765 110.145 30.4086C110.47 30.5407 110.819 30.6022 111.17 30.5891C111.638 30.6281 112.106 30.5133 112.503 30.2622C112.899 30.011 113.204 29.6371 113.369 29.1974L115.22 29.253ZM108.623 26.4697H113.382C113.398 26.1553 113.348 25.8412 113.237 25.5468C113.126 25.2524 112.955 24.984 112.736 24.7582C112.517 24.5324 112.254 24.3541 111.963 24.2344C111.672 24.1146 111.359 24.056 111.044 24.0621C110.413 24.0583 109.805 24.3026 109.352 24.7426C108.899 25.1825 108.637 25.7828 108.623 26.414V26.4697Z" fill="white"/>
<path d="M40.0106 9.17188C40.8068 9.22493 41.5531 9.57866 42.0983 10.1614C42.6434 10.7441 42.9467 11.5122 42.9467 12.3101C42.9467 13.1081 42.6434 13.8762 42.0983 14.4589C41.5531 15.0416 40.8068 15.3953 40.0106 15.4484H37.7422V9.17188H40.0106ZM38.7164 14.5577H39.8993C40.4648 14.5131 40.9928 14.257 41.3779 13.8404C41.763 13.4238 41.9768 12.8774 41.9768 12.3101C41.9768 11.7428 41.763 11.1964 41.3779 10.7798C40.9928 10.3632 40.4648 10.1071 39.8993 10.0626H38.7164V14.5577Z" fill="white"/>
<path d="M44.065 13.0806C44.1054 12.6481 44.2708 12.2367 44.5409 11.8964C44.811 11.5561 45.1741 11.3018 45.5862 11.1642C45.9983 11.0266 46.4414 11.0117 46.8618 11.1215C47.2821 11.2312 47.6615 11.4608 47.9537 11.7822C48.246 12.1037 48.4384 12.5031 48.5077 12.932C48.577 13.3609 48.5202 13.8007 48.344 14.1978C48.1679 14.5949 47.8801 14.9322 47.5158 15.1688C47.1514 15.4053 46.7261 15.5308 46.2916 15.53C45.9769 15.5407 45.6636 15.4828 45.3735 15.3603C45.0833 15.2378 44.8233 15.0537 44.6115 14.8207C44.3996 14.5876 44.241 14.3113 44.1466 14.0108C44.0523 13.7104 44.0244 13.393 44.065 13.0806ZM47.572 13.0806C47.572 12.0508 47.0988 11.4524 46.2916 11.4524C45.4845 11.4524 45.0252 12.0508 45.0252 13.0806C45.0252 14.1105 45.4845 14.709 46.2916 14.709C47.0988 14.709 47.572 14.1105 47.572 13.0806Z" fill="white"/>
<path d="M54.4593 15.4486H53.4851L52.5109 11.9554L51.5368 15.4486H50.5347L49.2266 10.7168H50.1729L51.0218 14.3213L51.996 10.7168H52.8867L53.8609 14.3213H53.9444L54.7794 10.7168H55.7118L54.4593 15.4486Z" fill="white"/>
<path d="M56.8498 10.7149H57.7545V11.4664H57.824C57.9373 11.1966 58.1327 10.9693 58.3826 10.8169C58.6324 10.6645 58.924 10.5947 59.2157 10.6175C59.4468 10.6004 59.6787 10.6354 59.8944 10.72C60.11 10.8047 60.3039 10.9368 60.4616 11.1065C60.6193 11.2762 60.7368 11.4793 60.8054 11.7006C60.874 11.9219 60.8919 12.1557 60.8579 12.3849V15.4466H59.9255V12.6632C59.9255 11.9117 59.5915 11.536 58.8956 11.536C58.7397 11.5291 58.5842 11.556 58.4396 11.6147C58.2951 11.6734 58.1648 11.7626 58.0578 11.8762C57.9509 11.9898 57.8696 12.1251 57.8197 12.2729C57.7697 12.4208 57.7522 12.5776 57.7684 12.7328V15.5162H56.8359L56.8498 10.7149Z" fill="white"/>
<path d="M62.3672 8.86523H63.2996V15.4479H62.3672V8.86523Z" fill="white"/>
<path d="M64.5943 13.0806C64.6348 12.6487 64.7997 12.2377 65.0692 11.8977C65.3386 11.5577 65.701 11.3033 66.1123 11.1653C66.5236 11.0272 66.9661 11.0116 67.3861 11.1202C67.8061 11.2288 68.1856 11.457 68.4784 11.7771C68.7712 12.0972 68.9648 12.4954 69.0357 12.9234C69.1066 13.3514 69.0516 13.7909 68.8776 14.1883C68.7036 14.5857 68.4179 14.9239 68.0553 15.1621C67.6927 15.4003 67.2688 15.5281 66.8349 15.53C66.5197 15.5404 66.2059 15.4824 65.9152 15.36C65.6245 15.2376 65.3638 15.0537 65.1509 14.821C64.938 14.5883 64.778 14.3123 64.6819 14.0118C64.5859 13.7114 64.556 13.3937 64.5943 13.0806ZM68.1014 13.0806C68.1014 12.0508 67.6421 11.4524 66.8349 11.4524C66.0278 11.4524 65.5685 12.0508 65.5685 13.0806C65.5685 14.1105 66.0278 14.709 66.8349 14.709C67.6421 14.709 68.1014 14.1105 68.1014 13.0806Z" fill="white"/>
<path d="M70.0156 14.1108C70.0156 13.2479 70.6419 12.7191 71.7691 12.7191L73.0495 12.6495V12.232C73.0495 11.731 72.7294 11.4527 72.0892 11.4527C71.4491 11.4527 71.1986 11.6475 71.1011 11.9815H70.1966C70.294 11.1744 71.0594 10.5898 72.131 10.5898C73.2026 10.5898 73.9819 11.1883 73.9819 12.1764V15.4189H73.0913V14.751H73.0077C72.8611 14.9854 72.6552 15.1771 72.4109 15.3066C72.1666 15.4361 71.8924 15.4989 71.6161 15.4886C71.4178 15.5187 71.2153 15.5055 71.0226 15.45C70.8298 15.3946 70.6513 15.2982 70.4993 15.1673C70.3474 15.0365 70.2254 14.8743 70.1419 14.6919C70.0584 14.5096 70.0154 14.3113 70.0156 14.1108ZM73.0495 13.7072V13.2758L71.8944 13.3453C71.2542 13.3453 70.9481 13.6098 70.9481 14.0273C70.9481 14.4448 71.3238 14.7093 71.8248 14.7093C71.9733 14.7286 72.1242 14.7177 72.2684 14.6774C72.4126 14.6371 72.5472 14.5681 72.6642 14.4746C72.7811 14.381 72.878 14.2649 72.949 14.133C73.0199 14.0012 73.0636 13.8563 73.0773 13.7072H73.0495Z" fill="white"/>
<path d="M75.25 13.082C75.25 11.579 76.0154 10.6326 77.2123 10.6326C77.4989 10.629 77.7808 10.7052 78.0266 10.8527C78.2724 11.0002 78.4723 11.2131 78.604 11.4677V8.86523H79.5364V15.4479H78.6457V14.6685H78.5622C78.4161 14.9282 78.2009 15.1424 77.9405 15.2873C77.6801 15.4323 77.3847 15.5023 77.087 15.4897C76.0015 15.5175 75.25 14.5711 75.25 13.082ZM76.2103 13.082C76.2103 14.084 76.6834 14.6825 77.4767 14.6825C78.27 14.6825 78.7431 14.0701 78.7431 13.082C78.7431 12.0939 78.256 11.4677 77.4767 11.4677C76.6974 11.4677 76.2103 12.08 76.2103 13.082Z" fill="white"/>
<path d="M83.5259 13.0806C83.5664 12.6481 83.7317 12.2367 84.0018 11.8964C84.2719 11.5561 84.6351 11.3018 85.0471 11.1642C85.4592 11.0266 85.9024 11.0117 86.3227 11.1215C86.743 11.2312 87.1224 11.4608 87.4147 11.7822C87.7069 12.1037 87.8994 12.5031 87.9687 12.932C88.038 13.3609 87.9811 13.8007 87.805 14.1978C87.6289 14.5949 87.3411 14.9322 86.9767 15.1688C86.6123 15.4053 86.187 15.5308 85.7526 15.53C85.4378 15.5407 85.1245 15.4828 84.8344 15.3603C84.5443 15.2378 84.2842 15.0537 84.0724 14.8207C83.8605 14.5876 83.7019 14.3113 83.6076 14.0108C83.5132 13.7104 83.4853 13.393 83.5259 13.0806ZM87.0329 13.0806C87.0329 12.0508 86.5598 11.4524 85.7526 11.4524C84.9454 11.4524 84.4861 12.0508 84.4861 13.0806C84.4861 14.1105 84.9454 14.709 85.7526 14.709C86.5598 14.709 87.0329 14.1105 87.0329 13.0806Z" fill="white"/>
<path d="M89.2527 10.7149H90.1433V11.4664H90.213C90.3262 11.1966 90.5216 10.9693 90.7715 10.8169C91.0213 10.6645 91.3129 10.5947 91.6046 10.6175C92.6623 10.6175 93.2329 11.2576 93.2329 12.3849V15.4466H92.2865V12.6632C92.2865 11.9117 91.9664 11.536 91.2706 11.536C91.1147 11.5291 90.9592 11.556 90.8146 11.6147C90.6701 11.6734 90.5398 11.7626 90.4328 11.8762C90.3258 11.9898 90.2446 12.1251 90.1946 12.2729C90.1447 12.4208 90.1272 12.5776 90.1433 12.7328V15.5162H89.2109L89.2527 10.7149Z" fill="white"/>
<path d="M98.5424 9.53372V10.7305H99.5583V11.5238H98.5424V13.9593C98.5424 14.4464 98.7372 14.669 99.2104 14.669H99.5583V15.4484C99.3917 15.4644 99.2239 15.4644 99.0573 15.4484C98.0135 15.4484 97.6656 15.0726 97.6656 14.168V11.496H96.9141V10.7028H97.6656V9.50586L98.5424 9.53372Z" fill="white"/>
<path d="M100.845 8.86523H101.777V11.4677H101.847C101.96 11.1978 102.155 10.9705 102.405 10.8181C102.655 10.6657 102.947 10.596 103.238 10.6188C103.468 10.6064 103.697 10.6448 103.91 10.7313C104.122 10.8178 104.313 10.9502 104.469 11.1191C104.624 11.2879 104.741 11.4891 104.809 11.7081C104.878 11.9272 104.898 12.1587 104.867 12.3861V15.4479H103.934V12.6645C103.934 11.8991 103.572 11.5233 102.918 11.5233C102.758 11.5108 102.597 11.5331 102.446 11.5888C102.295 11.6445 102.158 11.7323 102.044 11.846C101.93 11.9597 101.843 12.0968 101.787 12.2477C101.731 12.3986 101.709 12.5598 101.722 12.7201V15.5035H100.789L100.845 8.86523Z" fill="white"/>
<path d="M110.376 14.1675C110.256 14.6048 109.984 14.9852 109.609 15.2402C109.234 15.4953 108.781 15.6084 108.33 15.5592C108.019 15.5682 107.709 15.5092 107.423 15.3864C107.137 15.2636 106.881 15.0799 106.673 14.848C106.465 14.6162 106.31 14.3419 106.219 14.0441C106.128 13.7463 106.103 13.4322 106.145 13.1237C106.103 12.8144 106.128 12.4997 106.218 12.2009C106.309 11.9021 106.462 11.6261 106.667 11.3913C106.873 11.1566 107.127 10.9687 107.411 10.8402C107.695 10.7118 108.004 10.6457 108.316 10.6465C109.638 10.6465 110.432 11.5511 110.432 13.0402V13.2768H107.092C107.072 13.4538 107.09 13.6329 107.145 13.8023C107.2 13.9717 107.29 14.1274 107.41 14.2591C107.53 14.3908 107.676 14.4955 107.84 14.566C108.003 14.6366 108.18 14.6716 108.358 14.6685C108.581 14.695 108.807 14.6549 109.008 14.5534C109.208 14.4519 109.374 14.2935 109.485 14.0979L110.376 14.1675ZM107.092 12.6366H109.485C109.497 12.4775 109.475 12.3177 109.421 12.1675C109.367 12.0174 109.283 11.8802 109.173 11.7647C109.062 11.6493 108.929 11.5583 108.782 11.4975C108.634 11.4368 108.476 11.4076 108.316 11.4119C108.154 11.4082 107.992 11.4372 107.841 11.4973C107.69 11.5573 107.553 11.6471 107.437 11.7614C107.321 11.8757 107.23 12.0121 107.168 12.1624C107.107 12.3128 107.076 12.4741 107.078 12.6366H107.092Z" fill="white"/>
</svg>
