<svg width="6" height="9" viewBox="0 0 6 9" fill="none" xmlns="http://www.w3.org/2000/svg">
<path d="M4.18166 4.5103L2.50376 5.94664C1.76691 6.57741 1.02986 7.20805 0.292615 7.83856C0.109185 7.99498 0.00543258 8.18562 0.0357759 8.42944C0.0667065 8.67678 0.20041 8.85589 0.434152 8.94955C0.674745 9.04594 0.897527 9.00195 1.0927 8.83692C1.48599 8.50453 1.87576 8.16802 2.26728 7.83328C3.35051 6.90687 4.43373 5.98079 5.51696 5.05504C5.7323 4.87241 5.86306 4.65519 5.78241 4.37343C5.74463 4.24184 5.66398 4.10126 5.5612 4.01288C4.06518 2.72318 2.56478 1.43857 1.06001 0.159041C0.783002 -0.0773516 0.388738 -0.0452852 0.15852 0.222391C-0.0812903 0.501018 -0.0464453 0.892072 0.245634 1.14137C1.4762 2.19526 2.70736 3.24843 3.9391 4.30089C4.01486 4.36659 4.09023 4.4317 4.18166 4.5103Z" fill="#414141"/>
</svg>
