<svg width="21" height="19" viewBox="0 0 21 19" fill="none" xmlns="http://www.w3.org/2000/svg">
<path d="M16.9889 13.8135C17.3836 13.8279 17.7713 13.9227 18.1281 14.092C18.485 14.2612 18.8036 14.5015 19.0644 14.798C19.9957 13.9199 20.2618 12.656 19.8627 10.993C19.2241 8.31876 17.5876 7.28102 14.9667 7.90633C15.9645 7.66685 16.2705 6.72223 15.8714 5.07248C15.4323 3.20985 14.1551 2.53133 12.0663 3.0369L4.74884 4.77978C4.3231 4.88621 4.15014 5.1523 4.24327 5.60466L7.09043 17.5387C7.19686 17.9778 7.51616 18.1374 8.03504 18.0177L8.208 17.9778C8.08981 17.4769 8.17456 16.9495 8.44375 16.5108C8.71295 16.0721 9.14473 15.7577 9.64488 15.6362C10.1458 15.518 10.6732 15.6028 11.1119 15.872C11.5506 16.1412 11.865 16.5729 11.9865 17.0731L13.9555 16.6074C13.9901 15.8357 14.3284 15.1089 14.8966 14.5855C15.4648 14.0621 16.2169 13.7846 16.9889 13.8135ZM8.93974 8.78442L8.208 6.19005C8.08826 5.7377 8.30113 5.445 8.85992 5.29865L9.53844 5.12569C11.0019 4.73987 11.9332 5.24543 12.3324 6.66901C12.665 7.86641 12.0929 8.65137 10.6161 9.0239L9.92427 9.19686C9.37879 9.34321 9.05948 9.21016 8.93974 8.78442ZM11.3212 14.8512C10.8024 14.9843 10.4964 14.8246 10.3766 14.3856L9.57836 11.2857C9.47192 10.8732 9.68479 10.5938 10.2037 10.4608L11.574 10.1149C13.4899 9.6226 14.6341 10.1149 15.0066 11.5917C15.4057 13.0418 14.6474 13.9998 12.7315 14.492L11.3212 14.8512Z" fill="#55AE44" fill-opacity="0.58"/>
<path d="M16.8735 18.9891C18.1152 18.9891 19.1219 17.9824 19.1219 16.7406C19.1219 15.4989 18.1152 14.4922 16.8735 14.4922C15.6317 14.4922 14.625 15.4989 14.625 16.7406C14.625 17.9824 15.6317 18.9891 16.8735 18.9891Z" fill="#55AE44" fill-opacity="0.58"/>
<path d="M6.53249 3.58273L6.23979 2.39864C6.23979 2.37203 6.22649 2.35872 6.22649 2.33211C6.21318 2.18576 6.10675 1.54715 5.18874 1.37419C3.97803 1.08149 1.7828 0.363054 1.31714 0.23001C1.29053 0.216705 1.25062 0.203401 1.22401 0.190096C1.02444 0.0703562 0.159653 -0.368691 0 0.70897V0.762188C0 0.908537 0.0266089 1.52054 0.598701 1.7068C1.17079 1.89307 3.49907 2.50507 4.44369 2.71794C4.51459 2.73232 4.57939 2.76809 4.62934 2.82042C4.6793 2.87276 4.71201 2.93914 4.72308 3.01064L4.94926 3.96856C4.97264 4.06533 5.03327 4.14897 5.11798 4.20128C5.20268 4.2536 5.30461 4.27037 5.40161 4.24795H5.41492L6.23979 4.03508C6.29 4.02715 6.33797 4.00872 6.38058 3.981C6.42319 3.95329 6.45949 3.91691 6.4871 3.87424C6.51471 3.83156 6.53303 3.78354 6.54085 3.73332C6.54867 3.68309 6.54582 3.63178 6.53249 3.58273Z" fill="#55AE44" fill-opacity="0.58"/>
<path d="M4.69477 4.36731L4.53512 3.70209V3.66218C4.53512 3.58235 4.4686 3.22313 3.94972 3.1167C3.25789 2.95704 2.41971 2.67765 2.16693 2.59782C2.14692 2.59449 2.12838 2.58522 2.11371 2.57121C2.00727 2.50469 1.51501 2.25191 1.42188 2.86391V2.89052C1.42188 2.97035 1.43518 3.31626 1.75449 3.4227C2.07379 3.52913 2.9785 3.742 3.52398 3.86174C3.56269 3.87113 3.59806 3.89099 3.62622 3.91916C3.65438 3.94732 3.67425 3.98269 3.68363 4.0214L3.81668 4.56688C3.82352 4.59492 3.83585 4.62132 3.85297 4.64456C3.87009 4.6678 3.89164 4.68741 3.91639 4.70226C3.94114 4.71711 3.96859 4.7269 3.99715 4.73107C4.02571 4.73523 4.05481 4.73369 4.08277 4.72653L4.54842 4.60679C4.5754 4.60391 4.60135 4.59487 4.62427 4.58036C4.64719 4.56585 4.66646 4.54626 4.68061 4.52312C4.69476 4.49997 4.70339 4.47388 4.70584 4.44687C4.7083 4.41985 4.70451 4.39263 4.69477 4.36731Z" fill="#55AE44" fill-opacity="0.58"/>
<path d="M10.083 18.9355C10.8839 18.9355 11.5332 18.2863 11.5332 17.4853C11.5332 16.6844 10.8839 16.0352 10.083 16.0352C9.28208 16.0352 8.63281 16.6844 8.63281 17.4853C8.63281 18.2863 9.28208 18.9355 10.083 18.9355Z" fill="#55AE44" fill-opacity="0.58"/>
</svg>
