<svg width="34" height="30" viewBox="0 0 34 30" fill="none" xmlns="http://www.w3.org/2000/svg">
<path d="M10.3078 16.8466L10.2821 16.7285L10.4287 16.6966C10.3731 16.4411 10.3208 16.211 10.2621 15.9633L10.3078 16.8466ZM10.3078 16.8466H10.4287H10.7366H10.7707H10.8047H10.8387H10.8727H10.9067H10.9408H10.9748H11.0088H11.0428H11.0768H11.1109H11.1449H11.1789H11.2129H11.2469H11.281H11.315H11.349H11.383H11.417H11.4511H11.4851H11.5191H11.5531H11.5871H11.6212H11.6552H11.6892H11.7232H11.7573H11.7913H11.8253H11.8593H11.8933H11.9274H11.9614H11.9954H12.0294H12.0634H12.0975H12.1315H12.1655H12.1995H12.2335H12.2676H12.3016H12.3356H12.3696H12.4036H12.4377H12.4717H12.5057H12.5397H12.5737H12.6078H12.6418H12.6758H12.7098H12.7438H12.7779H12.8119H12.8459H12.8799H12.9139H12.948H12.982H13.016H13.05H13.0841H13.1181H13.1521H13.1861H13.2201H13.2542H13.2882H13.3222H13.3562H13.3902H13.4243H13.4583H13.4923H13.5263H13.5603H13.5944H13.6284H13.6624H13.6964H13.7304H13.7645H13.7985H13.8325H13.8665H13.9005H13.9346H13.9686H14.0026H14.0366H14.0706H14.1047H14.1387H14.1727H14.2067H14.2407H14.2748H14.3088H14.3428H14.3768H14.4109H14.4449H14.4789H14.5129H14.5469H14.581H14.615H14.649H14.683H14.717H14.7511H14.7851H14.8191H14.8531H14.8871H14.9212H14.9552H14.9892H15.0232H15.0572H15.0913H15.1253H15.1593H15.1933H15.2273H15.2614H15.2954H15.3294H15.3634H15.3974H15.4315H15.4655H15.4995H15.5335H15.5675H15.6016H15.6356H15.6696H15.7036H15.7376H15.7717H15.8057H15.8397H15.8737H15.9078H15.9418H15.9758H16.0098H16.0438H16.0779H16.1119H16.1459H16.1799H16.2139H16.248H16.282H16.316H16.35H16.384H16.4181H16.4521H16.4861H16.5201H16.5541H16.5882H16.6222H16.6562H16.6902H16.7242H16.7583H16.7923H16.8263H16.8603H16.8943H16.9284H16.9624H16.9964H17.0304H17.0644H17.0985H17.1325H17.1665H17.2005H17.2346H17.2686H17.3026H17.3366H17.3706H17.4047H17.4387H17.4727H17.5067H17.5407H17.5748H17.6088H17.6428H17.6768H17.7108H17.7449H17.7789H17.8129H17.8469H17.8809H17.915H17.949H17.983H18.017H18.051H18.0851H18.1191H18.1531H18.1871H18.2211H18.2552H18.2892H18.3232H18.3572H18.3912H18.4253H18.4593H18.4933H18.5273H18.5614H18.5954H18.6294H18.6634H18.6974H18.7315H18.7655H18.7995H18.8335H18.8675H18.9016H18.9356H18.9696H19.0036H19.0376H19.0717H19.1057H19.1397H19.1737H19.2077H19.2418H19.2758H19.3098H19.3438H19.3778H19.4119H19.4459H19.4799H19.5139H19.5479H19.582H19.616H19.65H19.684H19.718H19.7521H19.7861H19.8201H19.8541H19.8882H19.9222H19.9562H19.9902H20.0242H20.0583H20.0923H20.1263H20.1603H20.1943H20.2284H20.2624H20.2964H20.3304H20.3644H20.3985H20.4325H20.4665H20.5005H20.5345H20.5686H20.6026H20.6366H20.6706H20.7046H20.7387H20.7727H20.8067H20.8407H20.8747H20.9088H20.9428H20.9768H21.0108H21.0448H21.0789H21.1129H21.1469H21.1809H21.215H21.249H21.283H21.317H21.351H21.3851H21.4191H21.4531H21.4871H21.5211H21.5552H21.5892H21.6232H21.6572H21.6912H21.7253H21.7593H21.7933H21.8273H21.8613H21.8954H21.9294H21.9634H21.9974H22.0314H22.0655H22.0995H22.1335H22.1675H22.2015H22.2356H22.2696H22.3036H22.3376H22.3716H22.4057H22.4397H22.4737H22.5077H22.5417H22.5758H22.6098H22.6438H22.6778H22.7119H22.7459H22.7799H22.8139H22.8479H22.882H22.916H22.95H22.984H23.018H23.0521H23.0861H23.1201H23.1541H23.1881H23.2222H23.2562H23.2902H23.3242H23.3582H23.3923H23.4263H23.4603H23.4943H23.5283H23.5624H23.5964H23.6304H23.6644H23.6984H23.7325H23.7665H23.8005H23.8345H23.8685H23.9026H23.9366H23.9706H24.0046H24.0387H24.0727H24.1067H24.1407H24.1747H24.2088H24.2428H24.2768H24.3108H24.3448H24.3789H24.4129H24.4469H24.4809H24.5149H24.549H24.583H24.617H24.651H24.685H24.7191H24.7531H24.7871H24.8211H24.8551H24.8892H24.9232H24.9572H24.9912H25.0252H25.0593H25.0933H25.1273H25.1613H25.1953H25.2294H25.2634H25.2974H25.3314H25.3654H25.3995H25.4335H25.4675H25.5015H25.5356H25.5696H25.6036H25.6376H25.6716H25.7057H25.7397H25.7737H25.8077H25.8417H25.8758H25.9098H25.9438H25.9778H26.0118H26.0459H26.0799H26.1139H26.1479H26.1819H26.216H26.25H26.284H26.318H26.352H26.3861H26.4201H26.4541H26.4881H26.5221H26.5562H26.5902H26.6242H26.6582H26.6923H26.7263H26.7603H26.7943H26.8283H26.8624H26.8964H26.9304H26.9644H26.9984H27.0325H27.0665H27.1005H27.1345H27.1685H27.2026H27.2366H27.2706H27.3046H27.3386H27.3727H27.4067H27.4407H27.4747H27.5087H27.5428H27.5768H27.6108H27.6448H27.6788H27.7129H27.7469H27.7809H27.8149H27.8489H27.883H27.917H27.951H27.985H28.0191H28.0531H28.0871H28.1211H28.1551C28.2851 16.8466 28.4096 16.8277 28.5066 16.7457C28.6021 16.6649 28.6418 16.547 28.667 16.4277L28.667 16.4274C29.4733 12.5705 30.2844 8.71514 31.1002 4.86142M10.3078 16.8466L31.1002 4.86142M33.2756 5.32399C33.4248 4.61925 33.0375 3.99704 32.3725 3.85419C31.7074 3.71134 31.1027 4.1272 30.9535 4.83035M33.2756 5.32399L28.5202 16.3967C29.3265 12.5396 30.1376 8.6842 30.9535 4.83035M33.2756 5.32399C32.6344 8.35775 31.9926 11.3905 31.3503 14.4221L33.2756 5.32399ZM30.9535 4.83035L31.1002 4.86142M30.9535 4.83035L31.1002 4.86149C31.1002 4.86147 31.1002 4.86144 31.1002 4.86142M31.1002 4.86142C31.2338 4.23178 31.7645 3.87704 32.341 4.00085C32.919 4.12501 33.2623 4.66275 33.1289 5.29292L33.1288 5.29297C32.4876 8.3267 31.8458 11.3594 31.2035 14.391M31.1002 4.86142L31.2035 14.391M31.2035 14.391C31.1305 14.7354 31.0581 15.0795 30.9856 15.4235C30.8359 16.1347 30.6863 16.8452 30.5323 17.5553C30.437 17.9943 30.2303 18.3325 29.9426 18.5613C29.6547 18.7904 29.2756 18.918 28.8218 18.918H10.9144H10.7298L10.7676 19.0987C10.7862 19.1877 10.8045 19.2759 10.8227 19.3634C10.8989 19.73 10.9726 20.085 11.0536 20.4398C11.0639 20.4876 11.0906 20.5214 11.1095 20.541C11.1301 20.5622 11.153 20.5787 11.1728 20.5909C11.2122 20.6152 11.257 20.6336 11.2944 20.6441L11.3051 20.6471L11.3161 20.6485C11.3881 20.6576 11.4609 20.658 11.533 20.6497H11.5571H11.5903H11.6235H11.6566H11.6898H11.723H11.7562H11.7894H11.8226H11.8557H11.8889H11.9221H11.9553H11.9885H12.0217H12.0548H12.088H12.1212H12.1544H12.1876H12.2207H12.2539H12.2871H12.3203H12.3535H12.3867H12.4198H12.453H12.4862H12.5194H12.5526H12.5858H12.6189H12.6521H12.6853H12.7185H12.7517H12.7848H12.818H12.8512H12.8844H12.9176H12.9508H12.9839H13.0171H13.0503H13.0835H13.1167H13.1498H13.183H13.2162H13.2494H13.2826H13.3157H13.3489H13.3821H13.4153H13.4485H13.4816H13.5148H13.548H13.5812H13.6144H13.6476H13.6807H13.7139H13.7471H13.7803H13.8135H13.8466H13.8798H13.913H13.9462H13.9794H14.0125H14.0457H14.0789H14.1121H14.1453H14.1784H14.2116H14.2448H14.278H14.3111H14.3443H14.3775H14.4107H14.4439H14.477H14.5102H14.5434H14.5766H14.6098H14.6429H14.6761H14.7093H14.7425H14.7757H14.8088H14.842H14.8752H14.9084H14.9415H14.9747H15.0079H15.0411H15.0743H15.1074H15.1406H15.1738H15.207H15.2402H15.2733H15.3065H15.3397H15.3729H15.406H15.4392H15.4724H15.5056H15.5388H15.5719H15.6051H15.6383H15.6715H15.7046H15.7378H15.771H15.8042H15.8374H15.8705H15.9037H15.9369H15.9701H16.0032H16.0364H16.0696H16.1028H16.1359H16.1691H16.2023H16.2355H16.2687H16.3018H16.335H16.3682H16.4014H16.4345H16.4677H16.5009H16.5341H16.5672H16.6004H16.6336H16.6668H16.6999H16.7331H16.7663H16.7995H16.8326H16.8658H16.899H16.9322H16.9653H16.9985H17.0317H17.0649H17.098H17.1312H17.1644H17.1976H17.2307H17.2639H17.2971H17.3303H17.3634H17.3966H17.4298H17.463H17.4961H17.5293H17.5625H17.5957H17.6288H17.662H17.6952H17.7284H17.7615H17.7947H17.8279H17.8611H17.8942H17.9274H17.9606H17.9938H18.0269H18.0601H18.0933H18.1265H18.1596H18.1928H18.226H18.2592H18.2923H18.3255H18.3587H18.3918H18.425H18.4582H18.4914H18.5245H18.5577H18.5909H18.6241H18.6572H18.6904H18.7236H18.7568H18.7899H18.8231H18.8563H18.8894H18.9226H18.9558H18.989H19.0221H19.0553H19.0885H19.1217H19.1548H19.188H19.2212H19.2543H19.2875H19.3207H19.3539H19.387H19.4202H19.4534H19.4865H19.5197H19.5529H19.5861H19.6192H19.6524H19.6856H19.7187H19.7519H19.7851H19.8183H19.8514H19.8846H19.9178H19.9509H19.9841H20.0173H20.0505H20.0836H20.1168H20.15H20.1831H20.2163H20.2495H20.2827H20.3158H20.349H20.3822H20.4153H20.4485H20.4817H20.5149H20.548H20.5812H20.6144H20.6475H20.6807H20.7139H20.747H20.7802H20.8134H20.8466H20.8797H20.9129H20.9461H20.9792H21.0124H21.0456H21.0787H21.1119H21.1451H21.1782H21.2114H21.2446H21.2778H21.3109H21.3441H21.3773H21.4104H21.4436H21.4768H21.5099H21.5431H21.5763H21.6094H21.6426H21.6758H21.709H21.7421H21.7753H21.8085H21.8416H21.8748H21.908H21.9411H21.9743H22.0075H22.0406H22.0738H22.107H22.1401H22.1733H22.2065H22.2396H22.2728H22.306H22.3391H22.3723H22.4055H22.4386H22.4718H22.505H22.5382H22.5713H22.6045H22.6377H22.6708H22.704H22.7372H22.7703H22.8035H22.8367H22.8698H22.903H22.9362H22.9693H23.0025H23.0357H23.0688H23.102H23.1352H23.1683H23.2015H23.2347H23.2678H23.301H23.3342H23.3673H23.4005H23.4337H23.4668H23.5H23.5332H23.5663H23.5995H23.6326H23.6658H23.699H23.7321H23.7653H23.7985H23.8316H23.8648H23.898H23.9311H23.9643H23.9975H24.0306H24.0638H24.097H24.1301H24.1633H24.1965H24.2296H24.2628H24.296H24.3291H24.3623H24.3954H24.4286H24.4618H24.4949H24.5281H24.5613H24.5944H24.6276H24.6608H24.6939H24.7271H24.7603H24.7934H24.8266H24.8597H24.8929H24.9261H24.9592H24.9924H25.0256H25.0587H25.0919H25.1251H25.1582H25.1914H25.2246H25.2577H25.2909H25.324H25.3572H25.3904H25.4235H25.4567H25.4899H25.523H25.5562H25.5893H25.6225H25.6557H25.6888H25.722H25.7552H25.7883H25.8215H25.8546H25.8878H25.921H25.9541H25.9873H26.0205H26.0536H26.0868H26.1199H26.1531H26.1863H26.2194H26.2526H26.2858H26.3189H26.3521H26.3852H26.4184H26.4516H26.4847H26.5179H26.5511H26.5842H26.6174H26.6505H26.6837H26.7169H26.75H26.7832H26.8163H26.8495H26.8827H26.9158H26.949H26.9821H27.0153H27.0485H27.0816H27.1148H27.1479H27.1811H27.2143H27.2474H27.2806H27.3138H27.3469H27.3801H27.4132H27.4464H27.4796H27.5127H27.5459H27.579H27.6122H27.6454H27.6785H27.7117H27.7448H27.778H27.8112H27.8443H27.8775H27.9106H27.9438H27.977H28.0101H28.0433H28.0764H28.1096H28.1427H28.1759H28.2091H28.2422H28.2754H28.3085H28.3417H28.3749H28.408H28.4412H28.4743H28.5075C28.7601 20.6497 28.9735 20.6968 29.1472 20.7942C29.319 20.8906 29.4617 21.0416 29.5664 21.267C29.6366 21.4206 29.668 21.589 29.658 21.7575C29.6479 21.9261 29.5967 22.0897 29.5087 22.2339C29.4208 22.3781 29.2988 22.4985 29.1534 22.5846C29.009 22.6701 28.846 22.7191 28.6785 22.7274H28.6784H28.678H28.6776H28.6773H28.6769H28.6765H28.6761H28.6758H28.6754H28.675H28.6747H28.6743H28.6739H28.6735H28.6732H28.6728H28.6724H28.672H28.6717H28.6713H28.6709H28.6706H28.6702H28.6698H28.6694H28.6691H28.6687H28.6683H28.668H28.6676H28.6672H28.6668H28.6665H28.6661H28.6657H28.6653H28.665H28.6646H28.6642H28.6639H28.6635H28.6631H28.6627H28.6624H28.662H28.6616H28.6613H28.6609H28.6605H28.6601H28.6598H28.6594H28.659H28.6587H28.6583H28.6579H28.6575H28.6572H28.6568H28.6564H28.656H28.6557H28.6553H28.6549H28.6546H28.6542H28.6538H28.6534H28.6531H28.6527H28.6523H28.652H28.6516H28.6512H28.6508H28.6505H28.6501H28.6497H28.6494H28.649H28.6486H28.6482H28.6479H28.6475H28.6471H28.6467H28.6464H28.646H28.6456H28.6453H28.6449H28.6445H28.6441H28.6438H28.6434H28.643H28.6427H28.6423H28.6419H28.6415H28.6412H28.6408H28.6404H28.6401H28.6397H28.6393H28.6389H28.6386H28.6382H28.6378H28.6375H28.6371H28.6367H28.6363H28.636H28.6356H28.6352H28.6348H28.6345H28.6341H28.6337H28.6334H28.633H28.6326H28.6322H28.6319H28.6315H28.6311H28.6308H28.6304H28.63H28.6296H28.6293H28.6289H28.6285H28.6282H28.6278H28.6274H28.627H28.6267H28.6263H28.6259H28.6255H28.6252H28.6248H28.6244H28.6241H28.6237H28.6233H28.6229H28.6226H28.6222H28.6218H28.6215H28.6211H28.6207H28.6203H28.62H28.6196H28.6192H28.6189H28.6185H28.6181H28.6177H28.6174H28.617H28.6166H28.6162H28.6159H28.6155H28.6151H28.6148H28.6144H28.614H28.6136H28.6133H28.6129H28.6125H28.6122H28.6118H28.6114H28.611H28.6107H28.6103H28.6099H28.6096H28.6092H28.6088H28.6084H28.6081H28.6077H28.6073H28.6069H28.6066H28.6062H28.6058H28.6055H28.6051H28.6047H28.6043H28.604H28.6036H28.6032H28.6029H28.6025H28.6021H28.6017H28.6014H28.601H28.6006H28.6003H28.5999H28.5995H28.5991H28.5988H28.5984H28.598H28.5976H28.5973H28.5969H28.5965H28.5962H28.5958H28.5954H28.595H28.5947H28.5943H28.5939H28.5936H28.5932H28.5928H28.5924H28.5921H28.5917H28.5913H28.591H28.5906H28.5902H28.5898H28.5895H28.5891H28.5887H28.5883H28.588H28.5876H28.5872H28.5869H28.5865H28.5861H28.5857H28.5854H28.585H28.5846H28.5843H28.5839H28.5835H28.5831H28.5828H28.5824H28.582H28.5817H28.5813H28.5809H28.5805H28.5802H28.5798H28.5794H28.579H28.5787H28.5783H28.5779H28.5776H28.5772H28.5768H28.5764H28.5761H28.5757H28.5753H28.575H28.5746H28.5742H28.5738H28.5735H28.5731H28.5727H28.5724H28.572H28.5716H28.5712H28.5709H28.5705H28.5701H28.5697H28.5694H28.569H28.5686H28.5683H28.5679H28.5675H28.5671H28.5668H28.5664H28.566H28.5657H28.5653H28.5649H28.5645H28.5642H28.5638H28.5634H28.5631H28.5627H28.5623H28.5619H28.5616H28.5612H28.5608H28.5604H28.5601H28.5597H28.5593H28.559H28.5586H28.5582H28.5578H28.5575H28.5571H28.5567H28.5564H28.556H28.5556H28.5552H28.5549H28.5545H28.5541H28.5538H28.5534H28.553H28.5526H28.5523H28.5519H28.5515H28.5511H28.5508H28.5504H28.55H28.5497H28.5493H28.5489H28.5485H28.5482H28.5478H28.5474H28.5471H28.5467H28.5463H28.5459H28.5456H28.5452H28.5448H28.5445H28.5441H28.5437H28.5433H28.543H28.5426H28.5422H28.5418H28.5415H28.5411H28.5407H28.5404H28.54H28.5396H28.5392H28.5389H28.5385H28.5381H28.5378H28.5374H28.537H28.5366H28.5363H28.5359H28.5355H28.5352H28.5348H28.5344H28.534H28.5337H28.5333H28.5329H28.5325H28.5322H28.5318H28.5314H28.5311H28.5307H28.5303H28.5299H28.5296H28.5292H28.5288H28.5285H28.5281H28.5277H28.5273H28.527H28.5266H28.5262H28.5259H28.5255H28.5251H28.5247H28.5244H28.524H28.5236H28.5232H28.5229H28.5225H28.5221H28.5218H28.5214H28.521H28.5206H28.5203H28.5199H28.5195H28.5192H28.5188H28.5184H28.518H28.5177H28.5173H28.5169H28.5166H28.5162H28.5158H28.5154H28.5151H28.5147H28.5143H28.5139H28.5136H28.5132H28.5128H28.5125H28.5121H28.5117H28.5113H28.511H28.5106H28.5102H28.5099H28.5095H28.5091H28.5087H28.5084H28.508H28.5076H28.5073H28.5069H28.5065H28.5061H28.5058H28.5054H28.505H28.5046H28.5043H28.5039H28.5035H28.5032H28.5028H28.5024H28.502H28.5017H28.5013H28.5009H28.5006H28.5002H28.4998H28.4994H28.4991H28.4987H28.4983H28.498H28.4976H28.4972H28.4968H28.4965H28.4961H28.4957H28.4953H28.495H28.4946H28.4942H28.4939H28.4935H28.4931H28.4927H28.4924H28.492H28.4916H10.8938C10.4051 22.7274 10.0145 22.597 9.72266 22.3593C9.4307 22.1216 9.22393 21.7654 9.12313 21.2893C8.16337 16.7508 7.20254 12.2133 6.24066 7.67693M31.2035 14.391L1.20044 2.37805H4.70349H4.96222C4.96601 2.39273 4.96977 2.40717 4.97347 2.42138C4.99295 2.49628 5.01078 2.5648 5.02412 2.62884M6.24066 7.67693C5.88198 5.98403 5.52542 4.29115 5.17097 2.59824C5.17096 2.5982 5.17095 2.59815 5.17094 2.5981L5.02412 2.62884M6.24066 7.67693L6.09393 7.70804M6.24066 7.67693L6.09393 7.70804M5.02412 2.62884C5.37861 4.32191 5.73521 6.01497 6.09393 7.70804M5.02412 2.62884L6.09393 7.70804" fill="white" stroke="#55AE44" stroke-width="0.3"/>
<path d="M16.3249 7.0755L16.4773 7.07798V6.92552V1.33839C16.4773 1.12892 16.5165 1.02776 16.5692 0.974144C16.6213 0.921139 16.7206 0.880469 16.9305 0.880469H21.9113C22.1135 0.880469 22.2156 0.921445 22.271 0.976717C22.3263 1.03193 22.3676 1.13392 22.3676 1.3368V6.92552V7.07552H22.5176H26.4238C26.5779 7.07552 26.6733 7.09753 26.7352 7.13134C26.7912 7.16196 26.8327 7.20934 26.8639 7.29455L26.8641 7.29498C26.8989 7.38916 26.8901 7.45666 26.8625 7.51689C26.8311 7.58527 26.771 7.65342 26.6836 7.73465L26.6836 7.73467L19.7203 14.2075L19.72 14.2078C19.5846 14.3344 19.4918 14.3698 19.4184 14.3678C19.3422 14.3657 19.243 14.3225 19.0978 14.187L19.0977 14.1869C16.7792 12.0292 14.4559 9.87155 12.1278 7.71388L12.1279 7.71387L12.1263 7.71245C12.0453 7.63952 11.992 7.57288 11.9659 7.50788C11.9422 7.44883 11.9369 7.38177 11.9718 7.29313C12.0086 7.19964 12.0583 7.1495 12.1144 7.11942C12.1747 7.0871 12.256 7.07075 12.3656 7.07075H12.3727H12.3799H12.3871H12.3942H12.4014H12.4086H12.4158H12.4229H12.4301H12.4373H12.4444H12.4516H12.4588H12.4659H12.4731H12.4803H12.4875H12.4946H12.5018H12.509H12.5161H12.5233H12.5305H12.5376H12.5448H12.552H12.5592H12.5663H12.5735H12.5807H12.5878H12.595H12.6022H12.6094H12.6165H12.6237H12.6309H12.638H12.6452H12.6524H12.6595H12.6667H12.6739H12.6811H12.6882H12.6954H12.7026H12.7097H12.7169H12.7241H12.7313H12.7384H12.7456H12.7528H12.7599H12.7671H12.7743H12.7814H12.7886H12.7958H12.803H12.8101H12.8173H12.8245H12.8316H12.8388H12.846H12.8531H12.8603H12.8675H12.8747H12.8818H12.889H12.8962H12.9033H12.9105H12.9177H12.9249H12.932H12.9392H12.9464H12.9535H12.9607H12.9679H12.975H12.9822H12.9894H12.9966H13.0037H13.0109H13.0181H13.0252H13.0324H13.0396H13.0467H13.0539H13.0611H13.0683H13.0754H13.0826H13.0898H13.0969H13.1041H13.1113H13.1184H13.1256H13.1328H13.14H13.1471H13.1543H13.1615H13.1686H13.1758H13.183H13.1902H13.1973H13.2045H13.2117H13.2188H13.226H13.2332H13.2403H13.2475H13.2547H13.2619H13.269H13.2762H13.2834H13.2905H13.2977H13.3049H13.312H13.3192H13.3264H13.3335H13.3407H13.3479H13.3551H13.3622H13.3694H13.3766H13.3837H13.3909H13.3981H13.4052H13.4124H13.4196H13.4268H13.4339H13.4411H13.4483H13.4554H13.4626H13.4698H13.4769H13.4841H13.4913H13.4985H13.5056H13.5128H13.52H13.5271H13.5343H13.5415H13.5486H13.5558H13.563H13.5702H13.5773H13.5845H13.5917H13.5988H13.606H13.6132H13.6203H13.6275H13.6347H13.6418H13.649H13.6562H13.6634H13.6705H13.6777H13.6849H13.692H13.6992H13.7064H13.7135H13.7207H13.7279H13.735H13.7422H13.7494H13.7566H13.7637H13.7709H13.7781H13.7852H13.7924H13.7996H13.8067H13.8139H13.8211H13.8282H13.8354H13.8426H13.8498H13.8569H13.8641H13.8713H13.8784H13.8856H13.8928H13.8999H13.9071H13.9143H13.9214H13.9286H13.9358H13.9429H13.9501H13.9573H13.9645H13.9716H13.9788H13.986H13.9931H14.0003H14.0075H14.0146H14.0218H14.029H14.0361H14.0433H14.0505H14.0576H14.0648H14.072H14.0792H14.0863H14.0935H14.1007H14.1078H14.115H14.1222H14.1293H14.1365H14.1437H14.1508H14.158H14.1652H14.1723H14.1795H14.1867H14.1938H14.201H14.2082H14.2154H14.2225H14.2297H14.2369H14.244H14.2512H14.2584H14.2655H14.2727H14.2799H14.287H14.2942H14.3014H14.3085H14.3157H14.3229H14.33H14.3372H14.3444H14.3515H14.3587H14.3659H14.373H14.3802H14.3874H14.3945H14.4017H14.4089H14.4161H14.4232H14.4304H14.4376H14.4447H14.4519H14.4591H14.4662H14.4734H14.4806H14.4877H14.4949H14.5021H14.5092H14.5164H14.5236H14.5307H14.5379H14.5451H14.5522H14.5594H14.5666H14.5737H14.5809H14.5881H14.5952H14.6024H14.6096H14.6167H14.6239H14.6311H14.6382H14.6454H14.6526H14.6597H14.6669H14.6741H14.6812H14.6884H14.6956H14.7027H14.7099H14.7171H14.7242H14.7314H14.7386H14.7457H14.7529H14.7601H14.7672H14.7744H14.7816H14.7887H14.7959H14.8031H14.8102H14.8174H14.8246H14.8317H14.8389H14.8461H14.8532H14.8604H14.8676H14.8747H14.8819H14.8891H14.8962H14.9034H14.9106H14.9177H14.9249H14.9321H14.9392H14.9464H14.9536H14.9607H14.9679H14.9751H14.9822H14.9894H14.9966H15.0037H15.0109H15.0181H15.0252H15.0324H15.0396H15.0467H15.0539H15.061H15.0682H15.0754H15.0825H15.0897H15.0969H15.104H15.1112H15.1184H15.1255H15.1327H15.1399H15.147H15.1542H15.1614H15.1685H15.1757H15.1829H15.19H15.1972H15.2044H15.2115H15.2187H15.2258H15.233H15.2402H15.2473H15.2545H15.2617H15.2688H15.276H15.2832H15.2903H15.2975H15.3047H15.3118H15.319H15.3262H15.3333H15.3405H15.3476H15.3548H15.362H15.3691H15.3763H15.3835H15.3906H15.3978H15.405H15.4121H15.4193H15.4265H15.4336H15.4408H15.4479H15.4551H15.4623H15.4694H15.4766H15.4838H15.4909H15.4981H15.5053H15.5124H15.5196H15.5267H15.5339H15.5411H15.5482H15.5554H15.5626H15.5697H15.5769H15.5841H15.5912H15.5984H15.6055H15.6127H15.6199H15.627H15.6342H15.6414H15.6485H15.6557H15.6629H15.67H15.6772H15.6843H15.6915H15.6987H15.7058H15.713H15.7202H15.7273H15.7345H15.7416H15.7488H15.756H15.7631H15.7703H15.7775H15.7846H15.7918H15.7989H15.8061H15.8133H15.8204H15.8276H15.8348H15.8419H15.8491H15.8562H15.8634H15.8706H15.8777H15.8849H15.892H15.8992H15.9064H15.9135H15.9207H15.9279H15.935H15.9422H15.9493H15.9565H15.9637H15.9708H15.978H15.9852H15.9923H15.9995H16.0066H16.0138H16.021H16.0281H16.0341L16.3249 7.0755Z" fill="white" stroke="#55AE44" stroke-width="0.3"/>
<path d="M13.1626 24.4724L13.1626 24.4724C12.5712 24.466 12.0015 24.6948 11.5787 25.1084C11.1559 25.522 10.9146 26.0865 10.9079 26.6779L13.1626 24.4724ZM13.1626 24.4724C13.4556 24.4755 13.7451 24.5363 14.0146 24.6513C14.284 24.7663 14.5282 24.9332 14.7332 25.1426C14.9381 25.352 15.0998 25.5997 15.209 25.8715C15.3182 26.1433 15.3728 26.4339 15.3697 26.7267C15.3602 27.3173 15.118 27.8803 14.6958 28.2933M13.1626 24.4724L14.6958 28.2933M14.6958 28.2933C14.2735 28.7064 13.7053 28.9361 13.1147 28.9326M14.6958 28.2933L13.1147 28.9326M13.1147 28.9326C12.8218 28.9294 12.5325 28.8686 12.2631 28.7537C11.9936 28.6387 11.7494 28.4717 11.5445 28.2624C11.3395 28.053 11.1778 27.8053 11.0686 27.5335C10.9594 27.2616 10.9048 26.9709 10.9079 26.678L13.1147 28.9326Z" fill="white" stroke="#55AE44" stroke-width="0.3"/>
<path d="M28.0053 26.6973C28.0053 27.2869 27.7719 27.8525 27.3561 28.2706C26.9404 28.6885 26.3762 28.9249 25.7868 28.9282C25.1952 28.9281 24.6279 28.693 24.2096 28.2747C23.7913 27.8564 23.5563 27.289 23.5563 26.6973C23.5563 26.1056 23.7913 25.5382 24.2096 25.1198C24.6279 24.7015 25.1952 24.4665 25.7867 24.4664C26.3762 24.4697 26.9404 24.7061 27.3561 25.124C27.7719 25.542 28.0053 26.1077 28.0053 26.6973Z" fill="white" stroke="#55AE44" stroke-width="0.3"/>
</svg>
