<svg width="142" height="43" viewBox="0 0 142 43" fill="none" xmlns="http://www.w3.org/2000/svg">
<path d="M136.635 0H5.2606C2.35527 0 0 2.35519 0 5.26052V36.7822C0 39.6875 2.35527 42.0427 5.2606 42.0427H136.635C139.541 42.0427 141.896 39.6875 141.896 36.7822V5.26052C141.896 2.35519 139.541 0 136.635 0Z" fill="black"/>
<path d="M136.649 0.834976C137.229 0.834976 137.802 0.949129 138.338 1.17083C138.873 1.39254 139.359 1.71745 139.769 2.12711C140.179 2.53677 140.503 3.02313 140.725 3.55837C140.947 4.09362 141.061 4.66724 141.061 5.24659V36.7822C141.061 37.3615 140.947 37.9351 140.725 38.4704C140.503 39.0056 140.179 39.492 139.769 39.9016C139.359 40.3113 138.873 40.6363 138.338 40.858C137.802 41.0797 137.229 41.1938 136.649 41.1938H5.2606C4.09056 41.1938 2.96842 40.729 2.14108 39.9016C1.31374 39.0743 0.848949 37.9522 0.848949 36.7822V5.24659C0.848949 4.07655 1.31374 2.95445 2.14108 2.12711C2.96842 1.29977 4.09056 0.834976 5.2606 0.834976H136.649ZM136.649 0H5.2606C3.86895 0.00365258 2.53512 0.557157 1.54976 1.53991C0.564403 2.52266 0.00733907 3.85494 0 5.24659V36.7822C0.00367343 38.1762 0.559124 39.5121 1.54488 40.4979C2.53063 41.4836 3.86654 42.039 5.2606 42.0427H136.649C138.043 42.039 139.379 41.4836 140.365 40.4979C141.351 39.5121 141.906 38.1762 141.91 36.7822V5.24659C141.903 3.85494 141.346 2.52266 140.36 1.53991C139.375 0.557157 138.041 0.00365258 136.649 0Z" fill="#A09F9F"/>
<path d="M49.8549 10.7578C49.8779 11.1462 49.8192 11.5352 49.6825 11.8995C49.5459 12.2639 49.3344 12.5956 49.0616 12.8731C48.7629 13.1811 48.403 13.4231 48.0051 13.5837C47.6073 13.7443 47.1803 13.8199 46.7514 13.8055C45.8767 13.8055 45.0378 13.4581 44.4192 12.8395C43.8007 12.221 43.4531 11.382 43.4531 10.5073C43.4531 9.63251 43.8007 8.79357 44.4192 8.17503C45.0378 7.55648 45.8767 7.20898 46.7514 7.20898C47.1958 7.21332 47.6352 7.30309 48.0457 7.47341C48.4234 7.63424 48.7608 7.87663 49.0338 8.18318L48.4771 8.7398C48.267 8.48984 48.0018 8.2919 47.7025 8.16152C47.4031 8.03114 47.0776 7.97189 46.7514 7.98832C46.0834 7.98832 45.4427 8.25373 44.9703 8.72613C44.4979 9.19852 44.2325 9.8392 44.2325 10.5073C44.2325 11.1753 44.4979 11.816 44.9703 12.2884C45.4427 12.7608 46.0834 13.0262 46.7514 13.0262C47.0768 13.0349 47.4005 12.9763 47.7022 12.8542C48.0039 12.7321 48.2772 12.549 48.5049 12.3164C48.8301 11.9731 49.0182 11.5226 49.0338 11.05H46.821V10.2845H49.8688C49.8838 10.4422 49.8792 10.6012 49.8549 10.7578Z" fill="white" stroke="white" stroke-width="0.2" stroke-miterlimit="10"/>
<path d="M54.6941 8.127H51.8133V10.131H54.4018V10.8826H51.8133V12.8865H54.6941V13.666H50.9922V7.34766H54.6801L54.6941 8.127Z" fill="white" stroke="white" stroke-width="0.2" stroke-miterlimit="10"/>
<path d="M58.1058 13.6665H57.2987V8.09974H55.5312V7.32031H59.8733V8.09974H58.1058V13.6665Z" fill="white" stroke="white" stroke-width="0.2" stroke-miterlimit="10"/>
<path d="M63 13.666V7.34766H63.8072V13.666H63Z" fill="white" stroke="white" stroke-width="0.2" stroke-miterlimit="10"/>
<path d="M67.4113 13.6665H66.5902V8.09974H64.9062V7.32031H69.2344V8.09974H67.4113V13.6665Z" fill="white" stroke="white" stroke-width="0.2" stroke-miterlimit="10"/>
<path d="M77.4363 12.8444C77.1389 13.1561 76.78 13.4023 76.3823 13.5676C75.9845 13.733 75.5567 13.8137 75.1261 13.8047C74.6951 13.8163 74.2666 13.7368 73.8684 13.5713C73.4703 13.4058 73.1117 13.1581 72.8159 12.8444C72.2168 12.2134 71.8828 11.3765 71.8828 10.5064C71.8828 9.63632 72.2168 8.79942 72.8159 8.16841C73.1117 7.85472 73.4703 7.60696 73.8684 7.44148C74.2666 7.276 74.6951 7.19653 75.1261 7.20814C75.5566 7.19998 75.9841 7.28105 76.3817 7.44632C76.7794 7.61159 77.1384 7.85748 77.4363 8.16841C78.0354 8.79942 78.3694 9.63632 78.3694 10.5064C78.3694 11.3765 78.0354 12.2134 77.4363 12.8444ZM73.4143 12.3156C73.6341 12.547 73.9001 12.7297 74.1949 12.852C74.4898 12.9743 74.807 13.0333 75.1261 13.0254C75.4447 13.03 75.7609 12.9694 76.0553 12.8473C76.3497 12.7253 76.616 12.5443 76.8379 12.3156C77.2858 11.8195 77.5337 11.1748 77.5337 10.5064C77.5337 9.83802 77.2858 9.19339 76.8379 8.69725C76.616 8.46854 76.3497 8.28757 76.0553 8.16552C75.7609 8.04347 75.4447 7.98289 75.1261 7.98748C74.807 7.97951 74.4898 8.03851 74.1949 8.16076C73.9001 8.28302 73.6341 8.46583 73.4143 8.69725C72.9575 9.18897 72.7036 9.83527 72.7036 10.5064C72.7036 11.1776 72.9575 11.8239 73.4143 12.3156Z" fill="white" stroke="white" stroke-width="0.2" stroke-miterlimit="10"/>
<path d="M79.4375 13.666V7.34766H80.4256L83.4873 12.2603V11.0496V7.34766H84.3084V13.666H83.4594L80.2447 8.51671V9.72746V13.666H79.4375Z" fill="white" stroke="white" stroke-width="0.2" stroke-miterlimit="10"/>
<path d="M71.6133 22.8656C70.7309 22.8711 69.87 23.1377 69.139 23.6319C68.408 24.1261 67.8398 24.8257 67.5059 25.6425C67.172 26.4592 67.0875 27.3566 67.263 28.2213C67.4385 29.086 67.8662 29.8794 68.492 30.5014C69.1179 31.1234 69.9139 31.5461 70.7797 31.7162C71.6455 31.8863 72.5423 31.7963 73.357 31.4574C74.1717 31.1185 74.8677 30.5459 75.3574 29.8118C75.847 29.0778 76.1083 28.2152 76.1084 27.3328C76.1159 26.7417 76.0046 26.1551 75.781 25.6079C75.5575 25.0607 75.2262 24.564 74.8069 24.1472C74.3876 23.7305 73.8888 23.4023 73.3402 23.1821C72.7916 22.962 72.2043 22.8543 71.6133 22.8656ZM71.6133 30.0327C71.0697 30.069 70.5278 29.9409 70.058 29.665C69.5883 29.3891 69.2124 28.9782 68.9793 28.4858C68.7463 27.9934 68.6669 27.4422 68.7514 26.904C68.8359 26.3658 69.0804 25.8656 69.4531 25.4683C69.8259 25.0709 70.3096 24.795 70.8413 24.6763C71.373 24.5577 71.9281 24.6018 72.4344 24.803C72.9407 25.0042 73.3747 25.353 73.68 25.8042C73.9853 26.2554 74.1477 26.788 74.1461 27.3328C74.1554 27.6732 74.097 28.0121 73.9743 28.3299C73.8517 28.6476 73.6673 28.9378 73.4317 29.1837C73.1961 29.4296 72.9141 29.6264 72.6019 29.7626C72.2898 29.8987 71.9538 29.9716 71.6133 29.977V30.0327ZM61.8715 22.8656C60.9862 22.8573 60.1184 23.1122 59.3783 23.598C58.6382 24.0838 58.0591 24.7786 57.7146 25.5941C57.37 26.4097 57.2756 27.3092 57.4432 28.1785C57.6108 29.0478 58.033 29.8477 58.656 30.4767C59.2791 31.1056 60.075 31.5353 60.9427 31.711C61.8104 31.8868 62.7108 31.8008 63.5295 31.4639C64.3482 31.1271 65.0484 30.5546 65.5412 29.819C66.0339 29.0835 66.297 28.2181 66.297 27.3328C66.3064 26.7436 66.1973 26.1585 65.9761 25.6122C65.7549 25.066 65.4262 24.5697 65.0095 24.153C64.5928 23.7363 64.0966 23.4076 63.5503 23.1865C63.0041 22.9653 62.419 22.8562 61.8297 22.8656H61.8715ZM61.8715 30.0327C61.3092 30.0861 60.7441 29.9673 60.251 29.692C59.7579 29.4166 59.3602 28.9978 59.1107 28.4911C58.8613 27.9844 58.7719 27.4138 58.8545 26.8551C58.937 26.2964 59.1875 25.776 59.5728 25.3631C59.9581 24.9502 60.4599 24.6642 61.0115 24.5432C61.5632 24.4221 62.1386 24.4718 62.6613 24.6855C63.1841 24.8993 63.6295 25.267 63.9383 25.7398C64.2471 26.2127 64.4048 26.7682 64.3904 27.3328C64.3997 27.6756 64.3404 28.0167 64.216 28.3362C64.0917 28.6557 63.9048 28.9472 63.6662 29.1935C63.4277 29.4398 63.1424 29.636 62.827 29.7705C62.5117 29.9051 62.1726 29.9753 61.8297 29.977L61.8715 30.0327ZM50.2231 24.2294V26.1221H54.7599C54.7015 27.0145 54.3379 27.8597 53.7301 28.5158C53.2748 28.9793 52.7276 29.3426 52.1237 29.5822C51.5197 29.8219 50.8724 29.9327 50.2231 29.9075C48.9309 29.8396 47.7141 29.2784 46.8234 28.3398C45.9328 27.4011 45.4363 26.1566 45.4363 24.8626C45.4363 23.5687 45.9328 22.3241 46.8234 21.3855C47.7141 20.4468 48.9309 19.8857 50.2231 19.8178C50.8574 19.8121 51.4865 19.9322 52.0741 20.171C52.6617 20.4099 53.1962 20.7628 53.6466 21.2095L55.0383 19.8178C54.4131 19.1965 53.6699 18.7066 52.8525 18.3767C52.0351 18.0469 51.16 17.8839 50.2787 17.8972C48.4332 17.8972 46.6634 18.6304 45.3584 19.9353C44.0534 21.2403 43.3203 23.0102 43.3203 24.8557C43.3203 26.7011 44.0534 28.471 45.3584 29.776C46.6634 31.0809 48.4332 31.8141 50.2787 31.8141C51.1781 31.8522 52.0753 31.6982 52.9104 31.3622C53.7455 31.0262 54.4994 30.516 55.1218 29.8657C56.2289 28.6577 56.8184 27.0639 56.764 25.4262C56.7702 25.0297 56.7376 24.6335 56.6665 24.2433L50.2231 24.2294ZM97.8465 25.7046C97.5651 24.9079 97.0486 24.2153 96.3653 23.7183C95.682 23.2213 94.864 22.9434 94.0194 22.9212C93.4486 22.9298 92.8854 23.0534 92.3635 23.2847C91.8416 23.5159 91.3717 23.85 90.9819 24.2671C90.5922 24.6842 90.2905 25.1755 90.095 25.7119C89.8995 26.2482 89.8143 26.8185 89.8443 27.3885C89.8331 27.9759 89.94 28.5595 90.1588 29.1048C90.3775 29.65 90.7037 30.1457 91.1178 30.5625C91.5319 30.9792 92.0256 31.3084 92.5694 31.5306C93.1133 31.7528 93.6963 31.8633 94.2837 31.8558C95.0201 31.8593 95.746 31.6808 96.3967 31.336C97.0475 30.9912 97.6028 30.4909 98.0135 29.8796L96.4826 28.8637C96.2536 29.2408 95.9305 29.552 95.545 29.7666C95.1596 29.9813 94.7249 30.0922 94.2837 30.0884C93.8234 30.1043 93.3691 29.9796 92.9812 29.7311C92.5934 29.4825 92.2905 29.1217 92.1127 28.6967L98.097 26.2195L97.8465 25.7046ZM91.7092 27.1937C91.6885 26.8685 91.7329 26.5425 91.8398 26.2348C91.9466 25.927 92.1138 25.6437 92.3315 25.4013C92.5492 25.159 92.8131 24.9626 93.1077 24.8235C93.4023 24.6844 93.7217 24.6054 94.0472 24.5912C94.386 24.5669 94.7243 24.6438 95.0192 24.8123C95.3142 24.9809 95.5523 25.2333 95.7033 25.5376L91.7092 27.1937ZM86.8522 31.5357H88.8144V18.3843H86.8522V31.5357ZM83.6374 23.8536C83.3361 23.5338 82.9712 23.2806 82.5661 23.1104C82.161 22.9403 81.7247 22.8568 81.2854 22.8656C80.1006 22.8656 78.9644 23.3362 78.1266 24.174C77.2888 25.0118 76.8181 26.148 76.8181 27.3328C76.8181 28.5176 77.2888 29.6539 78.1266 30.4917C78.9644 31.3295 80.1006 31.8001 81.2854 31.8001C81.7276 31.8107 82.1668 31.7254 82.5728 31.55C82.9788 31.3746 83.342 31.1134 83.6374 30.7842V31.3687C83.6874 31.7054 83.6619 32.049 83.5628 32.3746C83.4637 32.7002 83.2934 32.9998 83.0643 33.2515C82.8352 33.5033 82.553 33.7009 82.2381 33.8302C81.9233 33.9594 81.5836 34.0172 81.2437 33.999C80.7514 33.9866 80.274 33.8276 79.8724 33.5426C79.4708 33.2575 79.1633 32.8592 78.9892 32.3986L77.2913 33.1223C77.605 33.9102 78.1512 34.584 78.8572 35.0538C79.5633 35.5237 80.3957 35.7675 81.2437 35.7526C83.5539 35.7526 85.5022 34.3608 85.5022 31.1043V23.0743H83.6374V23.8536ZM81.3829 29.977C81.0417 29.9682 80.7057 29.8912 80.3947 29.7507C80.0837 29.6101 79.8039 29.4088 79.5718 29.1585C79.3397 28.9083 79.16 28.6142 79.0432 28.2935C78.9264 27.9728 78.8749 27.632 78.8917 27.2911C78.8653 26.9432 78.9094 26.5936 79.0215 26.2631C79.1336 25.9327 79.3113 25.6283 79.544 25.3684C79.7767 25.1084 80.0595 24.8981 80.3755 24.7502C80.6915 24.6023 81.0342 24.5199 81.3829 24.5077C81.7258 24.5249 82.0616 24.6115 82.37 24.7625C82.6784 24.9134 82.9529 25.1256 83.1768 25.3859C83.4007 25.6463 83.5693 25.9494 83.6724 26.2769C83.7755 26.6044 83.8109 26.9495 83.7765 27.2911C83.8031 27.6262 83.7615 27.9632 83.6543 28.2818C83.5471 28.6004 83.3766 28.894 83.1529 29.145C82.9293 29.3959 82.6572 29.599 82.353 29.742C82.0488 29.885 81.7188 29.9649 81.3829 29.977ZM107.004 18.3287H102.314V31.4801H104.276V26.4978H107.059C107.616 26.5303 108.173 26.4488 108.697 26.2582C109.221 26.0676 109.7 25.772 110.106 25.3895C110.511 25.007 110.834 24.5457 111.055 24.0339C111.276 23.5221 111.389 22.9706 111.389 22.4132C111.389 21.8558 111.276 21.3044 111.055 20.7926C110.834 20.2808 110.511 19.8195 110.106 19.437C109.7 19.0545 109.221 18.7589 108.697 18.5683C108.173 18.3777 107.616 18.2962 107.059 18.3287H107.004ZM107.004 24.6608H104.22V20.2353H107.004C107.314 20.2108 107.626 20.2509 107.919 20.3527C108.213 20.4546 108.483 20.6161 108.711 20.8272C108.939 21.0383 109.122 21.2944 109.246 21.5793C109.371 21.8642 109.435 22.1718 109.435 22.4828C109.435 22.7938 109.371 23.1014 109.246 23.3863C109.122 23.6713 108.939 23.9273 108.711 24.1384C108.483 24.3495 108.213 24.5111 107.919 24.613C107.626 24.7149 107.314 24.7548 107.004 24.7304V24.6608ZM119.125 22.7821C118.411 22.7398 117.7 22.9068 117.08 23.2628C116.459 23.6188 115.956 24.1482 115.632 24.7861L117.372 25.5236C117.539 25.2029 117.797 24.9391 118.114 24.7656C118.431 24.5922 118.793 24.5169 119.153 24.5494C119.653 24.5027 120.15 24.6548 120.539 24.9726C120.927 25.2904 121.174 25.7484 121.227 26.2473V26.3865C120.599 26.0465 119.895 25.8695 119.181 25.8716C117.302 25.8716 115.396 26.9014 115.396 28.8359C115.413 29.2413 115.512 29.6391 115.687 30.0055C115.861 30.3719 116.108 30.6992 116.412 30.9681C116.716 31.237 117.071 31.4419 117.456 31.5705C117.841 31.6991 118.248 31.7488 118.652 31.7166C119.146 31.745 119.638 31.6413 120.078 31.4163C120.519 31.1913 120.891 30.853 121.157 30.4363H121.227V31.4522H123.119V26.4143C123.118 25.9139 123.012 25.4192 122.808 24.9619C122.605 24.5046 122.309 24.0948 121.938 23.7583C121.568 23.4218 121.131 23.1662 120.656 23.0078C120.182 22.8493 119.679 22.7913 119.181 22.8377L119.125 22.7821ZM118.889 29.977C118.249 29.977 117.344 29.657 117.344 28.8637C117.344 27.8478 118.471 27.472 119.431 27.472C120.059 27.4592 120.678 27.6128 121.227 27.9174C121.149 28.474 120.877 28.9855 120.46 29.3621C120.043 29.7387 119.506 29.9563 118.944 29.977H118.889ZM130.022 23.0186L127.782 28.7245L125.444 23.0186H123.356L126.863 30.9929L124.817 35.5438H126.863L132.249 23.1439L130.022 23.0186ZM112.362 31.3687H114.324V18.2173H112.362V31.3687Z" fill="white"/>
<path d="M10.9677 7.91852C10.6216 8.32927 10.4472 8.85762 10.4806 9.3937V32.6487C10.4514 33.1842 10.6253 33.711 10.9677 34.1238H11.0512L24.0773 21.0977V20.7916L11.0512 7.7793L10.9677 7.91852Z" fill="url(#paint0_linear_3483_3606)"/>
<path d="M28.4202 25.5097L24.0781 21.1677V20.8616L28.4202 16.5195H28.5176L33.6529 19.442C33.9776 19.5415 34.2619 19.7426 34.4638 20.0156C34.6657 20.2887 34.7747 20.6194 34.7747 20.959C34.7747 21.2986 34.6657 21.6292 34.4638 21.9023C34.2619 22.1753 33.9776 22.3764 33.6529 22.4759L28.5176 25.3985L28.4202 25.5097Z" fill="url(#paint1_linear_3483_3606)"/>
<path d="M28.5179 25.4531L24.0784 21.0137L10.9688 34.1512C11.277 34.4033 11.663 34.541 12.0612 34.541C12.4595 34.541 12.8454 34.4033 13.1537 34.1512L28.4622 25.4253" fill="url(#paint2_linear_3483_3606)"/>
<path d="M28.5169 16.5747L13.2084 7.84878C12.9001 7.59668 12.5141 7.45898 12.1159 7.45898C11.7177 7.45898 11.3317 7.59668 11.0234 7.84878L24.1331 20.9446L28.5169 16.5747Z" fill="url(#paint3_linear_3483_3606)"/>
<path opacity="0.2" d="M28.4153 25.3574L13.1068 34.0276C12.8045 34.2567 12.4355 34.3808 12.0561 34.3808C11.6767 34.3808 11.3077 34.2567 11.0054 34.0276L10.9219 34.1111H11.0054C11.3077 34.3402 11.6767 34.4643 12.0561 34.4643C12.4355 34.4643 12.8045 34.3402 13.1068 34.1111L28.4153 25.3853V25.3574Z" fill="black"/>
<path opacity="0.12" d="M10.9668 33.9713C10.6244 33.5584 10.4505 33.0316 10.4797 32.4961V32.6492C10.4505 33.1847 10.6244 33.7115 10.9668 34.1243L11.0503 34.0408L10.9668 33.9713Z" fill="black"/>
<path opacity="0.12" d="M33.6546 22.3775L28.4219 25.3557L28.5193 25.4531L33.6546 22.5306C33.958 22.4009 34.2205 22.1913 34.4141 21.9242C34.6077 21.657 34.7252 21.3423 34.754 21.0137C34.692 21.3119 34.5601 21.5911 34.3689 21.8283C34.1777 22.0654 33.9329 22.2536 33.6546 22.3775Z" fill="black"/>
<path opacity="0.25" d="M13.1564 8.00222L33.6559 19.6506C33.9349 19.7809 34.1796 19.9745 34.3705 20.2161C34.5614 20.4578 34.6931 20.7407 34.7553 21.0423C34.725 20.7141 34.6069 20.4 34.4135 20.1331C34.22 19.8662 33.9584 19.6563 33.6559 19.5253L13.1564 7.87693C11.6951 7.04192 10.4844 7.73774 10.4844 9.42168V9.57483C10.4844 7.86306 11.6951 7.16721 13.1564 8.00222Z" fill="white"/>
<defs>
<linearGradient id="paint0_linear_3483_3606" x1="22.9223" y1="9.15706" x2="5.27572" y2="26.7897" gradientUnits="userSpaceOnUse">
<stop stop-color="#4992CE"/>
<stop offset="0.01" stop-color="#4893CE"/>
<stop offset="0.26" stop-color="#43B5E6"/>
<stop offset="0.51" stop-color="#40C1ED"/>
<stop offset="0.76" stop-color="#54C4E6"/>
<stop offset="1" stop-color="#59C6E4"/>
</linearGradient>
<linearGradient id="paint1_linear_3483_3606" x1="35.5734" y1="21.0286" x2="10.1335" y2="21.0286" gradientUnits="userSpaceOnUse">
<stop stop-color="#FADB00"/>
<stop offset="0.41" stop-color="#F9B816"/>
<stop offset="0.78" stop-color="#F79F1D"/>
<stop offset="1" stop-color="#F4961F"/>
</linearGradient>
<linearGradient id="paint2_linear_3483_3606" x1="26.0964" y1="23.4352" x2="2.17339" y2="47.3583" gradientUnits="userSpaceOnUse">
<stop stop-color="#EC3F4A"/>
<stop offset="1" stop-color="#BD1E63"/>
</linearGradient>
<linearGradient id="paint3_linear_3483_3606" x1="7.66948" y1="0.18064" x2="18.3576" y2="10.8688" gradientUnits="userSpaceOnUse">
<stop stop-color="#309B72"/>
<stop offset="0.07" stop-color="#27A271"/>
<stop offset="0.48" stop-color="#4AB46F"/>
<stop offset="0.8" stop-color="#5DB86A"/>
<stop offset="1" stop-color="#64BB69"/>
</linearGradient>
</defs>
</svg>
