<svg width="18" height="20" viewBox="0 0 18 20" fill="none" xmlns="http://www.w3.org/2000/svg">
<path d="M6.58345 2.08008H4.83594V4.81133H6.58345V2.08008Z" fill="#F69993"/>
<path d="M6.43501 2.23151V4.66337H4.98549V2.23151H6.43501ZM6.73301 1.93305H4.6875V4.96183H6.73301V1.93164V1.93305Z" fill="#E6E7E8"/>
<path d="M2.78906 7.2454V5.67555C2.78931 5.36756 2.91174 5.07225 3.12948 4.85442C3.34722 4.63659 3.64248 4.51405 3.95047 4.51367H7.47182C7.77981 4.51405 8.07508 4.63659 8.29281 4.85442C8.51055 5.07225 8.63298 5.36756 8.63322 5.67555V7.2454H2.78906Z" fill="#FBB042"/>
<path d="M7.47285 4.66174C7.74136 4.66174 7.99887 4.76841 8.18873 4.95827C8.3786 5.14813 8.48526 5.40564 8.48526 5.67415V7.09454H2.93909V5.67415C2.93909 5.40564 3.04575 5.14813 3.23561 4.95827C3.42548 4.76841 3.68299 4.66174 3.9515 4.66174H7.47285ZM7.47285 4.36328H3.9515C3.60383 4.36328 3.27041 4.50139 3.02457 4.74723C2.77874 4.99306 2.64062 5.32649 2.64062 5.67415V7.393H8.78372V5.67415C8.78391 5.50196 8.75012 5.33141 8.68431 5.17229C8.6185 5.01316 8.52195 4.86858 8.40019 4.74681C8.27842 4.62505 8.13384 4.5285 7.97472 4.46269C7.81559 4.39688 7.64505 4.3631 7.47285 4.36328Z" fill="#E6E7E8"/>
<g style="mix-blend-mode:color-burn">
<path d="M4.18416 5.67415C4.18397 5.50199 4.21774 5.33149 4.28352 5.17239C4.3493 5.0133 4.44581 4.86874 4.56752 4.74698C4.68923 4.62522 4.83376 4.52866 4.99283 4.46282C5.15191 4.39698 5.3224 4.36316 5.49456 4.36328H3.9515C3.60383 4.36328 3.27041 4.50139 3.02457 4.74723C2.77874 4.99306 2.64062 5.32649 2.64062 5.67415V7.393H4.18416V5.67415Z" fill="#B4B4B5"/>
</g>
<path d="M1.70983 19.804C1.50472 19.8039 1.30163 19.7635 1.11216 19.6849C0.922693 19.6064 0.750552 19.4913 0.605563 19.3462C0.460575 19.2011 0.34558 19.0289 0.267146 18.8394C0.188712 18.6499 0.148376 18.4468 0.148438 18.2417V9.43359H11.269V18.2417C11.269 18.4469 11.2287 18.65 11.1502 18.8396C11.0717 19.0292 10.9566 19.2015 10.8115 19.3465C10.6664 19.4916 10.4942 19.6067 10.3046 19.6852C10.115 19.7637 9.91184 19.8041 9.70666 19.804H1.70983Z" fill="#3B7EBA"/>
<path d="M11.1229 9.58362V18.2422C11.1229 18.6171 10.974 18.9766 10.709 19.2416C10.4439 19.5067 10.0844 19.6556 9.70957 19.6556H1.71274C1.3379 19.6556 0.978413 19.5067 0.713361 19.2416C0.44831 18.9766 0.299407 18.6171 0.299407 18.2422V9.58362H11.1229ZM11.4214 9.28516H8.22222e-06V18.2422C-0.000807211 18.5038 0.0590404 18.762 0.174852 18.9966C0.287074 19.223 0.447501 19.4221 0.644867 19.5799C0.947982 19.8229 1.32474 19.9555 1.71321 19.9559H9.71004C9.93489 19.9561 10.1576 19.9119 10.3653 19.826C10.5731 19.74 10.7619 19.6139 10.9209 19.4549C11.0799 19.296 11.206 19.1072 11.2919 18.8994C11.3779 18.6916 11.422 18.469 11.4218 18.2441V9.28516H11.4214Z" fill="#E6E7E8"/>
<path d="M0.148438 9.73163V8.5096C0.148935 8.09539 0.313696 7.6983 0.606581 7.40541C0.899467 7.11253 1.29656 6.94776 1.71077 6.94727H9.7076C9.9128 6.94714 10.116 6.98747 10.3056 7.06594C10.4952 7.14441 10.6675 7.25949 10.8126 7.40459C10.9577 7.54969 11.0728 7.72197 11.1513 7.91157C11.2297 8.10118 11.2701 8.30439 11.2699 8.5096V9.73163H0.148438Z" fill="white"/>
<path d="M9.70863 7.09533C9.89425 7.09527 10.0781 7.13179 10.2496 7.20279C10.4211 7.2738 10.5769 7.3779 10.7081 7.50915C10.8394 7.64041 10.9435 7.79624 11.0145 7.96774C11.0855 8.13924 11.122 8.32305 11.122 8.50867V9.58218H0.298461V8.50867C0.298461 8.13383 0.447363 7.77434 0.712415 7.50929C0.977467 7.24424 1.33695 7.09533 1.71179 7.09533H9.70863ZM9.70863 6.79688H1.71179C1.48698 6.79681 1.26436 6.84105 1.05665 6.92705C0.848935 7.01306 0.660202 7.13914 0.501235 7.29811C0.342268 7.45708 0.216182 7.64581 0.130178 7.85352C0.044174 8.06123 -6.16889e-05 8.28386 6.45669e-08 8.50867V9.88064H11.4214V8.50867C11.4212 8.05471 11.2408 7.61938 10.9198 7.29839C10.5989 6.97739 10.1635 6.797 9.70957 6.79688H9.70863Z" fill="#E6E7E8"/>
<g style="mix-blend-mode:multiply">
<path d="M2.21472 19.5785C2.01722 19.4208 1.85677 19.2217 1.7447 18.9952C1.62889 18.7606 1.56904 18.5024 1.56986 18.2408V8.50867C1.5698 8.2839 1.61402 8.06131 1.69999 7.85363C1.78597 7.64595 1.91201 7.45724 2.07092 7.29828C2.22984 7.13932 2.41852 7.01322 2.62618 6.92719C2.83383 6.84116 3.0564 6.79688 3.28118 6.79688H1.7118C1.48699 6.79681 1.26436 6.84105 1.05665 6.92705C0.84894 7.01306 0.660211 7.13914 0.501243 7.29811C0.342276 7.45708 0.216187 7.64581 0.130183 7.85352C0.0441793 8.06123 -5.35312e-05 8.28386 8.22222e-06 8.50867V18.2408C-0.000807211 18.5024 0.0590404 18.7606 0.174852 18.9952C0.287074 19.2216 0.447501 19.4207 0.644867 19.5785C0.947982 19.8214 1.32474 19.954 1.71321 19.9545H3.28259C2.89425 19.9541 2.51761 19.8215 2.21472 19.5785Z" fill="#E6E6E5"/>
</g>
<path d="M3.78842 2.37913C3.62083 2.37888 3.46018 2.3122 3.34168 2.19369C3.22318 2.07519 3.1565 1.91454 3.15625 1.74696V0.780607C3.1565 0.613022 3.22318 0.452371 3.34168 0.33387C3.46018 0.215369 3.62083 0.148686 3.78842 0.148438H10.8626C11.0824 0.148686 11.2931 0.236133 11.4484 0.391581C11.6038 0.547028 11.6911 0.757771 11.6912 0.977544V1.41325H8.60372C8.51525 1.41337 8.43044 1.44857 8.36789 1.51113C8.30533 1.57368 8.27013 1.65849 8.27001 1.74696C8.26976 1.91454 8.20308 2.07519 8.08458 2.19369C7.96608 2.3122 7.80543 2.37888 7.63784 2.37913H3.78842Z" fill="#FBB040"/>
<path d="M10.8632 0.298459C11.0434 0.298459 11.2163 0.370064 11.3437 0.497522C11.4712 0.624979 11.5428 0.797849 11.5428 0.978101V1.26434H8.60428C8.54085 1.26434 8.47804 1.27684 8.41945 1.30113C8.36085 1.32542 8.30762 1.36101 8.26279 1.40589C8.21796 1.45076 8.18241 1.50403 8.15818 1.56265C8.13395 1.62127 8.12151 1.68409 8.12158 1.74751C8.1217 1.81105 8.1093 1.87398 8.08507 1.93271C8.06084 1.99144 8.02527 2.04481 7.98039 2.08978C7.93551 2.13475 7.8822 2.17042 7.82352 2.19476C7.76484 2.2191 7.70193 2.23163 7.6384 2.23163H3.78898C3.66091 2.23163 3.53809 2.18079 3.44749 2.09028C3.35689 1.99977 3.30593 1.87699 3.30581 1.74892V0.781165C3.30593 0.6531 3.35689 0.530323 3.44749 0.439812C3.53809 0.349301 3.66091 0.298459 3.78898 0.298459H10.8632ZM10.8632 0H3.78898C3.58188 0.000248771 3.38333 0.0826297 3.23689 0.229073C3.09044 0.375515 3.00806 0.574063 3.00781 0.781165V1.74751C3.00806 1.95462 3.09044 2.15316 3.23689 2.29961C3.38333 2.44605 3.58188 2.52843 3.78898 2.52868H7.6384C7.8455 2.52843 8.04405 2.44605 8.1905 2.29961C8.33694 2.15316 8.41932 1.95462 8.41956 1.74751C8.41969 1.69856 8.43919 1.65165 8.47381 1.61704C8.50842 1.58242 8.55533 1.56292 8.60428 1.5628H11.8413V0.978101C11.8413 0.718692 11.7382 0.469909 11.5548 0.286479C11.3714 0.10305 11.1226 0 10.8632 0Z" fill="#E6E7E8"/>
<g style="mix-blend-mode:color-burn">
<path d="M4.55087 1.74751V0.781165C4.55125 0.57402 4.63373 0.375473 4.78025 0.229044C4.92677 0.0826144 5.12536 0.000248487 5.33251 0H3.78898C3.58188 0.000248771 3.38333 0.0826297 3.23689 0.229073C3.09044 0.375515 3.00806 0.574063 3.00781 0.781165V1.74751C3.00806 1.95462 3.09044 2.15316 3.23689 2.29961C3.38333 2.44605 3.58188 2.52843 3.78898 2.52868H5.33251C5.12536 2.52843 4.92677 2.44607 4.78025 2.29964C4.63373 2.15321 4.55125 1.95466 4.55087 1.74751Z" fill="#B4B4B5"/>
</g>
<path d="M3.74439 5.14453C3.71272 5.14453 3.68235 5.15711 3.65996 5.1795C3.63758 5.20189 3.625 5.23225 3.625 5.26392V6.33696C3.625 6.36862 3.63758 6.39899 3.65996 6.42138C3.68235 6.44376 3.71272 6.45634 3.74439 6.45634C3.77605 6.45634 3.80641 6.44376 3.8288 6.42138C3.85119 6.39899 3.86377 6.36862 3.86377 6.33696V5.26156C3.86315 5.23031 3.8503 5.20055 3.82798 5.17866C3.80566 5.15678 3.77565 5.14453 3.74439 5.14453Z" fill="white"/>
<path d="M4.65236 5.26196C4.65236 5.19603 4.59902 5.14258 4.53321 5.14258C4.46741 5.14258 4.41406 5.19603 4.41406 5.26196V6.33501C4.41406 6.40094 4.46741 6.45439 4.53321 6.45439C4.59902 6.45439 4.65236 6.40094 4.65236 6.33501V5.26196Z" fill="white"/>
<path d="M5.32251 5.14453C5.30682 5.14447 5.29126 5.14752 5.27675 5.15349C5.26224 5.15947 5.24905 5.16826 5.23795 5.17936C5.22685 5.19046 5.21807 5.20364 5.21209 5.21816C5.20611 5.23267 5.20306 5.24822 5.20313 5.26392V6.33696C5.20313 6.36862 5.2157 6.39899 5.23809 6.42138C5.26048 6.44377 5.29085 6.45634 5.32251 6.45634C5.35409 6.45622 5.38434 6.44359 5.40662 6.42121C5.42891 6.39884 5.44142 6.36854 5.44142 6.33696V5.26157C5.44093 5.23035 5.42818 5.20059 5.40593 5.17869C5.38369 5.1568 5.35373 5.14453 5.32251 5.14453Z" fill="white"/>
<path d="M6.1111 5.14453C6.09545 5.14453 6.07994 5.14762 6.06548 5.15363C6.05103 5.15963 6.0379 5.16844 6.02685 5.17953C6.0158 5.19062 6.00705 5.20378 6.0011 5.21827C5.99516 5.23275 5.99213 5.24826 5.99219 5.26392V6.33696C5.99219 6.36854 6.0047 6.39884 6.02699 6.42121C6.04927 6.44359 6.07952 6.45622 6.1111 6.45634C6.14277 6.45634 6.17313 6.44377 6.19552 6.42138C6.21791 6.39899 6.23048 6.36862 6.23048 6.33696V5.26157C6.22999 5.23027 6.21718 5.20044 6.19483 5.17853C6.17248 5.15662 6.1424 5.1444 6.1111 5.14453Z" fill="white"/>
<path d="M7.01173 5.26196C7.01173 5.19603 6.95839 5.14258 6.89259 5.14258C6.82678 5.14258 6.77344 5.19603 6.77344 5.26196V6.33501C6.77344 6.40094 6.82678 6.45439 6.89259 6.45439C6.95839 6.45439 7.01173 6.40094 7.01173 6.33501V5.26196Z" fill="white"/>
<path d="M7.68189 5.14453C7.65022 5.14453 7.61985 5.15711 7.59746 5.1795C7.57508 5.20189 7.5625 5.23225 7.5625 5.26392V6.33696C7.5625 6.36862 7.57508 6.39899 7.59746 6.42138C7.61985 6.44376 7.65022 6.45634 7.68189 6.45634C7.71355 6.45634 7.74391 6.44376 7.7663 6.42138C7.78869 6.39899 7.80127 6.36862 7.80127 6.33696V5.26156C7.80065 5.23031 7.7878 5.20055 7.76548 5.17866C7.74316 5.15678 7.71315 5.14453 7.68189 5.14453Z" fill="white"/>
<g style="mix-blend-mode:multiply">
<path d="M9.46009 11.953C9.36983 11.7393 9.21861 11.5571 9.02534 11.4289C8.83207 11.3008 8.60532 11.2324 8.37342 11.2324H3.69536C3.5375 11.2323 3.38127 11.2643 3.23616 11.3264C3.02255 11.4167 2.84028 11.5679 2.71213 11.7612C2.58398 11.9544 2.51563 12.1812 2.51563 12.4131V17.0912C2.5155 17.2461 2.54594 17.3995 2.60519 17.5427C2.66444 17.6859 2.75133 17.8159 2.86091 17.9255C2.97049 18.035 3.1006 18.1219 3.24379 18.181C3.38697 18.2402 3.54042 18.2706 3.69536 18.2704H8.37342C8.52832 18.2705 8.68172 18.24 8.82485 18.1808C8.96798 18.1216 9.09804 18.0347 9.20759 17.9252C9.31715 17.8157 9.40405 17.6857 9.46335 17.5426C9.52264 17.3994 9.55316 17.2461 9.55316 17.0912V12.4122C9.55339 12.2544 9.52174 12.0982 9.46009 11.953Z" fill="#C3D4E2"/>
</g>
<path d="M8.05208 11.0605H3.37402C2.80502 11.0605 2.34375 11.5218 2.34375 12.0908V16.7689C2.34375 17.3379 2.80502 17.7991 3.37402 17.7991H8.05208C8.62108 17.7991 9.08235 17.3379 9.08235 16.7689V12.0908C9.08235 11.5218 8.62108 11.0605 8.05208 11.0605Z" fill="#F69993"/>
<path d="M8.05311 11.2106C8.28671 11.2106 8.51075 11.3034 8.67593 11.4686C8.84111 11.6337 8.93392 11.8578 8.93392 12.0914V16.7694C8.93398 16.8851 8.91124 16.9997 8.867 17.1066C8.82276 17.2136 8.75789 17.3107 8.6761 17.3926C8.5943 17.4744 8.49718 17.5393 8.39028 17.5836C8.28339 17.6279 8.16882 17.6507 8.05311 17.6507H3.37458C3.25887 17.6507 3.14429 17.6279 3.0374 17.5836C2.9305 17.5393 2.83338 17.4744 2.75159 17.3926C2.66979 17.3107 2.60492 17.2136 2.56068 17.1066C2.51645 16.9997 2.49371 16.8851 2.49377 16.7694V12.0914C2.49377 11.9757 2.51656 11.8612 2.56082 11.7543C2.60508 11.6474 2.66996 11.5503 2.75175 11.4686C2.83354 11.3868 2.93064 11.3219 3.03751 11.2776C3.14437 11.2334 3.25891 11.2106 3.37458 11.2106H8.05311ZM8.05311 10.9121H3.37458C3.21966 10.9119 3.06623 10.9423 2.92307 11.0015C2.77991 11.0607 2.64984 11.1476 2.5403 11.2571C2.43075 11.3666 2.3439 11.4967 2.2847 11.6399C2.2255 11.783 2.19513 11.9365 2.19531 12.0914V16.7694C2.19525 16.9243 2.22571 17.0777 2.28494 17.2209C2.34418 17.364 2.43103 17.4941 2.54054 17.6036C2.65005 17.7132 2.78008 17.8001 2.92318 17.8594C3.06629 17.9187 3.21968 17.9492 3.37458 17.9492H8.05311C8.20805 17.9493 8.36149 17.9189 8.50465 17.8596C8.64781 17.8004 8.77788 17.7135 8.88741 17.6039C8.99695 17.4943 9.0838 17.3642 9.143 17.221C9.20219 17.0778 9.23256 16.9244 9.23237 16.7694V12.0914C9.23256 11.9365 9.20218 11.783 9.14298 11.6399C9.08379 11.4967 8.99693 11.3666 8.88738 11.2571C8.77784 11.1476 8.64777 11.0607 8.50461 11.0015C8.36145 10.9423 8.20802 10.9119 8.05311 10.9121Z" fill="#E6E7E8"/>
<g style="mix-blend-mode:color-burn">
<path d="M2.94921 17.5252V12.8472C2.94903 12.6922 2.97941 12.5388 3.0386 12.3957C3.0978 12.2525 3.18466 12.1224 3.2942 12.0129C3.40374 11.9033 3.53382 11.8165 3.67698 11.7573C3.82014 11.6981 3.97357 11.6677 4.12848 11.6679H8.80701C8.93168 11.6678 9.05559 11.6875 9.17409 11.7262C9.16375 11.6952 9.15247 11.6646 9.13978 11.6322C9.04965 11.4185 8.89845 11.2362 8.70514 11.1081C8.51183 10.98 8.28501 10.9118 8.05311 10.9121H3.37458C3.21966 10.9119 3.06623 10.9423 2.92307 11.0015C2.77991 11.0607 2.64984 11.1476 2.5403 11.2571C2.43075 11.3666 2.3439 11.4967 2.2847 11.6399C2.2255 11.783 2.19513 11.9365 2.19531 12.0914V16.7694C2.19528 17.0013 2.26356 17.228 2.39162 17.4213C2.51968 17.6145 2.70185 17.7658 2.91537 17.8561C2.94592 17.8693 2.97648 17.8805 3.00938 17.8909C2.97024 17.7729 2.94994 17.6495 2.94921 17.5252Z" fill="#B4B4B5"/>
</g>
<path d="M4.92978 16.292V15.2133H3.85156V13.651H4.92978V12.5723H6.49258V13.651H7.57126V15.2133H6.49258V16.292H4.92978Z" fill="white"/>
<path d="M6.33915 12.7223V13.801H7.42018V15.0648H6.33915V16.1459H5.0748V15.0648H3.99612V13.8005H5.0748V12.7223H6.33915ZM6.6376 12.4238H4.77635V13.5025H3.69531V15.3638H4.77635V16.442H6.6376V15.3638H7.71864V13.5025H6.6376V12.4238Z" fill="#E6E7E8"/>
<path d="M11.3912 6.43345C10.9127 6.43345 10.5085 6.30184 10.2223 6.05274C10.0611 5.9119 9.93594 5.73465 9.85707 5.53572C9.7666 5.30156 9.72238 5.05208 9.72687 4.80109C9.72687 4.32778 9.99243 3.74825 10.516 3.07895C10.7541 2.77684 11.0135 2.49207 11.292 2.22682L11.3935 2.13281L11.4951 2.22682C11.7721 2.49195 12.0299 2.77656 12.2664 3.07848C12.79 3.74778 13.0555 4.32731 13.0555 4.80062C13.0599 5.05156 13.0159 5.30099 12.9258 5.53525C12.8467 5.73409 12.7216 5.9113 12.5606 6.05227C12.2739 6.30184 11.8697 6.43345 11.3912 6.43345Z" fill="#3B7EBA"/>
<path d="M11.3913 2.33665C11.3913 2.33665 12.9066 3.7434 12.9066 4.80235C12.9066 5.86129 12.2283 6.2843 11.3913 6.2843C10.5542 6.2843 9.87639 5.86129 9.87639 4.80235C9.87639 3.7434 11.3913 2.33665 11.3913 2.33665ZM11.3913 6.04976C11.4782 6.05 11.565 6.04419 11.6512 6.03237C10.847 5.93837 10.2364 5.43922 10.2364 4.36946C10.2364 4.33938 10.2364 4.3093 10.2397 4.27875C10.1658 4.44508 10.125 4.62418 10.1194 4.80611C10.1194 5.6949 10.689 6.04976 11.3913 6.04976ZM11.3913 1.92773L11.1882 2.11574C10.9045 2.38734 10.6408 2.67904 10.399 2.98856C9.8543 3.68465 9.57841 4.2952 9.57841 4.80235C9.57398 5.07265 9.62186 5.34125 9.71941 5.59338C9.80714 5.81364 9.94602 6.00987 10.1246 6.16586C10.439 6.43847 10.8766 6.58276 11.3936 6.58276C11.9106 6.58276 12.3468 6.43847 12.6626 6.16586C12.8413 6.00989 12.9804 5.81367 13.0683 5.59338C13.1658 5.34125 13.2137 5.07265 13.2093 4.80235C13.2093 4.2952 12.9329 3.68465 12.3881 2.98856C12.1465 2.67957 11.8826 2.38865 11.5985 2.11809L11.3955 1.93008L11.3913 1.92773Z" fill="#E6E7E8"/>
<path d="M4.59375 14.9087L6.34597 13.8164H16.4541L17.6559 14.9087H4.59375Z" fill="#89BEE3"/>
<path d="M17.6555 14.9102H4.59375V20.0004H17.6555V14.9102Z" fill="#5AA6DB"/>
<path d="M8.14706 14.9102H4.59375V20.0004H8.14706V14.9102Z" fill="#489DD7"/>
<path d="M6.61011 19.3645V14.9102H4.59375V20.0004H17.6559V19.3645H6.61011Z" fill="#3B92D0"/>
<path d="M12.8848 17.4565C12.8847 17.8168 12.7778 18.1689 12.5776 18.4683C12.3774 18.7678 12.0929 19.0012 11.76 19.1389C11.4272 19.2767 11.061 19.3127 10.7077 19.2423C10.3544 19.1719 10.03 18.9984 9.77531 18.7436C9.52066 18.4888 9.34728 18.1642 9.27709 17.8109C9.20691 17.4576 9.24307 17.0914 9.38101 16.7587C9.51895 16.4259 9.75246 16.1415 10.052 15.9415C10.3516 15.7414 10.7037 15.6347 11.064 15.6348C11.3032 15.6347 11.5401 15.6818 11.7611 15.7733C11.9821 15.8649 12.1829 15.9991 12.352 16.1683C12.5211 16.3375 12.6552 16.5383 12.7466 16.7594C12.838 16.9804 12.885 17.2173 12.8848 17.4565Z" fill="white"/>
<path d="M11.0668 19.0535C10.7507 19.0535 10.4418 18.9598 10.179 18.7842C9.91618 18.6086 9.71135 18.359 9.5904 18.067C9.46944 17.775 9.4378 17.4537 9.49946 17.1437C9.56112 16.8337 9.71332 16.549 9.93681 16.3255C10.1603 16.102 10.445 15.9498 10.755 15.8881C11.065 15.8265 11.3863 15.8581 11.6784 15.9791C11.9704 16.1 12.2199 16.3048 12.3955 16.5676C12.5711 16.8304 12.6649 17.1394 12.6649 17.4555C12.6649 17.8793 12.4965 18.2858 12.1968 18.5855C11.8971 18.8852 11.4906 19.0535 11.0668 19.0535ZM11.0668 15.9152C10.7621 15.915 10.4643 16.0052 10.2108 16.1744C9.95742 16.3435 9.75986 16.584 9.64314 16.8654C9.52642 17.1468 9.49578 17.4565 9.5551 17.7554C9.61443 18.0542 9.76105 18.3288 9.97642 18.5443C10.1918 18.7598 10.4662 18.9065 10.765 18.966C11.0638 19.0256 11.3736 18.9951 11.6551 18.8786C11.9366 18.762 12.1772 18.5646 12.3465 18.3113C12.5157 18.058 12.6061 17.7601 12.6061 17.4555C12.6056 17.0473 12.4433 16.656 12.1548 16.3672C11.8662 16.0785 11.475 15.916 11.0668 15.9152Z" fill="#79A6D5"/>
<path d="M12.2735 17.1457H11.3735V16.2461H10.7512V17.1457H9.85156V17.768H10.7512V18.6676H11.3735V17.768H12.2735V17.1457Z" fill="#4096D2"/>
<path d="M17.6506 14.9102H15.6328V20.0004H17.6506V14.9102Z" fill="#7EBADE"/>
<path d="M13.7407 14.4779H8.5L8.75851 14.2617H13.5362L13.7407 14.4779Z" fill="#3B7EBA"/>
<path d="M7.59375 10.7784L9.80282 14.4765H12.4438C12.4438 14.4765 14.6562 10.9264 14.6529 10.7821C14.6299 10.1185 13.9009 10.0531 13.8384 10.0461C13.4445 10.008 13.006 10.4621 12.6163 10.4174C11.9795 10.3436 11.5438 9.82049 10.8636 9.87736C10.411 9.91496 9.93066 10.4602 9.52786 10.2778C8.94081 10.0104 8.16952 9.53049 7.59375 10.7784Z" fill="#DFE2EA"/>
<path d="M10.0606 11.4453C10.0164 11.3128 9.94258 11.0002 9.81144 10.8672C9.80492 10.8748 9.79694 10.881 9.78798 10.8854C9.77902 10.8898 9.76926 10.8924 9.75927 10.893C9.28926 10.9292 9.70616 11.7217 9.7823 11.9398C10.0056 12.5776 10.2575 13.4001 10.5813 13.9918C10.5997 13.4889 10.4319 12.9141 10.3289 12.4516C10.2571 12.1117 10.1675 11.7758 10.0606 11.4453Z" fill="#C8CBDF"/>
<path d="M11.3331 10.5603C11.1728 10.6778 11.1728 11.098 11.1254 11.6986C11.0896 12.1409 11.0539 12.594 11.0784 13.0363C11.0821 13.0998 11.0755 13.4288 11.2067 13.417C11.3651 13.4034 11.4924 12.1983 11.5451 11.5529C11.5634 11.3231 11.5963 11.0928 11.5794 10.8615C11.5662 10.6961 11.4586 10.4681 11.3331 10.5603Z" fill="#C8CBDF"/>
<path d="M13.3513 10.9806C13.3455 10.9888 13.3377 10.9953 13.3286 10.9995C13.3196 11.0037 13.3095 11.0055 13.2996 11.0046C12.8901 11.5894 12.5901 12.2436 12.4141 12.9354C12.7408 12.6643 13.027 12.3477 13.2639 11.9954C13.4133 11.7735 13.5604 11.5395 13.6511 11.2861C13.6849 11.1991 13.7127 11.1099 13.7343 11.0192C13.7884 10.7527 13.4918 10.8048 13.3513 10.9806Z" fill="#C8CBDF"/>
<path d="M10.6358 14.4042C10.6248 14.4042 10.6142 14.401 10.605 14.395C10.5959 14.389 10.5888 14.3804 10.5845 14.3703C10.4656 14.086 10.326 13.7001 10.1784 13.2916C9.99044 12.7746 9.77846 12.1885 9.57635 11.7232C9.57292 11.7165 9.5709 11.7091 9.57042 11.7015C9.56995 11.694 9.57102 11.6864 9.57357 11.6793C9.57613 11.6722 9.58012 11.6657 9.58529 11.6601C9.59046 11.6546 9.59671 11.6502 9.60364 11.6472C9.61058 11.6442 9.61806 11.6426 9.62563 11.6426C9.6332 11.6426 9.64068 11.6441 9.64764 11.6471C9.65459 11.6501 9.66086 11.6544 9.66606 11.6599C9.67126 11.6654 9.67528 11.6719 9.67787 11.679C9.88139 12.149 10.0943 12.7356 10.2823 13.254C10.4299 13.6611 10.569 14.0456 10.6865 14.3276C10.6922 14.3411 10.6922 14.3563 10.6867 14.3699C10.6811 14.3834 10.6704 14.3942 10.6569 14.3999C10.6502 14.4027 10.643 14.4041 10.6358 14.4042Z" fill="#141A40"/>
<path d="M11.2113 14.3692H11.2085C11.1939 14.3684 11.1802 14.3618 11.1704 14.3508C11.1606 14.3399 11.1556 14.3256 11.1563 14.3109C11.1563 14.3029 11.1563 14.2498 11.1563 14.1699C11.1563 13.8837 11.1596 13.213 11.1737 12.891C11.1746 12.8764 11.1811 12.8627 11.1919 12.8528C11.2027 12.8428 11.2169 12.8375 11.2315 12.8379C11.2388 12.8382 11.246 12.8399 11.2526 12.843C11.2592 12.8461 11.2651 12.8504 11.2701 12.8558C11.275 12.8612 11.2788 12.8675 11.2813 12.8743C11.2838 12.8812 11.285 12.8884 11.2846 12.8957C11.2705 13.2158 11.2682 13.8828 11.2672 14.1704C11.2672 14.2827 11.2672 14.3114 11.2672 14.3189C11.266 14.3328 11.2595 14.3457 11.2491 14.355C11.2387 14.3643 11.2253 14.3694 11.2113 14.3692Z" fill="#141A40"/>
<path d="M11.6957 14.4243C11.6862 14.4242 11.6768 14.4217 11.6684 14.4172C11.6557 14.4098 11.6465 14.3978 11.6426 14.3836C11.6387 14.3695 11.6406 14.3543 11.6478 14.3415C11.8057 14.0661 11.9434 13.8132 12.0764 13.5684C12.3034 13.1519 12.5173 12.759 12.8007 12.3054C12.8085 12.293 12.821 12.2841 12.8353 12.2808C12.8497 12.2774 12.8648 12.2799 12.8773 12.2876C12.8835 12.2915 12.8888 12.2965 12.8931 12.3025C12.8973 12.3084 12.9003 12.3152 12.9019 12.3223C12.9035 12.3294 12.9037 12.3368 12.9025 12.3439C12.9012 12.3511 12.8986 12.358 12.8947 12.3642C12.6127 12.8145 12.3998 13.2065 12.1737 13.6215C12.0402 13.8668 11.902 14.1202 11.7441 14.3965C11.7392 14.405 11.7321 14.412 11.7236 14.4169C11.7151 14.4217 11.7055 14.4243 11.6957 14.4243Z" fill="#141A40"/>
</svg>
