<svg width="20" height="16" viewBox="0 0 20 16" fill="none" xmlns="http://www.w3.org/2000/svg">
<path d="M7.76616 10.2881C7.77701 10.1926 7.88382 10.1266 8.00451 10.1405L10.3924 10.4119C10.5135 10.4258 10.603 10.5143 10.5921 10.6098L10.3425 12.8041C10.3316 12.8996 10.2248 12.9656 10.1037 12.9517L7.71579 12.6803C7.5951 12.6665 7.50566 12.5783 7.51652 12.4824L7.76616 10.2881Z" fill="url(#paint0_linear_3483_2646)"/>
<g style="mix-blend-mode:multiply">
<path d="M7.7363 10.5404L7.70312 10.832L10.5286 11.1535L10.5618 10.8618L7.7363 10.5404Z" fill="#E9E9EA"/>
</g>
<path d="M9.72331 12.1828C9.70107 12.0155 9.62354 11.8603 9.50304 11.7421C9.38253 11.6239 9.22596 11.5493 9.05821 11.5302C8.89047 11.5112 8.72116 11.5487 8.5772 11.6369C8.43324 11.7251 8.32289 11.8589 8.26367 12.017L7.57552 11.9388L7.5625 12.0513L10.3902 12.373L10.4032 12.2601L9.72331 12.1828Z" fill="url(#paint1_linear_3483_2646)"/>
<path d="M7.28125 0.962891L7.29601 10.2339C7.2849 10.3324 7.3133 10.4313 7.375 10.5089C7.43669 10.5864 7.52664 10.6363 7.6251 10.6477L10.6703 10.995C10.7191 11.0006 10.7685 10.9965 10.8157 10.9829C10.8628 10.9694 10.9069 10.9467 10.9453 10.9162C10.9838 10.8856 11.0158 10.8478 11.0396 10.8048C11.0634 10.7619 11.0785 10.7147 11.084 10.6659L13.3039 1.64843L7.28125 0.962891Z" fill="url(#paint2_linear_3483_2646)"/>
<path d="M7.66157 1.48828L7.62814 9.82414C7.61614 9.91032 7.63884 9.99774 7.69127 10.0672C7.7437 10.1366 7.82156 10.1824 7.90774 10.1945L10.5127 10.491C10.5994 10.4986 10.6856 10.4714 10.7522 10.4155C10.8189 10.3596 10.8607 10.2794 10.8683 10.1927L12.8133 2.07396L7.66157 1.48828Z" fill="url(#paint3_linear_3483_2646)"/>
<g style="mix-blend-mode:multiply">
<path d="M12.0513 1.99023C12.0326 2.04798 10.6572 8.16528 10.4909 8.64286C10.2903 9.21725 10.0467 9.45256 9.76541 9.60061C9.46844 9.75691 9.13023 9.77427 8.80201 9.73694C8.40693 9.69135 8.01401 9.63274 7.625 9.55416L7.62978 9.82811C7.61778 9.91429 7.64048 10.0017 7.69291 10.0712C7.74534 10.1406 7.8232 10.1864 7.90938 10.1984L10.5143 10.495C10.601 10.5026 10.6872 10.4754 10.7539 10.4195C10.8206 10.3635 10.8623 10.2834 10.8699 10.1967L12.8149 2.07793L12.0513 1.99023Z" fill="#E9D7C3"/>
</g>
<g style="mix-blend-mode:multiply">
<path d="M12.6097 1.56836C12.3926 2.46273 10.9468 8.59002 10.8097 9.05891C10.6963 9.44531 10.4393 9.91073 10.0942 10.0405C9.52411 10.2555 7.81787 9.90595 7.29688 9.84777L7.30035 10.2342C7.28923 10.3327 7.31764 10.4315 7.37933 10.5091C7.44103 10.5867 7.53098 10.6366 7.62944 10.6479L10.6746 10.9953C10.7234 11.0008 10.7728 10.9967 10.82 10.9832C10.8672 10.9697 10.9112 10.947 10.9497 10.9164C10.9881 10.8858 11.0201 10.848 11.0439 10.8051C11.0677 10.7621 11.0828 10.7149 11.0884 10.6662L13.3082 1.64868L12.6097 1.56836Z" fill="#EBE1D3"/>
</g>
<path d="M7.38424 0.000557046L7.27344 0.974609L13.2959 1.65972L13.4067 0.685664L7.38424 0.000557046Z" fill="url(#paint4_linear_3483_2646)"/>
<g style="mix-blend-mode:multiply">
<path d="M7.29552 0.78049L7.27344 0.974609L13.2959 1.65972L13.318 1.4656L7.29552 0.78049Z" fill="#E9E9EA"/>
</g>
<path style="mix-blend-mode:screen" opacity="0.4" d="M7.98149 4.61006C8.17686 4.49544 8.26499 4.27142 8.30754 4.05868C8.3433 3.84961 8.36563 3.63847 8.3744 3.42654C8.39264 3.17126 8.40957 2.92031 8.41 2.66416C8.41 2.23 8.39741 1.63694 8.85285 1.41465C8.87195 1.40553 8.89192 1.39685 8.91146 1.3886C8.91146 1.3886 7.49349 1.04605 7.49219 1.37558C7.49219 1.90134 7.49219 2.63681 7.51433 3.74478C7.5343 4.69733 7.85428 4.68474 7.98149 4.61006Z" fill="url(#paint5_linear_3483_2646)"/>
<path d="M6.10991 4.76219L5.60107 4.89244L4.98761 2.48242L2.18381 3.19575L2.79727 5.6062L2.28844 5.73644C2.11069 5.78183 1.95811 5.89568 1.864 6.05315C1.76989 6.21063 1.74189 6.39894 1.78612 6.57698L3.653 13.9012C3.69854 14.0794 3.81287 14.2322 3.97092 14.3262C4.12897 14.4202 4.31785 14.4477 4.49614 14.4027L8.31674 13.4302C8.495 13.3846 8.64791 13.2702 8.74192 13.1121C8.83593 12.9539 8.86336 12.765 8.81819 12.5866L6.95261 5.26278C6.90687 5.08487 6.79253 4.93232 6.6346 4.83851C6.47667 4.7447 6.28802 4.71726 6.10991 4.76219Z" fill="url(#paint6_linear_3483_2646)"/>
<path d="M8.41569 12.4061C8.50252 12.75 8.31235 13.0951 7.98934 13.1772L4.66889 14.022C4.34631 14.1041 4.01374 13.8918 3.92604 13.5484L2.2007 6.76638C2.11386 6.42296 2.30402 6.07737 2.6266 5.99531L5.94705 5.15044C6.27007 5.06838 6.60264 5.28069 6.6899 5.62411L8.41569 12.4061Z" fill="url(#paint7_linear_3483_2646)"/>
<path style="mix-blend-mode:screen" opacity="0.4" d="M3.45345 8.92787C3.61191 8.66737 3.61278 8.35521 3.5876 8.05955C3.55156 7.63885 3.49382 7.22075 3.47949 6.80049C3.46734 6.45967 3.4148 6.04028 3.5724 5.72334C3.59108 5.68529 3.61332 5.64909 3.63883 5.61523L2.47051 5.91263C2.14793 5.99469 1.95733 6.33985 2.0446 6.6837L2.71103 9.30298C2.98455 9.32165 3.31495 9.1545 3.45345 8.92787Z" fill="url(#paint8_linear_3483_2646)"/>
<g style="mix-blend-mode:multiply">
<path d="M5.94854 5.1478L5.84392 5.17428C6.06099 5.96445 7.02873 10.1376 7.13119 10.6304C7.20587 10.9894 7.31962 11.5074 7.22367 11.8807C7.12208 12.2737 6.73915 12.4994 6.28762 12.6705C5.87474 12.8268 4.27703 13.2644 3.86719 13.3083L3.92754 13.5457C4.01437 13.8896 4.3478 14.1015 4.67038 14.0194L7.99083 13.1745C8.31384 13.0925 8.50444 12.7473 8.41718 12.4035L6.69139 5.62146C6.60413 5.27804 6.27156 5.06791 5.94854 5.1478Z" fill="#E9D7C3"/>
</g>
<g style="mix-blend-mode:multiply">
<path d="M6.11446 4.76329C6.11446 4.76329 7.48814 10.4226 7.59321 10.9201C7.67787 11.3213 7.76383 11.7702 7.65529 12.1753C7.54675 12.5803 7.18119 12.8677 6.80478 13.0262C6.345 13.2198 3.63281 13.8151 3.63281 13.8151L3.65538 13.9019C3.70093 14.0801 3.81526 14.2329 3.97331 14.3269C4.13136 14.4209 4.32023 14.4484 4.49852 14.4034L8.31912 13.4308C8.49738 13.3853 8.65029 13.2709 8.7443 13.1128C8.83831 12.9546 8.86575 12.7656 8.82058 12.5873L6.95717 5.26388C6.91143 5.08597 6.79709 4.93343 6.63916 4.83961C6.48123 4.7458 6.29257 4.71836 6.11446 4.76329Z" fill="#EBE1D3"/>
</g>
<g style="mix-blend-mode:multiply">
<path d="M5.37458 3.99523L2.57031 4.70898L2.62686 4.93114L5.43112 4.21738L5.37458 3.99523Z" fill="#DCDDDE"/>
</g>
<g style="mix-blend-mode:multiply">
<path d="M5.12458 3.0382L2.32031 3.75195L2.37686 3.97411L5.18112 3.26035L5.12458 3.0382Z" fill="#DCDDDE"/>
</g>
<path d="M5.29554 3.16596L2.1875 3.95703L2.40275 4.80273L5.51079 4.01165L5.29554 3.16596Z" fill="url(#paint9_linear_3483_2646)"/>
<path d="M17.263 6.43435C16.9157 6.1452 16.2406 5.77964 16.2406 5.77964L14.1301 5.35547C14.1301 5.35547 13.3643 5.43058 12.934 5.56387C12.4955 5.69976 11.9949 6.03449 11.836 6.82293L10.5335 13.4417C10.4879 13.6586 10.5303 13.8848 10.6513 14.0705C10.7724 14.2562 10.9622 14.3862 11.1791 14.432L15.4539 15.2912C15.5617 15.3119 15.6725 15.3111 15.7799 15.2889C15.8874 15.2667 15.9895 15.2235 16.0803 15.1619C16.1711 15.1002 16.2489 15.0213 16.3091 14.9296C16.3694 14.8379 16.411 14.7352 16.4316 14.6274L17.7883 8.01947C17.9472 7.23147 17.6151 6.72915 17.263 6.43435Z" fill="url(#paint10_linear_3483_2646)"/>
<path d="M16.9438 6.71297C16.6399 6.44813 16.0464 6.116 16.0464 6.116L14.1865 5.74219C14.1865 5.74219 13.5096 5.8186 13.1284 5.94581C12.7377 6.07606 12.2948 6.38952 12.1476 7.12151L10.9389 13.2562C10.8521 13.6795 11.1052 14.0872 11.5003 14.1679L15.2688 14.9238C15.6639 15.0032 16.0529 14.7245 16.1371 14.3016L17.3936 8.17652C17.5416 7.44409 17.2525 6.98258 16.9438 6.71297Z" fill="url(#paint11_linear_3483_2646)"/>
<g style="mix-blend-mode:multiply">
<path d="M17.2652 6.4352C17.1383 6.3324 17.0053 6.2373 16.8671 6.15039C16.7138 7.14027 15.8889 11.6495 15.7817 12.1205C15.6818 12.5677 15.5212 13.2645 15.1465 13.5354C14.8451 13.7464 14.4735 13.8322 14.1101 13.7747C12.957 13.581 11.7509 13.3748 10.6156 13.0522L10.5335 13.443C10.4879 13.6599 10.5303 13.8861 10.6513 14.0718C10.7724 14.2575 10.9622 14.3875 11.1791 14.4333L15.4539 15.2925C15.5617 15.3131 15.6725 15.3123 15.7799 15.2902C15.8874 15.268 15.9895 15.2248 16.0803 15.1632C16.1711 15.1015 16.2489 15.0226 16.3091 14.9309C16.3694 14.8392 16.411 14.7365 16.4316 14.6286L17.7883 8.02075C17.9494 7.23231 17.6173 6.72999 17.2652 6.4352Z" fill="#E9D7C3"/>
</g>
<path d="M14.4521 3.83415L14.125 5.46094L16.2128 5.88077L16.5399 4.25398L14.4521 3.83415Z" fill="url(#paint12_linear_3483_2646)"/>
<g style="mix-blend-mode:multiply">
<path d="M14.1633 5.27067L14.125 5.46094L16.2128 5.88077L16.251 5.6905L14.1633 5.27067Z" fill="#E9E9EA"/>
</g>
<path d="M16.5357 4.25384C16.5132 4.36542 16.0269 4.36238 15.4503 4.24646C14.8738 4.13054 14.4235 3.94559 14.4461 3.83358C14.4687 3.72156 14.9545 3.72547 15.5315 3.84139C16.1085 3.95731 16.5579 4.14226 16.5357 4.25384Z" fill="url(#paint13_radial_3483_2646)"/>
<path d="M16.5357 4.25384C16.5132 4.36542 16.0269 4.36238 15.4503 4.24646C14.8738 4.13054 14.4235 3.94559 14.4461 3.83358C14.4687 3.72156 14.9545 3.72547 15.5315 3.84139C16.1085 3.95731 16.5579 4.14226 16.5357 4.25384Z" fill="url(#paint14_radial_3483_2646)"/>
<path d="M15.6029 2.70312L15.9407 2.77129L15.675 4.09287C15.675 4.09287 15.6316 4.11588 15.4983 4.09287C15.365 4.06986 15.3359 4.02557 15.3359 4.02557L15.6029 2.70312Z" fill="url(#paint15_linear_3483_2646)"/>
<path d="M16.5975 3.02642C16.4213 3.13887 14.0859 2.59965 14.0859 2.59965C14.0859 2.59965 14.5201 2.19935 14.7776 2.21324C15.5156 2.25275 16.3219 2.46462 16.5298 2.56535C16.6557 2.62483 16.7321 2.93959 16.5975 3.02642Z" fill="url(#paint16_linear_3483_2646)"/>
<path style="mix-blend-mode:screen" opacity="0.2" d="M15.1542 2.50766C15.291 2.53284 15.4294 2.55107 15.5662 2.57712C15.7312 2.60838 16.1376 2.75079 16.2174 2.55151C16.0716 2.48161 15.5111 2.33443 14.9983 2.30664C14.9207 2.31149 14.8458 2.33697 14.7812 2.38045C14.9 2.43774 15.0252 2.48046 15.1542 2.50766Z" fill="url(#paint17_linear_3483_2646)"/>
<path style="mix-blend-mode:screen" opacity="0.4" d="M12.1188 9.00449C12.3151 9.044 12.5708 9.08872 12.7592 8.99928C13.1738 8.80347 13.189 8.13096 13.2637 7.74456C13.3744 7.17321 13.5472 6.62703 13.8307 6.11559C13.9211 5.9461 14.0296 5.78686 14.1542 5.64062C13.9748 5.6606 13.4317 5.72746 13.1009 5.82862C12.6923 5.95539 12.2261 6.26668 12.0784 7.00084C12.0784 7.00084 11.7402 8.2408 11.7502 8.62373C11.7572 8.8877 11.9651 8.97453 12.1188 9.00449Z" fill="url(#paint18_linear_3483_2646)"/>
<g style="mix-blend-mode:multiply">
<path d="M17.2618 6.4349C17.2523 6.42665 17.2419 6.41884 17.2319 6.41016C17.0052 7.58239 15.9811 13.1978 15.925 13.4409C15.8382 13.8226 15.6646 14.2298 15.2599 14.3609C14.8822 14.4825 14.4862 14.3926 14.1081 14.3175C14.1081 14.3175 11.1076 13.6094 10.5271 13.4787C10.4915 13.6912 10.5393 13.9092 10.6607 14.0872C10.7821 14.2652 10.9676 14.3894 11.1784 14.4339L15.4531 15.2931C15.5609 15.3137 15.6717 15.3129 15.7792 15.2907C15.8867 15.2685 15.9887 15.2254 16.0795 15.1637C16.1703 15.1021 16.2481 15.0232 16.3084 14.9314C16.3687 14.8397 16.4103 14.737 16.4308 14.6292L17.7876 8.02132C17.9461 7.23202 17.6139 6.7297 17.2618 6.4349Z" fill="#EBE1D3"/>
</g>
<path d="M2.0719 12.4418C2.03211 12.4432 1.99267 12.4339 1.95769 12.4149C1.92271 12.3959 1.89348 12.3678 1.87306 12.3336L0.36218 9.45213C0.314423 9.36052 0.362181 9.25459 0.474194 9.21465C0.586207 9.1747 0.711679 9.21465 0.759437 9.30756L2.27031 12.1886C2.31806 12.2798 2.27031 12.3862 2.1583 12.4261C2.13059 12.4362 2.10137 12.4415 2.0719 12.4418Z" fill="#22959C"/>
<path d="M1.6391 12.3624H1.6226C1.50364 12.3555 1.41377 12.2691 1.42245 12.1697L1.64431 9.65545C1.65343 9.55603 1.75676 9.48178 1.87659 9.48873C1.99642 9.49568 2.08542 9.58251 2.07674 9.68193L1.85488 12.1961C1.8462 12.2899 1.75111 12.3624 1.6391 12.3624Z" fill="#3DB1D3"/>
<path d="M2.48564 12.4418C2.44585 12.4432 2.4064 12.4339 2.37142 12.4149C2.33645 12.3959 2.30722 12.3678 2.28679 12.3336L0.775918 9.45213C0.728161 9.36052 0.77809 9.25459 0.887932 9.21465C0.997775 9.1747 1.12498 9.21465 1.17318 9.30756L2.68405 12.1886C2.73181 12.2798 2.68405 12.3862 2.57204 12.4261C2.54433 12.4362 2.51512 12.4415 2.48564 12.4418Z" fill="#4D64AE"/>
<path d="M1.99847 12.4284H1.98198C1.86302 12.421 1.77315 12.3347 1.78183 12.2357L2.01324 9.6281C2.02192 9.52868 2.12612 9.45444 2.24508 9.46139C2.36404 9.46833 2.45391 9.55517 2.44523 9.65459L2.21426 12.2621C2.20557 12.3564 2.11049 12.4284 1.99847 12.4284Z" fill="#65CADF"/>
<path d="M2.97009 12.5194C2.93032 12.5208 2.8909 12.5115 2.85599 12.4924C2.82107 12.4733 2.79195 12.4451 2.77169 12.4109L1.26081 9.53025C1.21262 9.43908 1.26081 9.33271 1.37239 9.29276C1.48397 9.25282 1.60988 9.29276 1.65763 9.38611L3.16851 12.2668C3.2167 12.3584 3.16851 12.4643 3.05693 12.5042C3.02911 12.5144 2.99971 12.5195 2.97009 12.5194Z" fill="#22959C"/>
<path d="M2.48264 12.5159H2.46962C2.35022 12.5098 2.25905 12.4243 2.266 12.3249L2.46441 9.56364C2.47135 9.46421 2.57468 9.38997 2.69364 9.39475C2.8126 9.39952 2.90377 9.48592 2.89683 9.58535L2.69842 12.3466C2.69191 12.4421 2.59639 12.5159 2.48264 12.5159Z" fill="#3DB1D3"/>
<path d="M3.51682 12.5194C3.47699 12.5208 3.43752 12.5115 3.40254 12.4924C3.36756 12.4733 3.33835 12.4452 3.31798 12.4109L1.80711 9.53025C1.75935 9.43908 1.80971 9.33271 1.91912 9.29276C2.02852 9.25282 2.1566 9.29276 2.20436 9.38611L3.71523 12.2668C3.76299 12.3584 3.71523 12.4643 3.60322 12.5042C3.57555 12.5144 3.5463 12.5195 3.51682 12.5194Z" fill="#4D64AE"/>
<path d="M2.94336 12.515H2.92772C2.80833 12.508 2.71846 12.4221 2.72714 12.3226C2.8092 11.3497 2.93207 9.8805 2.93641 9.80452C2.93901 9.70684 3.03496 9.63086 3.15349 9.63086C3.27201 9.63086 3.37057 9.71161 3.37057 9.81104C3.37057 9.85185 3.24032 11.42 3.16 12.3509C3.15089 12.4425 3.05581 12.515 2.94336 12.515Z" fill="#65CADF"/>
<path d="M3.99377 12.5194C3.95394 12.5209 3.91444 12.5116 3.87945 12.4925C3.84446 12.4734 3.81527 12.4452 3.79493 12.4109L2.28405 9.53025C2.2363 9.43908 2.28406 9.33271 2.39607 9.29276C2.50808 9.25282 2.63355 9.29276 2.68131 9.38611L4.19219 12.2668C4.23994 12.3584 4.19001 12.4643 4.08017 12.5042C4.05249 12.5144 4.02324 12.5195 3.99377 12.5194Z" fill="#22959C"/>
<path d="M3.61533 12.5638H3.60448C3.48509 12.5591 3.39304 12.4748 3.39868 12.3754L3.54934 9.75959C3.55499 9.66017 3.65614 9.58333 3.77597 9.5881C3.8958 9.59288 3.98784 9.67493 3.9822 9.77653L3.83154 12.3923C3.8259 12.4887 3.72995 12.5638 3.61533 12.5638Z" fill="#3DB1D3"/>
<path d="M4.47905 12.5178C4.43928 12.5192 4.39986 12.5099 4.36494 12.4908C4.33003 12.4717 4.30091 12.4435 4.28064 12.4092L2.80711 9.60024C2.75935 9.50906 2.80971 9.4027 2.91912 9.36275C3.02852 9.32281 3.1566 9.36492 3.20436 9.4561L4.67746 12.2651C4.72565 12.3567 4.67746 12.4626 4.56588 12.5026C4.53807 12.5127 4.50867 12.5179 4.47905 12.5178Z" fill="#4D64AE"/>
<path d="M4.03738 12.7204H4.02348C3.90409 12.7143 3.81335 12.6288 3.82073 12.5293L4.0326 9.68473C4.03998 9.58531 4.14331 9.51107 4.26227 9.51584C4.38123 9.52062 4.4724 9.60788 4.46502 9.70687L4.25315 12.5515C4.24621 12.6466 4.15069 12.7204 4.03738 12.7204Z" fill="#65CADF"/>
<path d="M5.10472 12.6699C5.06372 12.6716 5.02308 12.6617 4.9874 12.6414C4.95172 12.6212 4.92243 12.5913 4.90284 12.5553L3.53046 9.62689C3.48704 9.53398 3.54218 9.42978 3.65333 9.39331C3.76447 9.35684 3.89038 9.4033 3.9338 9.49577L5.30661 12.4242C5.35002 12.5171 5.29532 12.6217 5.18374 12.6578C5.15818 12.6658 5.13153 12.67 5.10472 12.6699Z" fill="#22959C"/>
<path d="M4.69345 12.8169C4.6839 12.8169 4.67435 12.8169 4.66437 12.8169C4.54584 12.8034 4.46248 12.7127 4.47854 12.6141L4.93745 9.79643C4.95352 9.69787 5.06249 9.62884 5.18145 9.6423C5.30041 9.65576 5.3829 9.74607 5.36683 9.84505L4.90793 12.6623C4.89317 12.7522 4.80025 12.8169 4.69345 12.8169Z" fill="#3DB1D3"/>
<path d="M5.81 12.7059C5.7675 12.7078 5.72538 12.6971 5.68887 12.6753C5.65236 12.6535 5.62307 12.6214 5.60465 12.583L4.44891 9.72625C4.41071 9.63204 4.47149 9.53001 4.58524 9.49788C4.69899 9.46575 4.82142 9.51698 4.85963 9.6112L6.01536 12.468C6.05357 12.5622 5.99279 12.6646 5.87904 12.6963C5.85659 12.7027 5.83335 12.7059 5.81 12.7059Z" fill="#4D64AE"/>
<path d="M5.57627 12.7208H5.56585C5.44645 12.716 5.35398 12.6317 5.35962 12.5323C5.39956 11.8155 5.50376 9.93996 5.5055 9.86702C5.5081 9.76847 5.60449 9.68945 5.72258 9.68945C5.84154 9.68945 5.93705 9.76977 5.93705 9.86876C5.93705 9.92433 5.81505 12.1112 5.79074 12.5493C5.78683 12.6452 5.69132 12.7208 5.57627 12.7208Z" fill="#65CADF"/>
<path d="M6.41574 12.7451C6.37114 12.7473 6.32698 12.7354 6.28945 12.7112C6.25193 12.687 6.22292 12.6516 6.20648 12.6101L5.31168 9.76117C5.28172 9.66479 5.35075 9.56623 5.46667 9.54105C5.58259 9.51587 5.70069 9.57361 5.73108 9.6713L6.62545 12.5207C6.65584 12.6166 6.58637 12.7152 6.47088 12.7404C6.45272 12.7439 6.43424 12.7455 6.41574 12.7451Z" fill="#22959C"/>
<path d="M6.33408 12.8788H6.32366C6.20383 12.8741 6.11179 12.792 6.11743 12.69L6.28285 9.80065C6.2885 9.70123 6.39009 9.62395 6.50948 9.62915C6.62887 9.63436 6.72135 9.71859 6.71571 9.81801L6.55029 12.7095C6.54465 12.8037 6.4487 12.8788 6.33408 12.8788Z" fill="#3DB1D3"/>
<path d="M7.2766 12.8979C7.23157 12.9001 7.187 12.888 7.14926 12.8634C7.11151 12.8387 7.08253 12.8028 7.06646 12.7607L6.15473 9.71027C6.12608 9.61345 6.19815 9.51577 6.31276 9.49319C6.42738 9.47061 6.54634 9.52792 6.57326 9.62344L7.48499 12.6743C7.51365 12.7707 7.44158 12.8683 7.32696 12.8914C7.31045 12.8953 7.29356 12.8975 7.2766 12.8979Z" fill="#4D64AE"/>
<path d="M7.14686 12.864H7.12211C7.00315 12.8527 6.91762 12.7637 6.93108 12.6647L7.32182 9.80274C7.33528 9.70375 7.44252 9.63211 7.56148 9.64383C7.68044 9.65556 7.76597 9.74413 7.75251 9.84311L7.36177 12.7051C7.34918 12.795 7.2554 12.864 7.14686 12.864Z" fill="#65CADF"/>
<path d="M8.18114 12.9163C8.13435 12.919 8.08798 12.906 8.04944 12.8794C8.01089 12.8527 7.98237 12.8139 7.9684 12.7692L7.26941 9.68012C7.24727 9.58243 7.32455 9.48822 7.44307 9.46998C7.5616 9.45175 7.67361 9.5134 7.69575 9.61369L8.39518 12.7027C8.41732 12.8004 8.34004 12.8946 8.22152 12.9133C8.20814 12.9152 8.19465 12.9162 8.18114 12.9163Z" fill="#22959C"/>
<path d="M8.0843 12.9026C8.0721 12.9026 8.05992 12.9018 8.04784 12.9C7.92974 12.8835 7.85029 12.7902 7.87026 12.6921L8.43901 9.88869C8.4431 9.86021 8.45289 9.83285 8.4678 9.80824C8.4827 9.78363 8.50242 9.76228 8.52576 9.74546C8.5491 9.72864 8.5756 9.7167 8.60366 9.71035C8.63173 9.704 8.66078 9.70338 8.68909 9.70852L8.65913 9.88696L8.8723 9.91952C8.86275 9.96293 8.49198 11.7916 8.29748 12.752C8.27751 12.8388 8.1859 12.9026 8.0843 12.9026Z" fill="#3DB1D3"/>
<path d="M9.04182 12.9213C8.93806 12.9213 8.84602 12.8588 8.82822 12.7707L8.20607 9.66903C8.18653 9.57091 8.26642 9.478 8.38408 9.4615C8.50173 9.445 8.61375 9.51143 8.63372 9.60955L9.25586 12.7099C9.2754 12.808 9.19595 12.9009 9.07786 12.9174C9.06596 12.9196 9.05391 12.9209 9.04182 12.9213Z" fill="#4D64AE"/>
<path d="M8.90462 12.9433C8.89407 12.944 8.88348 12.944 8.87293 12.9433C8.75484 12.929 8.67278 12.8374 8.68971 12.7388C8.87293 11.6921 9.16295 9.97933 9.16729 9.81999C9.16121 9.72404 9.24717 9.64025 9.36353 9.63156C9.47988 9.62288 9.58799 9.69539 9.59927 9.79437C9.61404 9.92766 9.30492 11.729 9.11953 12.7901C9.10303 12.8786 9.01055 12.9433 8.90462 12.9433ZM9.16512 9.82042C9.16512 9.82042 9.16512 9.82433 9.16512 9.82563C9.16512 9.82694 9.16772 9.82216 9.16772 9.82042H9.16512Z" fill="#65CADF"/>
<path d="M10.2242 12.9073C10.1083 12.9073 10.0123 12.8309 10.0071 12.7336C9.96932 11.9135 9.88509 9.988 9.92417 9.82476C9.94761 9.72707 10.0618 9.66369 10.179 9.68322C10.2962 9.70276 10.3705 9.79524 10.3501 9.89119C10.3275 10.0518 10.3935 11.709 10.4399 12.7189C10.4447 12.8183 10.3531 12.9021 10.232 12.906L10.2242 12.9073Z" fill="#3DB1D3"/>
<path d="M9.99963 12.9434C9.89413 12.9434 9.80209 12.8791 9.78559 12.7901L9.22119 9.68155C9.20339 9.58343 9.28501 9.49139 9.40353 9.47663C9.52206 9.46187 9.6319 9.5296 9.6497 9.62815L10.2141 12.7363C10.2319 12.8344 10.1507 12.9265 10.0322 12.9412C10.0214 12.9426 10.0105 12.9433 9.99963 12.9434Z" fill="#22959C"/>
<path d="M14.8808 12.7207C14.8541 12.7209 14.8275 12.7166 14.8022 12.7082C14.6906 12.6721 14.6355 12.5675 14.6789 12.475L16.0517 9.54661C16.0951 9.4537 16.2206 9.40768 16.3322 9.44415C16.4438 9.48062 16.4989 9.58482 16.455 9.67729L15.0827 12.6057C15.0631 12.6418 15.0338 12.6716 14.9981 12.692C14.9624 12.7123 14.9218 12.7223 14.8808 12.7207Z" fill="#65CADF"/>
<path d="M11.8734 12.9651C11.86 12.9651 11.8466 12.9641 11.8334 12.962C11.7158 12.9434 11.6385 12.8492 11.6598 12.7515L12.3588 9.66242C12.3809 9.56474 12.4947 9.50048 12.6119 9.51872C12.7291 9.53695 12.8068 9.63116 12.7855 9.72928L12.0861 12.8183C12.0721 12.863 12.0435 12.9017 12.005 12.9283C11.9664 12.9549 11.9201 12.9678 11.8734 12.9651Z" fill="#65CADF"/>
<path d="M12.3774 12.9042C12.2732 12.9042 12.1812 12.8413 12.1638 12.7523C11.9788 11.7906 11.6259 9.9602 11.6172 9.91592L11.8304 9.88596L11.8021 9.70622C11.8304 9.70135 11.8595 9.70223 11.8874 9.70881C11.9154 9.71538 11.9417 9.72752 11.9649 9.74449C11.9881 9.76147 12.0076 9.78294 12.0223 9.80761C12.037 9.83229 12.0466 9.85967 12.0505 9.88813L12.5919 12.6954C12.6105 12.7935 12.5302 12.886 12.4121 12.9021C12.4006 12.9034 12.389 12.9042 12.3774 12.9042Z" fill="#3DB1D3"/>
<path d="M18.0294 12.4918C17.9998 12.492 17.9704 12.4868 17.9426 12.4766C17.8328 12.4367 17.7828 12.3308 17.8306 12.2392L19.3415 9.35851C19.3892 9.2669 19.5151 9.22522 19.6267 9.26516C19.7383 9.3051 19.7865 9.41147 19.7387 9.50265L18.2279 12.3833C18.2076 12.4175 18.1784 12.4456 18.1435 12.4647C18.1086 12.4838 18.0692 12.4932 18.0294 12.4918Z" fill="#22959C"/>
<path d="M17.6154 12.4918C17.5858 12.4919 17.5564 12.4868 17.5286 12.4766C17.4187 12.4367 17.3688 12.3308 17.4165 12.2392L18.9274 9.35851C18.9752 9.2669 19.1033 9.22522 19.2127 9.26516C19.3221 9.3051 19.3724 9.41147 19.3247 9.50265L17.8138 12.3833C17.7935 12.4175 17.7644 12.4456 17.7295 12.4647C17.6946 12.4838 17.6552 12.4932 17.6154 12.4918Z" fill="#4D64AE"/>
<path d="M18.2255 12.423C18.1794 12.4255 18.1338 12.4129 18.0956 12.3871C18.0574 12.3613 18.0286 12.3238 18.0136 12.2802L17.3563 9.70387C17.3316 9.60662 17.4062 9.5111 17.5234 9.49026C17.6407 9.46942 17.7553 9.53368 17.7805 9.62919L18.4374 12.2055C18.4625 12.3027 18.3879 12.3983 18.2706 12.4191C18.2557 12.4217 18.2406 12.423 18.2255 12.423Z" fill="#65CADF"/>
<path d="M17.201 12.6243C17.174 12.6244 17.1472 12.6201 17.1216 12.6117C17.01 12.5752 16.9557 12.4706 16.9996 12.3781L18.3854 9.45407C18.4288 9.36116 18.5552 9.316 18.6663 9.35247C18.7774 9.38894 18.8322 9.49357 18.7883 9.58605L17.4025 12.5101C17.3829 12.546 17.3536 12.5758 17.318 12.596C17.2824 12.6161 17.2419 12.626 17.201 12.6243Z" fill="#22959C"/>
<path d="M17.8477 12.4802C17.8034 12.4823 17.7596 12.4707 17.7222 12.4469C17.6848 12.4231 17.6557 12.3883 17.6389 12.3473C17.2789 11.2454 16.8483 9.92384 16.8396 9.8852C16.8179 9.78708 16.8956 9.6933 17.0132 9.67507C17.1309 9.65683 17.2399 9.71849 17.2646 9.814C17.2876 9.89345 17.75 11.3132 18.057 12.2527C18.0882 12.3486 18.02 12.4476 17.9046 12.4737C17.8859 12.4779 17.8668 12.4801 17.8477 12.4802Z" fill="#3DB1D3"/>
<path d="M16.7244 12.7332C16.6976 12.7332 16.6709 12.7291 16.6454 12.721C16.5338 12.6845 16.4791 12.5799 16.5229 12.4874L17.835 9.70231C17.8784 9.6094 18.0043 9.56424 18.1154 9.60028C18.2266 9.63631 18.2822 9.74095 18.2383 9.83386L16.9263 12.619C16.9065 12.6548 16.8771 12.6845 16.8415 12.7046C16.8058 12.7248 16.7653 12.7347 16.7244 12.7332Z" fill="#65CADF"/>
<path d="M17.0662 12.5429C17.0196 12.5456 16.9735 12.5327 16.935 12.5063C16.8965 12.4799 16.8678 12.4415 16.8535 12.3971L16.2539 9.82424C16.2314 9.72655 16.3082 9.63191 16.4254 9.6128C16.5426 9.5937 16.6564 9.65622 16.6794 9.75564L17.279 12.3285C17.3016 12.4262 17.2251 12.5208 17.1053 12.5395C17.0924 12.5418 17.0793 12.5429 17.0662 12.5429Z" fill="#3DB1D3"/>
<path d="M16.232 12.6869C16.2073 12.6869 16.1828 12.6834 16.1591 12.6765C16.0462 12.6426 15.9876 12.5393 16.0288 12.4459L17.3035 9.48671C17.3439 9.39293 17.4681 9.34431 17.5805 9.37774C17.693 9.41117 17.7542 9.51493 17.7108 9.60828L16.4361 12.5675C16.4172 12.605 16.3879 12.6362 16.3517 12.6574C16.3155 12.6786 16.2739 12.6888 16.232 12.6869Z" fill="#4D64AE"/>
<path d="M16.5186 12.6954C16.4722 12.698 16.4262 12.6853 16.3879 12.6591C16.3495 12.633 16.3208 12.5949 16.3062 12.5508L15.6294 9.77653C15.6055 9.67928 15.6815 9.5842 15.7987 9.56423C15.9159 9.54425 16.0301 9.60764 16.054 9.70489L16.7309 12.4792C16.7547 12.5769 16.6792 12.6719 16.562 12.6915C16.5476 12.694 16.5331 12.6954 16.5186 12.6954Z" fill="#22959C"/>
<path d="M15.5836 12.5707C15.558 12.5708 15.5325 12.567 15.5081 12.5595C15.396 12.5247 15.3392 12.421 15.3808 12.3276L16.6655 9.45522C16.7089 9.36188 16.8318 9.31455 16.9443 9.34928C17.0567 9.38402 17.1131 9.48778 17.0715 9.58113L15.7868 12.4535C15.7677 12.4905 15.7384 12.5212 15.7024 12.5419C15.6664 12.5627 15.6251 12.5727 15.5836 12.5707Z" fill="#4D64AE"/>
<path d="M15.6476 12.8273C15.536 12.8273 15.4414 12.7557 15.4305 12.6614L15.1492 9.78253C15.1392 9.68354 15.2282 9.59628 15.3472 9.58846C15.4661 9.58065 15.5712 9.65402 15.5808 9.75344L15.8625 12.6323C15.8721 12.7313 15.7835 12.8186 15.6641 12.8264L15.6476 12.8273Z" fill="#3DB1D3"/>
<path d="M14.2949 12.7549C14.2728 12.755 14.2507 12.752 14.2294 12.7462C14.1152 12.7162 14.0522 12.6159 14.0883 12.52L15.2301 9.52428C15.2666 9.4292 15.3881 9.37667 15.5023 9.40706C15.6165 9.43745 15.6795 9.53731 15.643 9.63325L14.5012 12.629C14.4831 12.668 14.4539 12.7008 14.4172 12.7233C14.3805 12.7457 14.3379 12.7567 14.2949 12.7549Z" fill="#4D64AE"/>
<path d="M14.8517 12.7221C14.7393 12.7221 14.6446 12.65 14.6346 12.5553C14.5612 11.7665 14.3906 9.92477 14.3906 9.86963C14.3906 9.77021 14.4879 9.68945 14.6077 9.68945C14.7275 9.68945 14.8222 9.76804 14.8248 9.86616C14.8296 9.95299 14.972 11.5029 15.0675 12.528C15.0766 12.627 14.9872 12.7138 14.8678 12.7212L14.8517 12.7221Z" fill="#22959C"/>
<path d="M13.6465 12.795C13.6281 12.795 13.6098 12.7929 13.5918 12.789C13.4759 12.7638 13.4064 12.6657 13.4368 12.5693L14.3182 9.76244C14.3481 9.66606 14.4667 9.60875 14.5826 9.63219C14.6985 9.65564 14.7675 9.75593 14.7371 9.85231L13.8558 12.6592C13.8395 12.7009 13.8106 12.7364 13.7731 12.7608C13.7355 12.7852 13.6912 12.7972 13.6465 12.795Z" fill="#65CADF"/>
<path d="M14.1371 12.8787C14.0251 12.8787 13.93 12.807 13.92 12.7124L13.6569 9.82261C13.6478 9.72362 13.7372 9.63679 13.8566 9.62941C13.976 9.62203 14.0798 9.69627 14.0889 9.7957L14.352 12.685C14.3611 12.7844 14.2717 12.8708 14.1523 12.8782L14.1371 12.8787Z" fill="#3DB1D3"/>
<path d="M12.8263 12.9463C12.8087 12.9463 12.7911 12.9446 12.7738 12.9411C12.6579 12.9168 12.5871 12.8191 12.6157 12.724L13.5275 9.6732C13.5566 9.57638 13.6738 9.51777 13.788 9.54295C13.9022 9.56813 13.9747 9.66451 13.946 9.76003L13.0343 12.8109C13.0182 12.8524 12.9895 12.8878 12.9521 12.9121C12.9148 12.9365 12.8708 12.9484 12.8263 12.9463Z" fill="#4D64AE"/>
<path d="M13.4359 12.8818C13.3912 12.8841 13.3469 12.8723 13.3093 12.848C13.2717 12.8238 13.2426 12.7884 13.2262 12.7468L12.3509 9.96039C12.3205 9.86401 12.39 9.76545 12.5059 9.74027C12.6218 9.71509 12.7399 9.77283 12.7699 9.87052L13.6438 12.6552C13.6738 12.7516 13.6047 12.8502 13.4888 12.8753C13.4714 12.8793 13.4537 12.8815 13.4359 12.8818Z" fill="#22959C"/>
<path d="M11.0686 12.9727C11.0565 12.9727 11.0445 12.9719 11.0325 12.9701C10.9144 12.9541 10.835 12.8612 10.8545 12.763L11.4767 9.66228C11.4966 9.56416 11.6069 9.49774 11.7259 9.51423C11.8448 9.53073 11.9238 9.62364 11.9039 9.72176L11.2817 12.8221C11.2644 12.9102 11.1723 12.9727 11.0686 12.9727Z" fill="#4D64AE"/>
<path d="M11.4239 12.8989C11.3201 12.8989 11.2285 12.8368 11.2107 12.7491C11.0032 11.7401 10.6572 10.0278 10.6724 9.89274C10.6832 9.79331 10.7883 9.71907 10.9077 9.72949C11.0271 9.73991 11.1096 9.82153 11.1044 9.91705C11.1109 10.0786 11.4343 11.6971 11.6375 12.6883C11.6579 12.7864 11.5785 12.8793 11.4608 12.8962C11.4486 12.898 11.4362 12.8988 11.4239 12.8989ZM11.1044 9.91922C11.1044 9.91922 11.1044 9.92356 11.1044 9.9253C11.1044 9.92703 11.1057 9.92182 11.1061 9.91922H11.1044Z" fill="#65CADF"/>
<path d="M10.2246 12.9191C10.2114 12.9191 10.1982 12.9181 10.1851 12.9161C10.0675 12.8983 9.98974 12.8045 10.0114 12.7064L10.6588 9.75885C10.6805 9.66116 10.7929 9.59647 10.911 9.61427C11.0291 9.63207 11.1064 9.72585 11.0847 9.82397L10.4374 12.771C10.4236 12.816 10.3952 12.855 10.3566 12.8819C10.318 12.9087 10.2715 12.9218 10.2246 12.9191Z" fill="#4D64AE"/>
<path d="M4.11704 14.7215C4.07063 14.7223 4.02554 14.7061 3.99026 14.676L1.73263 12.6667C1.71776 12.6538 1.70599 12.6378 1.6982 12.6198C1.6904 12.6017 1.68678 12.5822 1.68762 12.5625C1.68845 12.5429 1.69372 12.5237 1.70302 12.5064C1.71232 12.4891 1.72541 12.4741 1.74132 12.4626C1.77705 12.4363 1.82057 12.4226 1.86495 12.4239C1.90932 12.4252 1.952 12.4412 1.98619 12.4696L4.24381 14.4789C4.25871 14.4917 4.27051 14.5077 4.27834 14.5257C4.28617 14.5437 4.28983 14.5632 4.28904 14.5829C4.28824 14.6025 4.28302 14.6217 4.27376 14.639C4.2645 14.6563 4.25144 14.6713 4.23556 14.6829C4.20142 14.7086 4.15974 14.7222 4.11704 14.7215Z" fill="#3DB1D3"/>
<path d="M9.55913 15.6171C9.46882 15.6171 9.39241 15.5589 9.38546 15.483L9.15666 12.7399C9.15015 12.6605 9.22221 12.5915 9.3173 12.5863C9.41238 12.581 9.49574 12.6405 9.50225 12.72L9.73105 15.463C9.73756 15.5424 9.66549 15.6115 9.57041 15.6167L9.55913 15.6171Z" fill="#65CADF"/>
<path d="M8.95696 15.3506C8.92032 15.3527 8.88402 15.3427 8.85355 15.3223C8.82308 15.3018 8.80009 15.272 8.78808 15.2373L8.10558 12.6267C8.08517 12.5486 8.14465 12.4717 8.23583 12.4531C8.327 12.4344 8.42165 12.4856 8.44205 12.5633L9.12455 15.1744C9.14452 15.2521 9.08548 15.3289 8.9917 15.3459C8.98027 15.3484 8.96865 15.35 8.95696 15.3506Z" fill="#4D64AE"/>
<path d="M12.3416 15.409C12.3223 15.4089 12.3031 15.4067 12.2843 15.4024C12.1688 15.376 12.1011 15.277 12.1328 15.181L13.0072 12.5292C13.0389 12.4332 13.1578 12.3768 13.2733 12.4028C13.3888 12.4289 13.4566 12.5283 13.4249 12.6243L12.5505 15.2761C12.5338 15.3172 12.5047 15.352 12.4672 15.3759C12.4298 15.3997 12.3859 15.4112 12.3416 15.409Z" fill="#3DB1D3"/>
<path d="M11.0951 15.3824H11.083C10.9875 15.3772 10.9154 15.3082 10.9223 15.2287L11.1507 12.4857C11.1577 12.4063 11.2397 12.3459 11.3357 12.352C11.4316 12.3581 11.5032 12.4262 11.4967 12.5057L11.2679 15.2487C11.2607 15.2884 11.239 15.3239 11.2071 15.3486C11.1752 15.3733 11.1353 15.3853 11.0951 15.3824Z" fill="#65CADF"/>
<path d="M11.586 15.2449C11.5736 15.2448 11.5613 15.2436 11.5491 15.2414C11.4558 15.2245 11.3963 15.1476 11.4189 15.0699L12.1014 12.4593C12.1218 12.3816 12.2138 12.3321 12.3076 12.349C12.4014 12.366 12.4604 12.4428 12.4378 12.5205L11.7553 15.1311C11.7433 15.1659 11.7203 15.1958 11.6897 15.2163C11.6592 15.2369 11.6228 15.2469 11.586 15.2449Z" fill="#4D64AE"/>
<path d="M10.3688 15.545H10.3584C10.2629 15.5402 10.19 15.4716 10.1956 15.3921L10.3858 12.7255C10.3919 12.6456 10.4726 12.5857 10.5694 12.5901C10.6662 12.5944 10.7374 12.663 10.7318 12.7425L10.5399 15.4095C10.536 15.4868 10.4596 15.545 10.3688 15.545Z" fill="#4D64AE"/>
<path d="M3.09621 14.869C3.05289 14.8708 3.01001 14.8597 2.9731 14.8369C2.93619 14.8142 2.90694 14.7809 2.88911 14.7414C2.15625 12.7286 2.15625 12.6813 2.15625 12.647C2.15625 12.5476 2.25307 12.4668 2.37333 12.4668C2.48317 12.4668 2.57434 12.535 2.58824 12.6235C2.6208 12.7473 3.0428 13.9186 3.30416 14.6367C3.3389 14.7318 3.27421 14.8325 3.15959 14.8612C3.1389 14.8666 3.11759 14.8692 3.09621 14.869Z" fill="#22959C"/>
<path d="M16.7013 14.9393C16.68 14.9395 16.6589 14.9369 16.6383 14.9315C16.5237 14.9028 16.459 14.8012 16.4938 14.707C16.7543 13.9889 17.1771 12.8176 17.2101 12.6938C17.224 12.607 17.3148 12.5371 17.4246 12.5371C17.5444 12.5371 17.6417 12.6179 17.6417 12.7173C17.6417 12.7516 17.6417 12.7989 16.9088 14.8117C16.891 14.8513 16.8616 14.8846 16.8246 14.9074C16.7876 14.9301 16.7447 14.9412 16.7013 14.9393Z" fill="#22959C"/>
<path d="M3.39555 15.0984C3.34869 15.1012 3.30225 15.0882 3.26368 15.0614C3.22511 15.0346 3.19663 14.9957 3.18281 14.9508C3.18281 14.9452 2.82984 13.2663 2.79728 13.0774C2.73389 12.711 2.72304 12.6216 2.83505 12.5447C2.8812 12.5143 2.9362 12.5002 2.99127 12.5047C3.04635 12.5092 3.09834 12.532 3.13896 12.5695C3.15969 12.5891 3.17468 12.6141 3.18233 12.6416C3.18997 12.6691 3.18999 12.6982 3.18238 12.7258C3.18716 12.9185 3.43115 14.0912 3.60786 14.8853C3.62957 14.983 3.55185 15.0772 3.43419 15.0954C3.42139 15.0972 3.40848 15.0982 3.39555 15.0984Z" fill="#65CADF"/>
<path d="M4.73221 15.1366C4.70667 15.1372 4.68128 15.1325 4.65761 15.1228C4.63394 15.1132 4.6125 15.0988 4.59458 15.0806L2.34737 12.6563C2.33394 12.6418 2.32397 12.6245 2.3182 12.6057C2.31243 12.5868 2.31102 12.5669 2.31407 12.5474C2.31712 12.5279 2.32456 12.5094 2.33582 12.4932C2.34708 12.477 2.36186 12.4636 2.37907 12.454C2.41659 12.4304 2.46097 12.4202 2.50502 12.425C2.54907 12.4298 2.5902 12.4493 2.62176 12.4804L4.87071 14.9048C4.88407 14.9192 4.894 14.9364 4.89975 14.9552C4.90551 14.974 4.90694 14.9939 4.90393 15.0133C4.90092 15.0327 4.89356 15.0512 4.88239 15.0674C4.87122 15.0835 4.85654 15.097 4.83945 15.1067C4.80738 15.1269 4.77011 15.1373 4.73221 15.1366Z" fill="#4D64AE"/>
<path d="M3.75965 15.288C3.64807 15.288 3.55343 15.2168 3.54257 15.123L3.29771 12.7425C3.28729 12.6435 3.37586 12.5563 3.49482 12.5476C3.61378 12.5389 3.71884 12.6127 3.72926 12.7117L3.97413 15.0922C3.98455 15.1912 3.89598 15.2784 3.77702 15.2871L3.75965 15.288Z" fill="#22959C"/>
<path d="M4.95807 15.0795C4.92487 15.0803 4.89188 15.074 4.86132 15.061C4.83077 15.0479 4.80336 15.0285 4.78094 15.004L2.86759 12.762C2.85138 12.7433 2.83968 12.721 2.83341 12.6971C2.82713 12.6731 2.82644 12.648 2.83139 12.6237C2.83634 12.5994 2.8468 12.5766 2.86196 12.557C2.87711 12.5374 2.89657 12.5215 2.91883 12.5106C2.96689 12.4823 3.02316 12.4711 3.07839 12.479C3.13363 12.4869 3.18454 12.5134 3.22274 12.554L5.13651 14.7952C5.15273 14.8139 5.16442 14.8361 5.1707 14.8601C5.17698 14.8841 5.17767 14.9092 5.17272 14.9335C5.16777 14.9577 5.15731 14.9806 5.14215 15.0002C5.12699 15.0198 5.10753 15.0356 5.08528 15.0465C5.04657 15.0687 5.00266 15.0801 4.95807 15.0795Z" fill="#3DB1D3"/>
<path d="M4.29885 15.4231C4.18814 15.4231 4.09349 15.3528 4.08177 15.259C3.96498 14.1914 3.8343 12.8885 3.87467 12.7452C3.90159 12.648 4.01795 12.5876 4.13517 12.6102C4.25239 12.6328 4.32012 12.7244 4.29885 12.8186C4.28365 12.9653 4.39784 14.1645 4.51593 15.2264C4.52678 15.3259 4.43865 15.4131 4.31969 15.4223L4.29885 15.4231ZM4.29885 12.8208V12.8268C4.29885 12.8268 4.29928 12.8234 4.29972 12.8208H4.29885Z" fill="#65CADF"/>
<path d="M5.57136 15.2597C5.54422 15.2603 5.51728 15.255 5.49245 15.244C5.46761 15.2331 5.44549 15.2168 5.42766 15.1963L3.36497 12.6608C3.3525 12.6454 3.3437 12.6274 3.33926 12.6081C3.33481 12.5888 3.33483 12.5687 3.33931 12.5494C3.34379 12.5301 3.35261 12.5121 3.36511 12.4967C3.37761 12.4813 3.39344 12.469 3.41142 12.4607C3.44998 12.439 3.49475 12.431 3.53842 12.438C3.5821 12.445 3.62211 12.4666 3.65195 12.4993L5.71464 15.0348C5.72711 15.0502 5.73589 15.0682 5.74034 15.0875C5.74479 15.1068 5.74477 15.1269 5.74029 15.1462C5.73581 15.1655 5.72699 15.1835 5.71449 15.1989C5.702 15.2143 5.68615 15.2266 5.66818 15.2349C5.63851 15.2512 5.60521 15.2597 5.57136 15.2597Z" fill="#4D64AE"/>
<path d="M4.83862 15.4234C4.72357 15.4234 4.62762 15.3474 4.62154 15.2497C4.57812 14.3948 4.50084 12.9947 4.47913 12.8779C4.4609 12.7798 4.54165 12.6873 4.65931 12.6721C4.77697 12.6569 4.88811 12.7229 4.90678 12.821C4.93847 12.9851 5.03703 14.8616 5.05439 15.2345C5.0596 15.3339 4.96756 15.4182 4.8473 15.4221L4.83862 15.4234Z" fill="#22959C"/>
<path d="M5.93437 15.1407C5.90688 15.1414 5.8796 15.1358 5.85452 15.1246C5.82943 15.1133 5.80718 15.0966 5.78937 15.0756L3.97328 12.7785C3.96099 12.7629 3.95242 12.7447 3.94824 12.7253C3.94406 12.7059 3.94436 12.6858 3.94914 12.6665C3.95391 12.6472 3.96303 12.6293 3.97579 12.6141C3.98856 12.5989 4.00463 12.5868 4.02278 12.5788C4.06157 12.5575 4.10642 12.55 4.15001 12.5575C4.19361 12.565 4.23339 12.587 4.26286 12.62L6.07895 14.9172C6.09124 14.9327 6.09981 14.9509 6.10399 14.9703C6.10818 14.9898 6.10787 15.0099 6.10309 15.0291C6.09832 15.0484 6.0892 15.0663 6.07644 15.0815C6.06368 15.0967 6.04761 15.1088 6.02946 15.1169C6.00025 15.1326 5.96756 15.1408 5.93437 15.1407Z" fill="#3DB1D3"/>
<path d="M5.3125 15.4232C5.19788 15.4232 5.10237 15.349 5.09542 15.2526L4.93782 12.8599C4.93131 12.7605 5.02465 12.6759 5.14231 12.6702C5.25997 12.6646 5.36416 12.741 5.37068 12.8404L5.52784 15.2331C5.53435 15.3325 5.44101 15.4176 5.32335 15.4228L5.3125 15.4232Z" fill="#65CADF"/>
<path d="M6.50317 15.3512C6.47424 15.3521 6.44553 15.346 6.41941 15.3335C6.39329 15.3211 6.37051 15.3026 6.35295 15.2796L4.50777 12.6312C4.49633 12.6148 4.48882 12.596 4.48583 12.5762C4.48285 12.5564 4.48446 12.5362 4.49055 12.5171C4.49664 12.498 4.50704 12.4806 4.52094 12.4662C4.53485 12.4519 4.55188 12.4409 4.57073 12.4341C4.61024 12.4146 4.65526 12.4091 4.6983 12.4187C4.74134 12.4282 4.77981 12.4522 4.80734 12.4866L6.65295 15.135C6.66431 15.1514 6.67175 15.1702 6.67469 15.19C6.67763 15.2097 6.67599 15.2298 6.66991 15.2489C6.66383 15.2679 6.65346 15.2852 6.6396 15.2996C6.62575 15.3139 6.60878 15.3249 6.59 15.3317C6.56293 15.3447 6.53323 15.3514 6.50317 15.3512Z" fill="#4D64AE"/>
<path d="M6.10928 15.4231C5.99727 15.4231 5.90262 15.3514 5.8922 15.2572L5.6647 12.8641C5.65559 12.7651 5.74459 12.6783 5.86355 12.6705C5.98251 12.6627 6.08714 12.7365 6.0967 12.8359L6.3242 15.2286C6.33375 15.328 6.24474 15.4148 6.12535 15.4226L6.10928 15.4231Z" fill="#22959C"/>
<path d="M7.12719 15.3384C7.09116 15.3393 7.05542 15.3317 7.02289 15.3162C6.99037 15.3006 6.96199 15.2776 6.94007 15.249L5.27203 12.8754C5.21125 12.7886 5.24642 12.6792 5.34931 12.6288C5.39873 12.6043 5.45503 12.5973 5.50894 12.6091C5.56284 12.6209 5.61113 12.6506 5.64584 12.6935L7.31388 15.0671C7.37467 15.1539 7.33993 15.2633 7.2366 15.3137C7.20251 15.3302 7.16508 15.3386 7.12719 15.3384Z" fill="#3DB1D3"/>
<path d="M6.72327 15.4238C6.61169 15.4238 6.51704 15.3526 6.50619 15.2584C6.50619 15.2371 6.29518 13.1219 6.28216 13.0008C6.2713 12.9018 6.35901 12.8141 6.4784 12.8054C6.59779 12.7967 6.70286 12.8692 6.71371 12.9686C6.72673 13.0893 6.93079 15.1394 6.93817 15.2263C6.94772 15.3253 6.85916 15.4125 6.73976 15.4208L6.72327 15.4238Z" fill="#65CADF"/>
<path d="M7.76046 15.4441C7.72973 15.4452 7.69923 15.4383 7.67193 15.4242C7.64463 15.41 7.62144 15.3891 7.60459 15.3633L6.06506 12.7376C6.02165 12.6664 6.05898 12.58 6.14495 12.5448C6.18532 12.5274 6.23046 12.5246 6.27271 12.5367C6.31496 12.5488 6.35173 12.5751 6.37679 12.6112L7.91632 15.2366C7.95973 15.3082 7.9224 15.3946 7.83643 15.4298C7.81221 15.4392 7.78645 15.4441 7.76046 15.4441Z" fill="#4D64AE"/>
<path d="M7.58021 15.6138C7.46907 15.6138 7.37442 15.543 7.36313 15.4488C7.27196 14.5727 7.11393 13.1399 7.07355 12.9776C7.06563 12.9568 7.0619 12.9348 7.06258 12.9126C7.06325 12.8904 7.06832 12.8686 7.07749 12.8484C7.08666 12.8282 7.09974 12.8101 7.11598 12.795C7.13222 12.7799 7.1513 12.7681 7.1721 12.7605C7.22167 12.7364 7.27798 12.7301 7.33164 12.7426C7.3853 12.7551 7.43305 12.7856 7.4669 12.8291C7.49599 12.8725 7.53593 12.9307 7.79469 15.4162C7.80511 15.5152 7.71698 15.6025 7.59758 15.6112L7.58021 15.6138Z" fill="#22959C"/>
<path d="M8.27069 15.479C8.22654 15.4808 8.18289 15.4691 8.14557 15.4454C8.10826 15.4218 8.07905 15.3873 8.06186 15.3466L7.18746 12.6947C7.15576 12.5988 7.22393 12.4998 7.33898 12.4733C7.45403 12.4468 7.57386 12.5033 7.60512 12.5997L8.47952 15.2511C8.51121 15.347 8.44348 15.4464 8.328 15.4725C8.30923 15.477 8.28999 15.4792 8.27069 15.479Z" fill="#3DB1D3"/>
<path d="M8.27138 15.6107C8.15633 15.6107 8.06038 15.5351 8.0543 15.437C8.0543 15.4309 8.02001 14.8244 7.99222 14.2214C7.93144 12.9072 7.93361 12.9059 8.05561 12.8321C8.10345 12.8043 8.15926 12.7935 8.21402 12.8013C8.26878 12.8092 8.31928 12.8353 8.35735 12.8755C8.3756 12.8956 8.38822 12.9201 8.39394 12.9467C8.39965 12.9732 8.39826 13.0008 8.38991 13.0266C8.37341 13.2141 8.44027 14.5817 8.48672 15.4179C8.49237 15.5173 8.39989 15.602 8.2805 15.6063L8.27138 15.6107Z" fill="#65CADF"/>
<path d="M9.08091 15.7067C8.96412 15.7067 8.86774 15.629 8.86383 15.533L8.78134 12.9897C8.77787 12.8903 8.87251 12.8074 8.99191 12.8048C9.1113 12.8021 9.21116 12.8807 9.2142 12.9784L9.29756 15.5195C9.30103 15.619 9.20682 15.7019 9.08699 15.7049L9.08091 15.7067Z" fill="#22959C"/>
<path d="M16.5217 14.9691C16.5098 14.9691 16.4979 14.9682 16.4861 14.9665C16.368 14.9504 16.2881 14.8575 16.3076 14.7594C16.4548 14.0192 16.6901 12.8122 16.7036 12.6859C16.7036 12.5969 16.7826 12.5192 16.892 12.5074C17.0105 12.4944 17.1191 12.5639 17.1347 12.6624C17.1403 12.6967 17.1473 12.7432 16.7348 14.818C16.7175 14.9062 16.6259 14.9691 16.5217 14.9691Z" fill="#65CADF"/>
<path d="M15.8049 15.0312C15.7676 15.0316 15.7309 15.0212 15.6994 15.0012C15.6822 14.9916 15.6674 14.9781 15.6561 14.9619C15.6449 14.9458 15.6374 14.9272 15.6344 14.9077C15.6313 14.8883 15.6327 14.8683 15.6385 14.8495C15.6443 14.8306 15.6543 14.8133 15.6677 14.7989L17.9149 12.3745C17.9467 12.3436 17.9879 12.3242 18.032 12.3195C18.076 12.3148 18.1204 12.325 18.158 12.3485C18.1752 12.3582 18.1899 12.3716 18.2012 12.3878C18.2124 12.404 18.2198 12.4226 18.2228 12.4421C18.2258 12.4615 18.2243 12.4814 18.2185 12.5003C18.2127 12.5191 18.2027 12.5364 18.1893 12.5508L15.9421 14.9751C15.9243 14.9934 15.9029 15.0078 15.8793 15.0174C15.8557 15.0271 15.8304 15.0317 15.8049 15.0312Z" fill="#4D64AE"/>
<path d="M16.2094 15.1688C16.2023 15.1692 16.1952 15.1692 16.1881 15.1688C16.0691 15.1596 15.9819 15.0715 15.9932 14.9721C16.0865 14.1684 16.2068 12.9823 16.1916 12.7904C16.1811 12.7639 16.178 12.7351 16.1828 12.707C16.1875 12.6789 16.1999 12.6527 16.2185 12.6311C16.2562 12.5906 16.3064 12.564 16.3611 12.5556C16.4158 12.5472 16.4717 12.5574 16.5198 12.5846C16.6392 12.6532 16.6379 12.7431 16.6132 13.1126C16.6001 13.3032 16.4252 15.0012 16.4247 15.0068C16.4139 15.0993 16.3197 15.1688 16.2094 15.1688Z" fill="#22959C"/>
<path d="M15.591 14.9734C15.5471 14.9737 15.5039 14.9622 15.466 14.94C15.4436 14.9292 15.4241 14.9133 15.4089 14.8937C15.3937 14.8741 15.3832 14.8513 15.3783 14.827C15.3733 14.8026 15.374 14.7775 15.3803 14.7535C15.3867 14.7295 15.3984 14.7073 15.4147 14.6886L17.3281 12.4466C17.3663 12.406 17.4172 12.3795 17.4724 12.3716C17.5276 12.3637 17.5839 12.3749 17.632 12.4032C17.6542 12.4142 17.6736 12.4301 17.6887 12.4497C17.7038 12.4693 17.7142 12.4921 17.7192 12.5163C17.7241 12.5406 17.7234 12.5657 17.7172 12.5896C17.711 12.6136 17.6993 12.6358 17.6832 12.6546L15.7694 14.8961C15.747 14.9212 15.7195 14.941 15.6887 14.9544C15.6579 14.9677 15.6246 14.9742 15.591 14.9734Z" fill="#3DB1D3"/>
<path d="M15.6388 15.2869C15.6314 15.2873 15.624 15.2873 15.6166 15.2869C15.4977 15.2769 15.4109 15.1884 15.423 15.0894L15.7135 12.7128C15.7256 12.6138 15.832 12.5417 15.9509 12.5517C16.0699 12.5617 16.1567 12.6503 16.1446 12.7492L15.8559 15.125C15.8446 15.2179 15.7504 15.2869 15.6388 15.2869Z" fill="#65CADF"/>
<path d="M14.9694 15.1524C14.9356 15.1524 14.9023 15.1439 14.8726 15.1276C14.8546 15.1193 14.8387 15.107 14.8261 15.0915C14.8136 15.0761 14.8047 15.0581 14.8002 15.0387C14.7958 15.0193 14.7958 14.9992 14.8002 14.9799C14.8047 14.9605 14.8136 14.9424 14.8262 14.927L16.8884 12.3915C16.9184 12.359 16.9585 12.3375 17.0023 12.3306C17.046 12.3236 17.0908 12.3316 17.1294 12.3533C17.1474 12.3617 17.1632 12.374 17.1757 12.3894C17.1882 12.4047 17.197 12.4228 17.2015 12.4421C17.206 12.4614 17.206 12.4814 17.2015 12.5007C17.1971 12.52 17.1883 12.5381 17.1758 12.5535L15.1131 15.089C15.0953 15.1094 15.0731 15.1256 15.0483 15.1365C15.0235 15.1475 14.9966 15.1529 14.9694 15.1524Z" fill="#4D64AE"/>
<path d="M14.6072 15.0702C14.5657 15.0704 14.5248 15.0602 14.4882 15.0407C14.3884 14.986 14.3606 14.8744 14.4261 14.791L16.2422 12.4939C16.279 12.4526 16.3287 12.425 16.3832 12.4157C16.4377 12.4063 16.4938 12.4156 16.5422 12.4422C16.6421 12.4969 16.6699 12.6085 16.6043 12.6919L14.7882 14.989C14.766 15.0152 14.7383 15.0361 14.7069 15.0502C14.6756 15.0642 14.6415 15.0711 14.6072 15.0702Z" fill="#3DB1D3"/>
<path d="M15.2247 15.3242C15.2173 15.3246 15.21 15.3246 15.2026 15.3242C15.0836 15.3142 14.9968 15.2256 15.0089 15.1266C15.1392 14.0664 15.2668 12.869 15.2529 12.7205C15.2334 12.6263 15.3059 12.5347 15.4197 12.5139C15.5334 12.493 15.6519 12.5538 15.6802 12.651C15.7184 12.7948 15.5721 14.0964 15.4422 15.1631C15.4288 15.2551 15.335 15.3242 15.2247 15.3242ZM15.2534 12.7223C15.2533 12.7241 15.2533 12.726 15.2534 12.7279C15.2531 12.726 15.2531 12.7241 15.2534 12.7223Z" fill="#22959C"/>
<path d="M14.0404 15.2458C14.0103 15.2458 13.9807 15.2391 13.9535 15.2263C13.9347 15.2195 13.9177 15.2085 13.9038 15.1941C13.8898 15.1797 13.8794 15.1623 13.8734 15.1433C13.8673 15.1242 13.8657 15.104 13.8686 15.0842C13.8716 15.0644 13.8791 15.0456 13.8906 15.0292L15.7358 12.3808C15.7635 12.3465 15.802 12.3226 15.8451 12.3131C15.8882 12.3036 15.9333 12.3091 15.9728 12.3287C15.9916 12.3355 16.0086 12.3464 16.0224 12.3608C16.0363 12.3752 16.0466 12.3925 16.0527 12.4115C16.0588 12.4305 16.0604 12.4507 16.0575 12.4704C16.0546 12.4902 16.0471 12.509 16.0358 12.5254L14.1902 15.1737C14.1727 15.1968 14.1501 15.2154 14.124 15.2279C14.0979 15.2405 14.0693 15.2466 14.0404 15.2458Z" fill="#4D64AE"/>
<path d="M14.5531 15.4151C14.5447 15.4155 14.5363 15.4155 14.5279 15.4151C14.409 15.4038 14.3239 15.3143 14.3373 15.2158C14.3886 14.8433 14.646 12.979 14.692 12.8171C14.7194 12.7202 14.8357 12.6599 14.9525 12.6825C15.0693 12.705 15.1414 12.8023 15.114 12.8995C15.0824 13.015 14.8852 14.4065 14.7667 15.257C14.7572 15.3473 14.6634 15.4151 14.5531 15.4151Z" fill="#65CADF"/>
<path d="M13.4116 15.237C13.3739 15.237 13.3367 15.2286 13.3027 15.2123C13.1993 15.1619 13.1646 15.0516 13.2249 14.9657L14.8934 12.5921C14.928 12.5491 14.9762 12.5193 15.0301 12.5075C15.0839 12.4957 15.1402 12.5028 15.1895 12.5274C15.2928 12.5778 15.3276 12.6881 15.2672 12.774L13.5983 15.1476C13.5764 15.1761 13.5481 15.1991 13.5157 15.2146C13.4832 15.2302 13.4476 15.2378 13.4116 15.237Z" fill="#3DB1D3"/>
<path d="M13.8106 15.4815C13.801 15.4821 13.7912 15.4821 13.7816 15.4815C13.663 15.468 13.5797 15.3773 13.5957 15.2787L13.9813 12.9043C13.9973 12.8053 14.1067 12.7363 14.2248 12.7497C14.3429 12.7632 14.4267 12.8535 14.4106 12.9525L14.0251 15.3269C14.0104 15.4159 13.9174 15.4815 13.8106 15.4815Z" fill="#22959C"/>
<path d="M12.7828 15.3386C12.7568 15.3387 12.731 15.3337 12.7068 15.3239C12.62 15.2891 12.5853 15.2027 12.627 15.1311L14.1665 12.5057C14.1915 12.4696 14.2283 12.4433 14.2706 12.4312C14.3128 12.4191 14.3579 12.422 14.3983 12.4393C14.4852 12.4745 14.5199 12.5604 14.4778 12.6321L12.9387 15.2574C12.9218 15.2832 12.8986 15.3042 12.8713 15.3184C12.8441 15.3326 12.8136 15.3396 12.7828 15.3386Z" fill="#4D64AE"/>
<path d="M13.1885 15.4255H13.1738C13.0526 15.4186 12.961 15.3313 12.9693 15.2306L13.1685 12.7698C13.1768 12.669 13.2814 12.5935 13.4026 12.6C13.5237 12.6065 13.6149 12.6938 13.6066 12.7945L13.4078 15.2553C13.4 15.3513 13.3031 15.4255 13.1885 15.4255Z" fill="#65CADF"/>
<path d="M12.4043 15.7297H12.3965C12.2766 15.7262 12.1833 15.6429 12.1876 15.543C12.192 15.4431 12.291 13.0922 12.2975 12.9706C12.3031 12.8712 12.4047 12.7943 12.5237 12.7969C12.6426 12.7995 12.736 12.8838 12.7303 12.9854C12.7238 13.1048 12.6214 15.5295 12.6205 15.5538C12.6162 15.6528 12.5202 15.7297 12.4043 15.7297Z" fill="#22959C"/>
<path d="M11.7405 15.6186C11.6207 15.6186 11.5234 15.5375 11.5234 15.438C11.5286 12.9429 11.5625 12.8817 11.5868 12.837C11.617 12.7912 11.662 12.7573 11.7144 12.7411C11.7667 12.7249 11.8231 12.7273 11.8738 12.748C11.9706 12.7845 12.0193 12.873 11.9941 12.9559C11.9706 13.1201 11.9585 14.5589 11.9567 15.4385C11.9567 15.5388 11.8599 15.6186 11.7405 15.6186Z" fill="#3DB1D3"/>
<path d="M10.9784 15.6605C10.8634 15.6605 10.7674 15.5845 10.7614 15.4868C10.7179 14.6502 10.6359 13.2831 10.5994 13.099C10.5883 13.0744 10.584 13.0472 10.5868 13.0204C10.5896 12.9935 10.5995 12.9679 10.6155 12.9461C10.65 12.9031 10.6981 12.8731 10.752 12.8612C10.8058 12.8493 10.8621 12.8561 10.9116 12.8806C11.0418 12.9435 11.0418 12.9444 11.1247 14.2577C11.1621 14.8595 11.1938 15.4664 11.1942 15.4734C11.1994 15.5732 11.1074 15.657 10.9871 15.6614L10.9784 15.6605Z" fill="#22959C"/>
<path d="M9.78743 15.6549C9.78064 15.6554 9.77383 15.6554 9.76703 15.6549C9.64764 15.6458 9.56037 15.5581 9.57122 15.4587L9.85647 12.9275C9.86776 12.8285 9.97326 12.7539 10.0922 12.7647C10.2112 12.7756 10.2989 12.862 10.2876 12.961L10.0028 15.4925C9.99236 15.585 9.89771 15.6549 9.78743 15.6549Z" fill="#3DB1D3"/>
<path d="M9.99797 10.1469C3.52422 10.1469 0.511154 9.77183 0.385682 9.7562C0.137343 9.7245 -0.0328478 9.5313 0.00535821 9.32464C0.0435642 9.11798 0.275405 8.97732 0.523744 9.00814C0.553701 9.01205 3.60628 9.39064 9.99797 9.39064C16.4027 9.39064 19.4626 9.11191 19.4943 9.10887C19.744 9.08586 19.9689 9.23521 19.9971 9.44273C20.0253 9.65026 19.8456 9.83782 19.5959 9.86126C19.4709 9.87168 16.4648 10.1469 9.99797 10.1469Z" fill="#22959C"/>
<path d="M9.40804 13.1239C4.7582 13.1239 1.41951 12.6393 1.38347 12.6341C1.136 12.5977 0.971022 12.401 1.01487 12.1952C1.05872 11.9894 1.29491 11.8522 1.54238 11.8887C1.57841 11.8939 5.22318 12.4214 10.1895 12.3619C15.1745 12.3024 18.3912 11.9629 18.4233 11.9595C18.6726 11.933 18.9009 12.0793 18.9326 12.2868C18.9643 12.4943 18.7889 12.6836 18.5419 12.7105C18.5093 12.714 15.2462 13.0579 10.206 13.1191C9.93511 13.1223 9.66911 13.1239 9.40804 13.1239Z" fill="#22959C"/>
<path d="M9.49522 15.8135C5.00732 15.8135 2.81872 15.3793 2.72234 15.362C2.47834 15.3125 2.32855 15.1076 2.38803 14.9044C2.44751 14.7012 2.69194 14.5766 2.93681 14.6261C2.96112 14.6313 5.41152 15.1106 10.3496 15.0511C15.2878 14.9916 16.829 14.7385 16.8442 14.7359C17.09 14.6925 17.3305 14.8254 17.3813 15.0298C17.4321 15.2343 17.2753 15.434 17.0296 15.477C16.9662 15.4879 15.4232 15.7475 10.3627 15.8083C10.0648 15.8118 9.77569 15.8135 9.49522 15.8135Z" fill="#22959C"/>
<path d="M0.78125 9.45312C1.62873 9.48786 7.96485 9.76615 8.38728 9.77961C9.23216 9.8061 10.0775 9.82303 10.9262 9.82303C9.2378 9.97976 7.53286 9.96326 5.84007 9.88989C4.99303 9.85342 4.14685 9.79698 3.30372 9.72621C2.46058 9.65544 1.62048 9.56905 0.78125 9.45312Z" fill="#4D64AE"/>
<path d="M1.49219 12.3086C2.31058 12.3759 5.57806 12.6008 6.39558 12.6399L7.62208 12.6911C8.03106 12.7106 8.44004 12.7154 8.84945 12.725C9.66828 12.7436 10.4871 12.7354 11.3098 12.7193C10.4932 12.8168 9.67217 12.873 8.84988 12.8878C8.02672 12.9022 7.20369 12.8891 6.38082 12.8483C5.55794 12.8074 4.73897 12.7429 3.92391 12.6546C3.10813 12.5669 2.29538 12.4553 1.49219 12.3086Z" fill="#4D64AE"/>
<path d="M3.08594 15.1348C3.08594 15.1348 6.09857 15.3223 6.70075 15.3453C7.30293 15.3683 7.90554 15.3887 8.50859 15.3979L10.3234 15.423C9.7225 15.4938 9.11685 15.5394 8.51032 15.5611C8.20641 15.572 7.9025 15.5754 7.59859 15.5746C7.29468 15.5737 6.99077 15.5659 6.68686 15.5537C6.07903 15.5288 5.47439 15.4827 4.87294 15.4152C4.57207 15.3818 4.27163 15.3436 3.9738 15.2958C3.67596 15.2481 3.3803 15.1951 3.08594 15.1348Z" fill="#4D64AE"/>
<defs>
<linearGradient id="paint0_linear_3483_2646" x1="10.4547" y1="11.722" x2="7.62879" y2="11.4005" gradientUnits="userSpaceOnUse">
<stop stop-color="#D1D3D4"/>
<stop offset="0.5" stop-color="white"/>
<stop offset="0.75" stop-color="#EAEBEC"/>
<stop offset="1" stop-color="#D1D3D4"/>
</linearGradient>
<linearGradient id="paint1_linear_3483_2646" x1="8.9701" y1="12.2619" x2="9.05578" y2="11.5087" gradientUnits="userSpaceOnUse">
<stop stop-color="#D1D3D4"/>
<stop offset="0.5" stop-color="white"/>
<stop offset="0.75" stop-color="#EAEBEC"/>
<stop offset="1" stop-color="#D1D3D4"/>
</linearGradient>
<linearGradient id="paint2_linear_3483_2646" x1="10.3057" y1="1.18859" x2="9.19783" y2="10.9269" gradientUnits="userSpaceOnUse">
<stop stop-color="#D1D3D4"/>
<stop offset="0.5" stop-color="white"/>
<stop offset="0.75" stop-color="#EAEBEC"/>
<stop offset="1" stop-color="#D1D3D4"/>
</linearGradient>
<linearGradient id="paint3_linear_3483_2646" x1="7.62428" y1="5.82573" x2="11.8324" y2="6.30444" gradientUnits="userSpaceOnUse">
<stop stop-color="#FDBF61"/>
<stop offset="0.35" stop-color="#FFF791"/>
<stop offset="0.51" stop-color="#FDD368"/>
<stop offset="0.64" stop-color="#FCBA4B"/>
<stop offset="0.72" stop-color="#FBB040"/>
<stop offset="1" stop-color="#F5841F"/>
</linearGradient>
<linearGradient id="paint4_linear_3483_2646" x1="7.30938" y1="0.485806" x2="13.3646" y2="1.17464" gradientUnits="userSpaceOnUse">
<stop stop-color="#D1D3D4"/>
<stop offset="0.15" stop-color="#DBDCDD"/>
<stop offset="0.41" stop-color="#F5F5F6"/>
<stop offset="0.5" stop-color="white"/>
<stop offset="0.55" stop-color="#F9F9F9"/>
<stop offset="0.84" stop-color="#DCDDDE"/>
<stop offset="1" stop-color="#D1D3D4"/>
</linearGradient>
<linearGradient id="paint5_linear_3483_2646" x1="8.22316" y1="1.19017" x2="7.55498" y2="7.0638" gradientUnits="userSpaceOnUse">
<stop stop-color="#D1D3D4"/>
<stop offset="0.5" stop-color="white"/>
<stop offset="0.75" stop-color="#EAEBEC"/>
<stop offset="1" stop-color="#D1D3D4"/>
</linearGradient>
<linearGradient id="paint6_linear_3483_2646" x1="2.41233" y1="9.03045" x2="7.57823" y2="7.7156" gradientUnits="userSpaceOnUse">
<stop offset="0.02" stop-color="#D1D3D4"/>
<stop offset="0.5" stop-color="white"/>
<stop offset="0.73" stop-color="#EAEBEC"/>
<stop offset="0.97" stop-color="#D1D3D4"/>
</linearGradient>
<linearGradient id="paint7_linear_3483_2646" x1="3.06335" y1="10.1521" x2="7.5527" y2="9.00943" gradientUnits="userSpaceOnUse">
<stop stop-color="#FDBF61"/>
<stop offset="0.35" stop-color="#FFF791"/>
<stop offset="0.51" stop-color="#FDD368"/>
<stop offset="0.64" stop-color="#FCBA4B"/>
<stop offset="0.72" stop-color="#FBB040"/>
<stop offset="1" stop-color="#F5841F"/>
</linearGradient>
<linearGradient id="paint8_linear_3483_2646" x1="2.30272" y1="7.69421" x2="6.79207" y2="6.55155" gradientUnits="userSpaceOnUse">
<stop stop-color="#D1D3D4"/>
<stop offset="0.5" stop-color="white"/>
<stop offset="0.75" stop-color="#EAEBEC"/>
<stop offset="1" stop-color="#D1D3D4"/>
</linearGradient>
<linearGradient id="paint9_linear_3483_2646" x1="2.29513" y1="4.37988" x2="5.40274" y2="3.58891" gradientUnits="userSpaceOnUse">
<stop stop-color="#D16A1E"/>
<stop offset="0.22" stop-color="#FDBF61"/>
<stop offset="0.32" stop-color="#FECE69"/>
<stop offset="0.43" stop-color="#FFD96F"/>
<stop offset="0.46" stop-color="#FED368"/>
<stop offset="0.57" stop-color="#FCB94B"/>
<stop offset="0.64" stop-color="#FBB040"/>
<stop offset="0.8" stop-color="#E0842C"/>
<stop offset="0.93" stop-color="#CF671F"/>
<stop offset="1" stop-color="#C85C1A"/>
</linearGradient>
<linearGradient id="paint10_linear_3483_2646" x1="11.2739" y1="9.61944" x2="17.226" y2="10.8164" gradientUnits="userSpaceOnUse">
<stop stop-color="#D1D3D4"/>
<stop offset="0.5" stop-color="white"/>
<stop offset="0.75" stop-color="#EAEBEC"/>
<stop offset="1" stop-color="#D1D3D4"/>
</linearGradient>
<linearGradient id="paint11_linear_3483_2646" x1="11.6266" y1="9.71247" x2="16.873" y2="10.7675" gradientUnits="userSpaceOnUse">
<stop stop-color="#FDBF61"/>
<stop offset="0.35" stop-color="#FFF791"/>
<stop offset="0.51" stop-color="#FDD368"/>
<stop offset="0.64" stop-color="#FCBA4B"/>
<stop offset="0.72" stop-color="#FBB040"/>
<stop offset="1" stop-color="#F5841F"/>
</linearGradient>
<linearGradient id="paint12_linear_3483_2646" x1="14.1983" y1="4.6294" x2="16.4619" y2="5.08458" gradientUnits="userSpaceOnUse">
<stop stop-color="#D1D3D4"/>
<stop offset="0.5" stop-color="white"/>
<stop offset="0.64" stop-color="#F7F7F8"/>
<stop offset="0.87" stop-color="#E1E2E3"/>
<stop offset="1" stop-color="#D1D3D4"/>
</linearGradient>
<radialGradient id="paint13_radial_3483_2646" cx="0" cy="0" r="1" gradientUnits="userSpaceOnUse" gradientTransform="translate(7.39416 0.876706) rotate(11.5346) scale(1.07606 0.187805)">
<stop offset="0.17" stop-color="#D1D3D4"/>
<stop offset="0.57" stop-color="white"/>
<stop offset="0.97" stop-color="#D1D3D4"/>
</radialGradient>
<radialGradient id="paint14_radial_3483_2646" cx="0" cy="0" r="1" gradientUnits="userSpaceOnUse" gradientTransform="translate(7.39416 0.876706) rotate(11.5346) scale(1.07606 0.187805)">
<stop offset="0.17" stop-color="#D1D3D4"/>
<stop offset="0.57" stop-color="white"/>
<stop offset="0.97" stop-color="#D1D3D4"/>
</radialGradient>
<linearGradient id="paint15_linear_3483_2646" x1="15.4969" y1="4.10299" x2="15.7868" y2="2.66135" gradientUnits="userSpaceOnUse">
<stop stop-color="#FAA53F"/>
<stop offset="0.14" stop-color="#EB9435"/>
<stop offset="0.45" stop-color="#D17624"/>
<stop offset="0.71" stop-color="#C16419"/>
<stop offset="0.9" stop-color="#BB5D15"/>
</linearGradient>
<linearGradient id="paint16_linear_3483_2646" x1="15.3455" y1="2.90195" x2="15.4712" y2="2.27669" gradientUnits="userSpaceOnUse">
<stop offset="0.1" stop-color="#BB5D15"/>
<stop offset="0.29" stop-color="#C16419"/>
<stop offset="0.55" stop-color="#D17624"/>
<stop offset="0.86" stop-color="#EB9435"/>
<stop offset="1" stop-color="#FAA53F"/>
</linearGradient>
<linearGradient id="paint17_linear_3483_2646" x1="15.431" y1="2.79538" x2="15.5184" y2="2.3608" gradientUnits="userSpaceOnUse">
<stop stop-color="#D1D3D4"/>
<stop offset="0.5" stop-color="white"/>
<stop offset="0.75" stop-color="#EAEBEC"/>
<stop offset="1" stop-color="#D1D3D4"/>
</linearGradient>
<linearGradient id="paint18_linear_3483_2646" x1="12.0181" y1="7.10044" x2="17.6829" y2="8.23958" gradientUnits="userSpaceOnUse">
<stop stop-color="#D1D3D4"/>
<stop offset="0.5" stop-color="white"/>
<stop offset="0.75" stop-color="#EAEBEC"/>
<stop offset="1" stop-color="#D1D3D4"/>
</linearGradient>
</defs>
</svg>
