<svg width="14" height="25" viewBox="0 0 14 25" fill="none" xmlns="http://www.w3.org/2000/svg">
<path d="M8.86916 4.49805H4.43555L2.21875 6.75846L2.52966 7.07626H3.44048L2.79338 6.44232L4.64114 4.63116H8.33497L10.1827 6.44232L9.53564 7.07626H9.97209H10.7759L11.0868 6.75846L8.86916 4.49805Z" fill="#71AA49"/>
<path d="M8.33847 4.63086H4.64463L2.79688 6.44202L3.44397 7.07596H4.40534L3.37151 6.12338L4.85022 4.76314H7.80512L9.28214 6.12338L8.24999 7.07596H9.53913L10.1862 6.44202L8.33847 4.63086Z" fill="#88B64D"/>
<path d="M7.14745 4.99609H5.17584L4.1875 5.80808L5.17247 6.61507H7.14745L8.13242 5.80475L7.14745 4.99609ZM7.02444 6.51856H5.2938L4.43269 5.80808L5.2938 5.09676H7.02107L7.8847 5.80808L7.02444 6.51856Z" fill="#CCDE5E"/>
<path d="M7.02588 5.0957H5.29861L4.4375 5.80702L5.29861 6.51751H7.02588L7.88951 5.80702L7.02588 5.0957ZM6.90455 6.41601H5.42247L4.68185 5.80702L5.42247 5.1997H6.90455L7.64517 5.80952L6.90455 6.41601Z" fill="#DFE563"/>
<path d="M6.9102 5.19922H5.42812L4.6875 5.80904L5.42812 6.41803H6.9102L7.65082 5.80904L6.9102 5.19922ZM6.78719 6.31487H5.55114L4.93185 5.80654L5.55114 5.29739H6.78719L7.40564 5.80654L6.78719 6.31487Z" fill="#F1EC68"/>
<path d="M6.06397 10.8753H5.20792V12.3437H4.39062V19.59H5.20792V21.0567H6.06734V21.6449H7.56712V21.0567H8.42654V19.59H9.24383V12.3437H8.42654V10.8753H7.56712V10.293H6.06397V10.8753ZM7.51319 10.5043V11.0683H8.31363V12.4827H9.07195V19.4486H8.31363V20.8629H7.51319V21.4261H6.11537V20.8629H5.31493V19.4486H4.55661V12.4802H5.31493V11.0659H6.11537V10.5018L7.51319 10.5043Z" fill="#E4A362"/>
<path d="M6.12126 11.0705H5.32081V12.4848H4.5625V19.4507H5.32081V20.865H6.12126V21.4283H7.51908V20.865H8.31952V19.4507H9.07784V12.4823H8.31952V11.068H7.51908V10.5039H6.12126V11.0705ZM8.20915 11.2643V12.6204H8.91522V19.3143H8.20915V20.6737H7.46768V21.2169H6.17265V20.6737H5.43035V19.3176H4.72512V12.6204H5.43035V11.2643H6.17265V10.721H7.46768V11.2643H8.20915Z" fill="#ECBF8F"/>
<path d="M11.1719 20.8987V19.4769H10.4633V12.4602H11.1719V11.0384H11.9168V10.4702H13.0197C13.0306 10.3987 13.0407 10.3263 13.05 10.2539H11.8713V10.8446H11.0708V12.323H10.3125V19.615H11.0708V21.0934H11.2907C11.2991 21.0285 11.3076 20.9636 11.3168 20.8987H11.1719Z" fill="#E4A362"/>
<path d="M11.2715 19.3393H10.616V12.6005H11.2715V11.2303H11.9624V10.687H12.9878C12.9971 10.6155 13.0072 10.5439 13.0173 10.4707H11.9144V11.0389H11.1695V12.4607H10.4609V19.4774H11.1695V20.8992H11.3128L11.317 20.8626C11.3237 20.811 11.3313 20.7586 11.3381 20.7054H11.2715V19.3393Z" fill="#ECBF8F"/>
<path d="M1.71751 10.4702V11.0384H2.46319V12.4602H3.17179V19.4769H2.46319V20.8987H2.32079L2.34607 21.0934H2.56514V19.615H3.32345V12.323H2.56514V10.8446H1.76554V10.2539H0.585938C0.596891 10.3263 0.607003 10.3987 0.617114 10.4702H1.71751Z" fill="#E4A362"/>
<path d="M1.67124 10.6884V11.235H2.36215V12.6019H3.01936V19.3407H2.36215V20.7067H2.29643C2.30233 20.76 2.30991 20.8124 2.31665 20.864L2.32255 20.9006H2.46495V19.4754H3.17355V12.4588H2.46495V11.037H1.71927V10.4688H0.617188C0.627298 10.542 0.637409 10.6135 0.648362 10.6851L1.67124 10.6884Z" fill="#ECBF8F"/>
<path d="M7.2737 4.89258H5.05774L3.95312 5.80523L5.06111 6.72037H7.27707L8.38505 5.80523L7.2737 4.89258ZM7.15489 6.61222H5.18328L4.19494 5.80523L5.17991 4.99324H7.15489L8.13986 5.80523L7.15489 6.61222Z" fill="#BAD659"/>
<path d="M2.22307 6.75597L4.43988 4.49556H8.87348L11.0911 6.75597L10.7802 7.07378H11.9944L9.40767 4.36328H7.72253H7.2212H6.2632H5.91943H4.23429L1.64844 7.07378H2.53398L2.22307 6.75597Z" fill="#599F45"/>
<path d="M6.81583 7.0765H8.2482L9.27867 6.12391L7.8008 4.76367H4.8459L3.36719 6.12391L4.40102 7.0765H6.81583ZM5.05064 4.89512H7.26661L8.37459 5.81027L7.26661 6.72541H5.05064L3.94603 5.80777L5.05064 4.89512Z" fill="#9FC452"/>
<path d="M1.64229 8.30004H1.97932L0.859538 7.63448L0.825836 7.53381V7.2784H11.8787V7.44479L11.7422 7.63281L10.2256 8.26842L10.1514 8.30004H11.3125L12.4323 7.63448L12.5013 7.35744V7.17773H0.664062V7.48888L0.680914 7.63198L1.64229 8.30004Z" fill="#DF9739"/>
<path d="M11.4262 20.8633H11.3183L11.3141 20.8999C11.3048 20.9648 11.2964 21.0297 11.288 21.0946L11.2812 21.1378H11.3849C11.3992 21.0471 11.4127 20.9556 11.4262 20.8633Z" fill="#DF9739"/>
<path d="M10.9453 20.6261H10.9655V20.4922C10.9605 20.5363 10.9537 20.582 10.9453 20.6261Z" fill="#DF9739"/>
<path d="M2.28125 21.2852C2.40988 22.1271 2.53852 22.9693 2.66715 23.8118H2.87947C2.91571 24.0614 2.95109 24.311 2.98732 24.5564H10.6547C10.6901 24.3074 10.7261 24.0592 10.7626 23.8118H10.9749C11.103 22.9699 11.2316 22.1276 11.3608 21.2852H11.0659C10.9569 21.994 10.8488 22.702 10.7415 23.4091H10.541C10.5064 23.6437 10.4736 23.8783 10.439 24.113H3.20302C3.16848 23.8783 3.13477 23.6437 3.10023 23.4091H2.90054C2.79269 22.7009 2.68428 21.9929 2.57531 21.2852H2.28125Z" fill="#DF9739"/>
<path d="M2.32469 20.8999L2.31879 20.8633H2.21094C2.22526 20.9556 2.23874 21.0471 2.25222 21.1378H2.35586L2.34996 21.0946L2.32469 20.8999Z" fill="#DF9739"/>
<path d="M2.67188 20.6261H2.69126C2.68451 20.582 2.67777 20.5363 2.67188 20.4922V20.6261Z" fill="#DF9739"/>
<path d="M12.5469 11.6945H12.8266C12.8409 11.6014 12.8553 11.509 12.8687 11.4158V11.3867H12.5839C12.5772 11.4899 12.5629 11.5914 12.5469 11.6945Z" fill="#DF9739"/>
<path d="M0.359375 8.74609C0.425096 9.17704 0.489973 9.60883 0.556536 10.0398H0.850594C0.807623 9.75691 0.766336 9.47405 0.720837 9.18952H12.9103C12.8665 9.47405 12.8261 9.75691 12.7806 10.0398H13.0755C13.1401 9.60883 13.2058 9.1776 13.2726 8.74609H0.359375Z" fill="#DF9739"/>
<path d="M1.98942 8.30289H2.53456L1.99195 8.06412L1.04827 7.63982L0.998553 7.58158V7.38441H11.2653V7.53666L11.0614 7.63732L9.57087 7.98841L8.24214 8.30289H10.1624L10.2365 8.27127L11.7531 7.63566L11.8888 7.44764V7.28125H0.835938V7.53583L0.868798 7.63649L1.98942 8.30289Z" fill="#E3A33F"/>
<path d="M10.9693 20.6236H10.9465C10.9524 20.5795 10.9592 20.5337 10.9668 20.4896V19.7559H10.7932C10.7629 19.9672 10.732 20.179 10.7005 20.3915H10.9103C10.7761 21.265 10.6427 22.1383 10.5101 23.0113H10.3214C10.2902 23.2318 10.2573 23.4522 10.2253 23.6727H3.41817C3.38699 23.4522 3.35413 23.2318 3.32212 23.0113H3.13422C3.0011 22.1383 2.86769 21.265 2.734 20.3915H2.94212C2.91094 20.1793 2.88145 19.9672 2.84943 19.7559H2.68092V20.4938C2.68682 20.5379 2.69356 20.5836 2.7003 20.6277H2.68092V21.2891H2.57812C2.68654 21.998 2.79495 22.706 2.90336 23.4131H3.10305C3.13759 23.6477 3.1713 23.8823 3.20584 24.1169H10.441C10.4755 23.8823 10.5084 23.6477 10.5429 23.4131H10.7435C10.8513 22.7048 10.9595 21.9969 11.0679 21.2891H10.9668L10.9693 20.6236Z" fill="#E3A33F"/>
<path d="M0.71875 9.18359C0.762564 9.46812 0.803008 9.75098 0.848507 10.0338H1.14341C1.12234 9.89907 1.10212 9.76263 1.0819 9.62869H12.5459C12.5249 9.76263 12.5038 9.89907 12.4836 10.0338H12.7785C12.8206 9.75098 12.8627 9.46812 12.9082 9.18359H0.71875Z" fill="#E3A33F"/>
<path d="M2.5282 8.29933H8.23577L9.56451 7.98486L11.055 7.63377L11.2589 7.53311V7.38086H0.992188V7.57803L1.0419 7.63627L1.98558 8.06056L2.5282 8.29933ZM1.15312 7.62379V7.48319H10.6363V7.62379L6.69808 7.80349L2.7599 7.98402L1.95693 7.80349L1.15312 7.62379Z" fill="#E7B045"/>
<path d="M1.08594 9.63086C1.10616 9.7648 1.12638 9.90124 1.14744 10.036H1.81729V10.0743H11.8211V10.036H12.491C12.5112 9.90124 12.5323 9.7648 12.5533 9.63086H1.08594Z" fill="#E7B045"/>
<path d="M10.7917 19.7559H10.5128C10.4925 19.8881 10.474 20.0221 10.4538 20.156H10.6493L10.2752 22.6094H10.0999C10.0704 22.8158 10.0401 23.0213 10.0106 23.2293H3.6298C3.60031 23.0213 3.56998 22.8133 3.53964 22.6094H3.35933C3.23519 21.7919 3.11078 20.9741 2.98607 20.156H3.18071C3.16133 20.0221 3.14279 19.8881 3.12257 19.7559H2.84284C2.87485 19.9672 2.90434 20.1793 2.93552 20.3915H2.72656C2.85969 21.265 2.9931 22.1383 3.12678 23.0113H3.31468C3.34669 23.2318 3.37955 23.4522 3.41073 23.6727H10.2204C10.2524 23.4522 10.2853 23.2318 10.3164 23.0113H10.5052C10.6389 22.1383 10.7723 21.265 10.9054 20.3915H10.6956C10.7293 20.1768 10.7613 19.965 10.7917 19.7559Z" fill="#E7B045"/>
<path d="M2.76303 7.98521L6.70121 7.80551L10.6394 7.62497V7.48438H7.80498H5.89824H4.85008H3.52725H1.15625V7.62497L1.95922 7.80551L2.76303 7.98521Z" fill="#EBBD4C"/>
<path d="M10.5077 19.7584H10.1471V19.666C10.1378 19.7251 10.1294 19.7833 10.121 19.8424H10.2987C10.1864 20.5862 10.074 21.3302 9.96171 22.0745H9.80078C9.77381 22.2625 9.74601 22.4506 9.71652 22.6377H3.91289C3.88508 22.4506 3.85728 22.2625 3.82863 22.0745H3.6677L3.32899 19.8416H3.50677L3.48149 19.666V19.7584H3.12087C3.14109 19.8906 3.15963 20.0246 3.17901 20.1585H2.98438C3.10795 20.9766 3.23237 21.7944 3.35763 22.612H3.53457C3.56491 22.8183 3.59524 23.0238 3.62473 23.2318H10.0038C10.0333 23.0238 10.0637 22.8158 10.0931 22.612H10.2701L10.6442 20.1585H10.4487C10.4689 20.0204 10.4875 19.8865 10.5077 19.7584Z" fill="#EBBD4C"/>
<path d="M6.01019 10.6694V10.0762H1.8125V10.6502H2.66771V10.6694H6.01019Z" fill="#EBBD4C"/>
<path d="M7.625 10.0762V10.6694H10.9692V10.6502H11.8235V10.0762H7.625Z" fill="#EBBD4C"/>
<path d="M10.154 19.663V17.084C10.0349 17.8976 9.91698 18.7107 9.80014 19.5233H9.96107C9.85828 20.1938 9.75605 20.8641 9.65438 21.5341H9.51198L9.43868 22.0416H4.20379C4.17935 21.8752 4.15407 21.7038 4.12964 21.5341H3.98472C3.88361 20.8635 3.78138 20.1933 3.67802 19.5233H3.83895C3.72099 18.7107 3.60303 17.8982 3.48507 17.0856V19.6647L3.51035 19.8402H3.33594L3.67718 22.0724H3.83811C3.86423 22.2604 3.89203 22.4484 3.92237 22.6356H9.726C9.75212 22.4484 9.77992 22.2604 9.81025 22.0724H9.97119C10.0835 21.3286 10.1959 20.5846 10.3082 19.8402H10.1304C10.1363 19.7803 10.1448 19.7221 10.154 19.663Z" fill="#F1CA54"/>
<path d="M7.625 10.6699V10.6857H8.5434V11.2623H10.9692V10.6699H7.625Z" fill="#F1CA54"/>
<path d="M5.09595 10.6857H6.01435V10.6699H2.67188V11.2623H5.09595V10.6857Z" fill="#F1CA54"/>
<path d="M2.90021 11.8529H5.09595V11.2598H2.67188V12.1857H2.95077L2.90021 11.8529Z" fill="#F6D65C"/>
<path d="M10.6893 12.1857H10.969V11.2598H8.53906V11.8529H10.7356L10.6893 12.1857Z" fill="#F6D65C"/>
<path d="M4.4904 21.4465C4.4685 21.2968 4.44743 21.1454 4.42468 20.9956H4.29661C4.20562 20.3994 4.11434 19.8026 4.02278 19.2053H4.16602C3.94133 17.6384 3.71412 16.0719 3.48438 14.5056V17.0846C3.60346 17.8972 3.72142 18.7097 3.83826 19.5222H3.67732C3.78012 20.1928 3.88235 20.8631 3.98402 21.5331H4.12894C4.15338 21.6994 4.17865 21.8717 4.20309 22.0405H9.42703L9.50033 21.5331H9.6461C9.74777 20.8625 9.85 20.1922 9.95279 19.5222H9.79186C9.90982 18.7097 10.0278 17.8966 10.1457 17.083V14.5039C9.92106 16.0702 9.69384 17.6368 9.4641 19.2036H9.6065L9.3394 20.9956H9.21049L9.14477 21.4465H7.61887V21.8575H6.01799V21.4465H4.4904Z" fill="#F6D65C"/>
<path d="M9.41196 12.4487H10.1517V12.1882H10.6893L10.7399 11.8555H8.53906V12.209H9.41196V12.4487Z" fill="#FDE464"/>
<path d="M4.29661 20.999H4.42468C4.44743 21.1488 4.4685 21.3002 4.4904 21.4499H6.01462V21.2511H5.09621V20.8576H4.77772C4.75834 20.7253 4.73981 20.5939 4.72127 20.4624H4.60837C4.57045 20.2178 4.53338 19.9724 4.49546 19.7286H4.22415V17.0289L3.78686 14.0206H3.62424C3.57818 13.715 3.53156 13.41 3.48438 13.1055V14.509C3.70906 16.0753 3.93627 17.6418 4.16602 19.2087H4.02278C4.11378 19.8054 4.20505 20.4022 4.29661 20.999Z" fill="#FDE464"/>
<path d="M3.49015 12.1882V12.452H4.22993V12.2124H5.10199V11.8555H2.90625L2.9568 12.1882H3.49015Z" fill="#FDE464"/>
<path d="M9.21662 20.999H9.34722L9.62021 19.2087H9.47781C9.70531 17.6418 9.93252 16.0753 10.1595 14.509V13.1055C10.1123 13.41 10.0656 13.715 10.0196 14.0206H9.85276C9.70727 15.0239 9.56179 16.027 9.41631 17.0298V19.7295H9.14416C9.10708 19.9732 9.06917 20.2186 9.03209 20.4632H8.91919C8.89981 20.5947 8.88127 20.7261 8.86189 20.8584H8.5434V21.2519H7.625V21.4508H9.14921L9.21662 20.999Z" fill="#FDE464"/>
<path d="M5.51359 3.41684V3.43265C5.51351 3.60692 5.54932 3.77939 5.61885 3.93958C5.68837 4.09976 5.79016 4.24431 5.91803 4.36444H6.2618C6.03272 4.25698 5.84749 4.07577 5.73655 3.85058C5.6256 3.6254 5.59555 3.36965 5.65133 3.12537C5.70711 2.88108 5.8454 2.66281 6.04347 2.50642C6.24154 2.35003 6.48761 2.26483 6.74122 2.26483C6.99483 2.26483 7.2409 2.35003 7.43897 2.50642C7.63704 2.66281 7.77533 2.88108 7.83111 3.12537C7.88689 3.36965 7.85684 3.6254 7.7459 3.85058C7.63495 4.07577 7.44972 4.25698 7.22064 4.36444H7.72113C7.84927 4.24447 7.95129 4.09997 8.02097 3.93976C8.09065 3.77956 8.12653 3.60701 8.12641 3.43265V3.41684C8.42792 3.15481 8.64143 2.80829 8.7385 2.42344C8.83558 2.03859 8.8116 1.63367 8.66977 1.26261C8.52795 0.891544 8.275 0.571951 7.94461 0.346389C7.61423 0.120827 7.22209 0 6.82042 0C6.41875 0 6.02661 0.120827 5.69623 0.346389C5.36585 0.571951 5.1129 0.891544 4.97107 1.26261C4.82924 1.63367 4.80527 2.03859 4.90234 2.42344C4.99941 2.80829 5.21292 3.15481 5.51444 3.41684H5.51359ZM5.65767 0.802855C5.95931 0.50614 6.36582 0.33663 6.79154 0.330045C7.21726 0.32346 7.62895 0.480315 7.93985 0.767555C8.25075 1.0548 8.43657 1.44999 8.45817 1.86986C8.47977 2.28972 8.33545 2.70147 8.05563 3.01834C7.96805 2.76324 7.80172 2.54166 7.58001 2.38472C7.35831 2.22778 7.09237 2.14338 6.81958 2.14338C6.54679 2.14338 6.28085 2.22778 6.05914 2.38472C5.83744 2.54166 5.67111 2.76324 5.58353 3.01834C5.30876 2.70875 5.16354 2.30755 5.17731 1.89613C5.19108 1.48471 5.36281 1.09386 5.65767 0.802855Z" fill="#DC8B34"/>
<path d="M0.476896 11.4153H0.770953L0.76674 11.3862H0.748204L0.679955 10.902L0.649623 10.6857C0.638669 10.6142 0.628559 10.5426 0.618448 10.4694C0.608337 10.3962 0.598226 10.3255 0.587272 10.2531H1.76687V10.8438H2.56647V12.3222H3.32479V19.6142H2.56647V21.0926H2.34909L2.35499 21.1359H2.25135C2.23787 21.0452 2.22439 20.9537 2.21006 20.8613H2.31791C2.31117 20.8097 2.30359 20.7573 2.29769 20.7041C2.28505 20.6134 2.27241 20.5227 2.26062 20.432L1.09029 11.6965H0.837516C1.29307 14.8302 1.74749 17.9639 2.2008 21.0976H1.94803C2.10643 22.1359 2.26511 23.1747 2.42408 24.2141H2.6482C2.6864 24.4753 2.72459 24.7374 2.76279 25.0003H10.865L10.9787 24.2141H11.202C11.3615 23.1741 11.5205 22.1353 11.6789 21.0976H11.4261C11.88 17.9622 12.3344 14.8286 12.7894 11.6965H12.5366C12.1468 14.6089 11.7564 17.5207 11.3654 20.432C11.3536 20.5227 11.3418 20.6134 11.3292 20.7041C11.3225 20.7573 11.3149 20.8097 11.3081 20.8613H11.416C11.4025 20.9537 11.389 21.0452 11.3747 21.1359H11.2803L11.2871 21.0926H11.0672V19.6142H10.3089V12.3222H11.0672V10.8438H11.8701V10.2531H13.0497C13.0405 10.3255 13.0304 10.3979 13.0194 10.4694C13.0085 10.541 12.9992 10.6142 12.9899 10.6857C12.9807 10.7573 12.9689 10.8305 12.9579 10.902C12.936 11.0643 12.9124 11.2248 12.8905 11.3862H12.8736V11.4153H13.1685C13.3247 10.3765 13.4817 9.33796 13.6395 8.29968H12.2586L13.134 7.62913V7.07422H0.508914V7.62913L1.38182 8.29968H0C0.161774 9.33796 0.320739 10.3765 0.476896 11.4153ZM0.687538 7.63163L0.670687 7.48853V7.17738H12.5088V7.35375L12.4397 7.63079L11.3199 8.29635H1.64891L0.687538 7.63163ZM13.2772 8.74311C13.211 9.17406 13.1452 9.60529 13.0801 10.0368H11.8204V10.6491H10.9661V12.1866H10.153V19.7573H10.9661V21.2906H11.3646C11.2354 22.1325 11.1068 22.9747 10.9787 23.8172H10.7664C10.7304 24.0651 10.6945 24.3133 10.6585 24.5618H2.99113C2.9549 24.3122 2.91951 24.0627 2.88328 23.8172H2.67095C2.54176 22.9753 2.41312 22.1331 2.28505 21.2906H2.6819V19.7573H3.49414V12.1866H2.6819V10.6491H1.81995V10.0368H0.561153C0.49459 9.60585 0.429712 9.17406 0.363991 8.74311H13.2772Z" fill="#DC8B34"/>
<path d="M5.09862 19.726V21.2484H6.01703V21.8583H7.61791V21.2484H8.53631V19.726H9.40922V12.2085H8.53969V10.6852H7.62128V10.0762H6.0204V10.6852H5.10199V12.2085H4.22656V19.726H5.09862ZM4.39255 12.3457H5.21321V10.8773H6.07264V10.295H7.57241V10.8773H8.43184V12.3457H9.24913V19.592H8.43184V21.0588H7.57241V21.6469H6.06927V21.0588H5.21321V19.592H4.39592L4.39255 12.3457Z" fill="#DC8B34"/>
<path d="M6.26283 4.36523H7.22167C7.45075 4.25777 7.63598 4.07656 7.74693 3.85138C7.85787 3.6262 7.88792 3.37044 7.83214 3.12616C7.77636 2.88188 7.63807 2.6636 7.44 2.50721C7.24193 2.35082 6.99586 2.26563 6.74225 2.26562C6.48864 2.26562 6.24257 2.35082 6.0445 2.50721C5.84643 2.6636 5.70814 2.88188 5.65236 3.12616C5.59658 3.37044 5.62663 3.6262 5.73758 3.85138C5.84852 4.07656 6.03375 4.25777 6.26283 4.36523ZM6.66389 2.38935C6.8472 2.38935 7.02639 2.44302 7.17881 2.54358C7.33123 2.64413 7.45002 2.78706 7.52017 2.95428C7.59032 3.1215 7.60867 3.30551 7.57291 3.48303C7.53715 3.66055 7.44888 3.82361 7.31926 3.9516C7.18964 4.07958 7.02449 4.16674 6.84471 4.20205C6.66492 4.23736 6.47857 4.21924 6.30921 4.14998C6.13985 4.08071 5.9951 3.96341 5.89326 3.81292C5.79142 3.66242 5.73706 3.48549 5.73706 3.30449C5.73673 3.1841 5.76046 3.06483 5.80689 2.95351C5.85332 2.8422 5.92153 2.74102 6.00763 2.65577C6.09373 2.57053 6.19601 2.5029 6.30862 2.45675C6.42124 2.4106 6.54197 2.38685 6.66389 2.38685V2.38935Z" fill="#E4A23F"/>
<path d="M6.6612 4.21896C6.84451 4.21896 7.02371 4.16529 7.17612 4.06473C7.32854 3.96418 7.44733 3.82125 7.51748 3.65403C7.58763 3.48681 7.60598 3.3028 7.57022 3.12528C7.53446 2.94776 7.44619 2.7847 7.31657 2.65671C7.18695 2.52873 7.02181 2.44157 6.84202 2.40626C6.66223 2.37095 6.47588 2.38907 6.30652 2.45833C6.13717 2.5276 5.99242 2.6449 5.89057 2.79539C5.78873 2.94589 5.73438 3.12282 5.73438 3.30382C5.73438 3.424 5.75835 3.543 5.80493 3.65403C5.8515 3.76506 5.91977 3.86594 6.00584 3.95092C6.17965 4.12255 6.41539 4.21896 6.6612 4.21896ZM6.58284 2.50931C6.72896 2.50947 6.87174 2.5524 6.99314 2.63267C7.11455 2.71294 7.20913 2.82695 7.26493 2.96029C7.32073 3.09362 7.33524 3.2403 7.30663 3.38178C7.27803 3.52325 7.20759 3.65318 7.10421 3.75514C7.00083 3.8571 6.86917 3.9265 6.72585 3.95459C6.58254 3.98267 6.434 3.96818 6.29903 3.91293C6.16406 3.85768 6.0487 3.76416 5.96754 3.64419C5.88638 3.52423 5.84307 3.3832 5.84307 3.23893C5.84307 3.14304 5.86221 3.0481 5.8994 2.95952C5.93658 2.87094 5.99109 2.79047 6.05979 2.72271C6.1285 2.65495 6.21006 2.60122 6.29981 2.56461C6.38956 2.52799 6.48574 2.5092 6.58284 2.50931Z" fill="#EEBC4D"/>
<path d="M6.58353 3.96901C6.72964 3.96884 6.87242 3.92591 6.99383 3.84564C7.11523 3.76537 7.20981 3.65136 7.26561 3.51802C7.32141 3.38469 7.33592 3.23801 7.30732 3.09654C7.27871 2.95506 7.20827 2.82513 7.10489 2.72317C7.00152 2.62122 6.86985 2.55181 6.72653 2.52372C6.58322 2.49564 6.43469 2.51014 6.29971 2.56538C6.16474 2.62063 6.04938 2.71415 5.96822 2.83412C5.88707 2.95408 5.84375 3.09512 5.84375 3.23939C5.84375 3.33527 5.86289 3.43022 5.90008 3.51879C5.93727 3.60737 5.99177 3.68784 6.06048 3.7556C6.12918 3.82336 6.21074 3.87709 6.30049 3.91371C6.39024 3.95033 6.48642 3.96912 6.58353 3.96901ZM6.50433 2.63289C6.61307 2.63306 6.71933 2.66504 6.80968 2.7248C6.90003 2.78456 6.97042 2.86941 7.01196 2.96864C7.0535 3.06788 7.06432 3.17704 7.04307 3.28235C7.02181 3.38765 6.96943 3.48438 6.89253 3.5603C6.81564 3.63623 6.71768 3.68795 6.61103 3.70894C6.50438 3.72993 6.39382 3.71924 6.29332 3.67823C6.19282 3.63721 6.10688 3.56771 6.04636 3.4785C5.98584 3.38929 5.95345 3.28437 5.95328 3.17699C5.95306 3.10548 5.96716 3.03463 5.99478 2.96851C6.02239 2.9024 6.06297 2.84233 6.11418 2.79177C6.1654 2.7412 6.22623 2.70113 6.29319 2.67386C6.36014 2.6466 6.4319 2.63267 6.50433 2.63289Z" fill="#F8D65C"/>
<path d="M6.50417 3.72129C6.61299 3.72113 6.71931 3.68911 6.8097 3.62927C6.90009 3.56944 6.97048 3.48449 7.01196 3.38516C7.05345 3.28583 7.06418 3.17658 7.04279 3.07123C7.02139 2.96588 6.96884 2.86916 6.89178 2.7933C6.81471 2.71744 6.7166 2.66584 6.60984 2.64504C6.50308 2.62424 6.39247 2.63517 6.292 2.67644C6.19152 2.71771 6.1057 2.78747 6.04538 2.8769C5.98507 2.96633 5.95296 3.07141 5.95313 3.17886C5.95313 3.25023 5.96739 3.32091 5.9951 3.38683C6.02282 3.45275 6.06343 3.51262 6.11462 3.56301C6.16582 3.6134 6.22658 3.65332 6.29342 3.68048C6.36027 3.70764 6.43188 3.72151 6.50417 3.72129Z" fill="#FFF56D"/>
<path d="M6.77722 6.3124L7.39482 5.80408L6.77722 5.29492H5.54116L4.92188 5.80408L5.54116 6.3124H6.77722Z" fill="#FFF56D"/>
<path d="M10.014 14.0183C10.06 13.7127 10.1067 13.4076 10.1538 13.1031V12.4492H9.41406V17.0249C9.55674 16.0238 9.70054 15.0216 9.84546 14.0183H10.014Z" fill="#FFF56D"/>
<path d="M8.91485 20.4603H9.02775C9.06483 20.2157 9.10274 19.9703 9.13981 19.7266H8.53906V20.8555H8.85755C8.87693 20.7232 8.89547 20.591 8.91485 20.4603Z" fill="#FFF56D"/>
<path d="M3.78686 14.0177L4.22415 17.0269V12.4512H3.48438V13.1026C3.531 13.4065 3.57762 13.7116 3.62424 14.0177H3.78686Z" fill="#FFF56D"/>
<path d="M4.73362 20.4603C4.75216 20.5918 4.7707 20.7232 4.79007 20.8555H5.10857V19.7266H4.50781C4.54573 19.9703 4.5828 20.2157 4.62072 20.4603H4.73362Z" fill="#FFF56D"/>
</svg>
