<svg width="19" height="24" viewBox="0 0 19 24" fill="none" xmlns="http://www.w3.org/2000/svg">
<path d="M18.7265 19.526C18.4045 19.0438 17.9653 18.6625 17.4553 18.4226C16.1907 17.8117 14.8428 17.4156 13.4615 17.2489L12.9587 17.1787H12.8258C12.9492 16.958 13.0772 16.7423 13.2053 16.5216C13.4899 16.0201 13.7745 15.5586 14.0449 15.0671C14.8834 13.5989 15.5749 12.0424 16.1082 10.4226C16.3766 9.61427 16.5363 8.77007 16.5825 7.91475C16.6644 6.20437 16.1919 4.51563 15.2432 3.12762C14.2945 1.73961 12.9264 0.735376 11.3649 0.280877C11.0471 0.190594 10.7246 0.135425 10.4163 0.0802527L9.94193 0H9.03596H8.97904H8.89841C7.77051 0.0836471 6.68077 0.466607 5.72989 1.11348C4.67272 1.79671 3.80524 2.76346 3.21546 3.91564C2.62567 5.06781 2.33456 6.36443 2.37164 7.67398C2.42686 8.98105 2.72334 10.2641 3.24441 11.4508C4.05719 13.4425 5.04329 15.3499 6.18999 17.1486C4.97858 17.2809 3.78329 17.5447 2.62304 17.9361C1.9484 18.1458 1.31636 18.4859 0.758925 18.9392C0.539209 19.1124 0.357595 19.334 0.226583 19.5885C0.0955706 19.8431 0.0182709 20.1246 0 20.4138C0.00034113 20.6987 0.0580432 20.9802 0.169271 21.2396C0.280499 21.4991 0.442703 21.7305 0.645087 21.9185C1.2142 22.4413 1.88437 22.8265 2.60881 23.047C4.31927 23.6284 6.1012 23.941 7.89757 23.9749C8.3387 23.9749 8.79405 24 9.25415 24C10.0653 24 10.9048 23.9749 11.7586 23.9298C13.3731 23.8617 14.9702 23.5509 16.5019 23.0069C17.2323 22.771 17.9034 22.3648 18.4656 21.8182C18.7554 21.5285 18.9401 21.1406 18.9878 20.722C19.0354 20.3033 18.943 19.8802 18.7265 19.526ZM9.50554 18.9643L9.2589 18.5981C9.01699 18.242 8.78457 17.896 8.5474 17.5398C7.35521 15.7553 6.29888 13.8735 5.38837 11.9122C4.88916 10.8664 4.51321 9.75965 4.26896 8.61693C4.00302 7.32784 4.19374 5.98037 4.80495 4.8301C5.17254 4.08411 5.69659 3.43688 6.33701 2.93789C6.97743 2.43891 7.71727 2.10138 8.49997 1.95111C8.83433 1.88153 9.17426 1.84624 9.51503 1.84577C10.3437 1.84679 11.1609 2.05118 11.9022 2.44283C12.6435 2.83448 13.2888 3.40271 13.7872 4.1028C14.2856 4.8029 14.6235 5.61576 14.7744 6.4774C14.9253 7.33904 14.885 8.22597 14.6568 9.06835C14.2975 10.4037 13.7946 11.6911 13.1579 12.9053C12.0848 15.0183 10.864 17.0436 9.50554 18.9643ZM6.2564 19.0796C6.57894 19.0295 6.90623 18.9843 7.20505 18.9292H7.24774C7.28569 18.9292 7.31415 18.9291 7.36158 19.0144C7.80113 19.6832 8.25174 20.3369 8.71342 20.9756C8.78985 21.1231 8.90238 21.2461 9.03924 21.3319C9.1761 21.4176 9.33225 21.4628 9.49132 21.4628C9.65039 21.4628 9.80653 21.4176 9.94339 21.3319C10.0802 21.2461 10.1928 21.1231 10.2692 20.9756C10.5064 20.6445 10.7435 20.3085 10.9665 19.9724C11.1894 19.6364 11.4408 19.3204 11.6448 18.9994C11.6448 18.9693 11.7064 18.9392 11.7064 18.9342C13.2543 19.0196 14.782 19.344 16.241 19.8972C16.5003 20.018 16.7468 20.1677 16.9762 20.3436C17.0474 20.3937 17.1233 20.4439 17.2276 20.5041C17.2132 20.5312 17.1939 20.5551 17.1707 20.5743C16.7824 20.9049 16.3358 21.1504 15.8568 21.2966C14.6569 21.714 13.4125 21.9718 12.1523 22.064C11.512 22.1241 10.8764 22.1593 10.3641 22.1843L9.85655 22.2144C7.42324 22.1793 5.53542 22.0439 3.69028 21.4771C3.14633 21.3161 2.62246 21.0871 2.12973 20.795C1.99687 20.729 1.87383 20.6428 1.7645 20.5392C1.7645 20.5041 1.84514 20.4238 2.13448 20.2282C2.80378 19.8093 3.54285 19.5301 4.31165 19.4057C4.95673 19.2702 5.61605 19.1549 6.2564 19.0796Z" fill="white"/>
<path d="M11.9695 5.00465C11.6443 4.68282 11.2587 4.42771 10.8345 4.25383C10.4111 4.08107 9.95711 3.99483 9.49951 4.00024C9.04504 4.00299 8.59559 4.09489 8.17689 4.27066C7.75819 4.44642 7.37848 4.7026 7.05951 5.02453C6.64369 5.42679 6.33493 5.92553 6.16101 6.47588C5.98708 7.02623 5.95345 7.61093 6.06312 8.17742C6.17279 8.74391 6.42233 9.27442 6.78931 9.72122C7.15628 10.168 7.62917 10.5171 8.16545 10.7371C8.70174 10.957 9.28459 11.041 9.8616 10.9814C10.4386 10.9218 10.9917 10.7205 11.471 10.3956C11.9504 10.0707 12.3411 9.63245 12.6079 9.1202C12.8747 8.60794 13.0092 8.03777 12.9995 7.46096C12.9954 7.00375 12.9038 6.5515 12.7295 6.12839C12.5526 5.70794 12.2944 5.32613 11.9695 5.00465ZM11.4695 7.46096C11.4616 7.84403 11.3404 8.21629 11.121 8.53122C10.9015 8.84616 10.5936 9.08981 10.2357 9.2317C9.87781 9.37358 9.48579 9.4074 9.10866 9.32896C8.73153 9.25052 8.38602 9.0633 8.1153 8.79067C7.84457 8.51804 7.66065 8.17209 7.58653 7.7961C7.5124 7.4201 7.55136 7.03074 7.69852 6.67663C7.84568 6.32253 8.09453 6.01942 8.41396 5.80518C8.73339 5.59094 9.10922 5.47506 9.4945 5.47205C10.0206 5.47859 10.5229 5.69101 10.8926 6.06329C11.2623 6.43558 11.4695 6.93775 11.4695 7.46096Z" fill="white"/>
</svg>
