<svg width="50" height="32" viewBox="0 0 50 32" fill="none" xmlns="http://www.w3.org/2000/svg">
<path d="M3.54938 31.5031C2.61042 31.5041 1.70941 31.1326 1.04401 30.4702C0.378602 29.8077 0.00314421 28.9083 0 27.9694V3.53188C0.00363949 2.59325 0.379316 1.69437 1.04467 1.0323C1.71002 0.370231 2.61074 -0.000997771 3.54938 2.01965e-06H46.4506C47.389 -0.000998882 48.2896 0.370059 48.9549 1.03186C49.6202 1.69366 49.996 2.59222 50 3.53063V27.9681C49.9969 28.9071 49.6214 29.8064 48.956 30.4689C48.2906 31.1314 47.3896 31.5029 46.4506 31.5019L3.54938 31.5031Z" fill="black"/>
<path d="M46.4506 0.183595H3.54938C2.65993 0.182928 1.80651 0.535024 1.17629 1.16267C0.546069 1.79031 0.190478 2.64228 0.1875 3.53172V22.0942H0.2025V22.1098H0.1875V27.968C0.190479 28.8576 0.546241 29.7098 1.17673 30.3375C1.80723 30.9651 2.66096 31.3171 3.55063 31.3161H46.4506C47.3396 31.3168 48.1927 30.965 48.8228 30.3379C49.453 29.7108 49.8089 28.8595 49.8125 27.9705V3.53297C49.8099 2.64331 49.4544 1.79103 48.8242 1.16311C48.1939 0.535196 47.3403 0.182929 46.4506 0.183595Z" fill="#003564"/>
<path d="M25.4994 16.1638C25.4994 16.1863 25.4994 16.2113 25.4994 16.2401H21.9219C22.09 15.3532 22.6719 14.3613 23.9219 14.3613C24.8219 14.3613 25.4994 14.9088 25.4994 16.1638Z" fill="#ED1B2E"/>
<path d="M13.2481 13.5801L12.3319 18.6013H11.2056L11.9913 14.4857H11.9787L10.2825 18.6013H9.19313L9.0325 14.4857H9.02L8.27063 18.6013H7.21875L8.15937 13.5801H9.96688L10.035 16.9538H10.0475L11.4031 13.5801H13.2481Z" fill="#ED1B2E"/>
<path d="M16.6587 15.7668C16.6587 16.4175 16.3431 17.3462 16.2056 18.5918H15.1975L15.2519 18.0131L15.2381 17.9968V18.0131C14.9775 18.4893 14.5175 18.6868 14.0375 18.6868C13.2694 18.6868 12.8438 18.29 12.8438 17.4881C12.8438 16.4725 13.7188 15.9718 14.8125 15.9718C15.0625 15.9718 15.3069 15.9962 15.4781 16.0118C15.49 15.9573 15.4948 15.9014 15.4925 15.8456C15.4925 15.4943 15.18 15.3581 14.8762 15.3206C14.5045 15.2712 14.1268 15.2941 13.7638 15.3881C13.7106 15.4031 13.4906 15.4568 13.47 15.5131L13.7975 14.5981C14.2149 14.4326 14.6611 14.3517 15.11 14.36C15.9587 14.3612 16.6587 14.7493 16.6587 15.7668Z" fill="#ED1B2E"/>
<path d="M18.0044 15.6708C18.0044 16.1308 19.6069 16.0995 19.6069 17.1395C19.6069 18.1633 18.8306 18.6708 17.8687 18.687C17.3422 18.693 16.8178 18.6208 16.3125 18.4727L16.5625 17.4989C16.887 17.6557 17.2427 17.7372 17.6031 17.737C17.81 17.737 18.3225 17.7127 18.3225 17.372C18.3225 16.7845 16.7913 17.0858 16.7913 15.7208C16.7913 14.752 17.8025 14.3633 18.6663 14.3633C19.0878 14.3776 19.5041 14.4607 19.8988 14.6095L19.6281 15.547C19.3088 15.3915 18.9583 15.3109 18.6031 15.3114C18.3181 15.3114 18.0044 15.3852 18.0044 15.6708Z" fill="#ED1B2E"/>
<path d="M21.035 16.6316C20.9825 16.9379 20.9369 17.1423 20.9369 17.3385C20.9369 17.6135 21.0869 17.7935 21.3213 17.7935C21.359 17.7933 21.3966 17.7884 21.4331 17.7791C21.455 17.9041 21.4806 18.0329 21.5088 18.1591H21.6294L21.5669 18.6104C21.3273 18.6586 21.0837 18.6846 20.8394 18.6879C20.2412 18.6879 19.7656 18.3348 19.7656 17.4791C19.7656 17.2748 19.7919 17.0704 19.87 16.6391L20.0719 15.4929L20.2594 14.5041L20.4219 13.6248L20.4844 13.6035H21.4519C21.4169 13.781 21.3894 13.9585 21.3619 14.1391H21.4869L21.42 14.5041H22.2275L22.0837 15.4929H21.2362L21.035 16.6316Z" fill="#ED1B2E"/>
<path d="M25.1609 18.1588L25.1503 18.2538C25.0556 18.3425 24.9446 18.4119 24.8234 18.4582C24.4393 18.6005 24.0342 18.678 23.6247 18.6876C23.0666 18.6876 22.6334 18.4863 22.3359 18.1582L25.1609 18.1588Z" fill="#ED1B2E"/>
<path d="M26.6125 18.1582L26.5419 18.602H25.4688L25.5394 18.1582H26.6125Z" fill="#ED1B2E"/>
<path d="M28.3869 14.4656L28.1425 15.7299C28.005 15.5868 27.85 15.5549 27.6475 15.5549C27.3119 15.5549 27.0781 15.8424 26.9481 16.2424H25.8438L25.9537 15.5412C26.0075 15.1831 26.0556 14.8331 26.085 14.4593H27.0812L26.9619 15.3106H26.9731C27.1462 14.8256 27.4925 14.3637 27.9331 14.3637C28.0905 14.359 28.2466 14.394 28.3869 14.4656Z" fill="#ED1B2E"/>
<path d="M25.2381 17.4258L25.2213 17.5808H24.9219L24.9544 17.5689C25.0543 17.5327 25.1496 17.4847 25.2381 17.4258Z" fill="#ED1B2E"/>
<path d="M25.4056 16.9428H22.9775C22.985 17.2072 23.0531 17.4372 23.2594 17.5809H21.9906C21.9034 17.3368 21.859 17.0795 21.8594 16.8203H25.4263C25.42 16.8628 25.4131 16.9047 25.4056 16.9428Z" fill="#ED1B2E"/>
<path d="M28.7 16.8203C28.6762 17.0757 28.6435 17.3293 28.6019 17.5809H25.625L25.7456 16.8203H28.7Z" fill="#ED1B2E"/>
<path d="M28.7553 15.7498C28.7553 15.9139 28.7518 16.0775 28.7447 16.2404H28.1484C28.1653 15.5479 28.3541 14.9429 28.6841 14.4785C28.7003 14.6185 28.7134 14.7593 28.7234 14.901C28.7378 15.0916 28.7472 15.2848 28.7522 15.4785C28.7541 15.5685 28.7553 15.6591 28.7553 15.7498Z" fill="#ED1B2E"/>
<path d="M25.4941 16.2402C25.4872 16.3921 25.4622 16.6227 25.4316 16.819H21.2972C21.2797 16.6271 21.2659 16.434 21.2578 16.2402H25.4941Z" fill="#FCB330"/>
<path d="M26.5459 18.6017H25.4728L25.5428 18.1586L25.634 17.5799L25.7546 16.8192L25.8459 16.2405L25.9559 15.5392C26.0096 15.1811 26.0578 14.8311 26.0871 14.4574H27.0834L26.964 15.3086H26.9753C27.1484 14.8236 27.4946 14.3617 27.9353 14.3617C28.0928 14.3576 28.2489 14.3933 28.389 14.4655L28.1446 15.7298C28.0071 15.5867 27.8521 15.5549 27.6496 15.5549C27.314 15.5549 27.0803 15.8424 26.9503 16.2424H28.1528C28.1696 15.5499 28.3584 14.9448 28.6884 14.4805C28.6759 14.3667 28.6609 14.2536 28.6446 14.1411H21.4921L21.4253 14.5061H22.2328L22.089 15.4949H21.2365L21.0353 16.633C20.9828 16.9392 20.9371 17.1436 20.9371 17.3399C20.9371 17.6149 21.0871 17.7949 21.3215 17.7949C21.3593 17.7946 21.3968 17.7898 21.4334 17.7805C21.5245 17.7538 21.6132 17.7193 21.6984 17.6774L21.6296 18.1586L21.5671 18.6099C21.3276 18.6581 21.084 18.684 20.8396 18.6874C20.2415 18.6874 19.7659 18.3342 19.7659 17.4786C19.7659 17.2742 19.7921 17.0698 19.8703 16.6386L20.0721 15.4924L20.2596 14.5036L20.4221 13.6242L20.4846 13.603H21.4521C21.4521 13.5886 21.4571 13.5749 21.4603 13.5605H28.5465C28.4965 13.3038 28.4376 13.0501 28.3696 12.7992H21.6403C21.6928 12.6042 21.7505 12.4115 21.8134 12.2211H28.1965C28.1115 11.963 28.0178 11.7086 27.9153 11.4599H22.0946C22.1746 11.2636 22.2605 11.0707 22.3521 10.8811H27.6578C27.5328 10.6215 27.3992 10.3678 27.2571 10.1199H22.7546C22.8676 9.9236 22.9865 9.73089 23.1115 9.54173H26.9021C26.7292 9.28006 26.5463 9.02631 26.3534 8.78048H23.6584C23.8146 8.58256 23.9769 8.38964 24.1453 8.20173H25.8646C25.5933 7.90112 25.3062 7.61509 25.0046 7.34485C23.3813 5.89055 21.3716 4.93739 19.2183 4.6005C17.065 4.2636 14.8602 4.55739 12.8703 5.44637C10.8803 6.33535 9.19034 7.78149 8.00445 9.61011C6.81856 11.4387 6.1875 13.5716 6.1875 15.7511C6.1875 17.9306 6.81856 20.0635 8.00445 21.8921C9.19034 23.7207 10.8803 25.1669 12.8703 26.0558C14.8602 26.9448 17.065 27.2386 19.2183 26.9017C21.3716 26.5648 23.3813 25.6116 25.0046 24.1574C25.2321 23.9528 25.4511 23.7401 25.6615 23.5192H24.349C24.1715 23.3321 24.0011 23.1392 23.8378 22.9405H26.1753C26.3786 22.6955 26.5709 22.4419 26.7521 22.1799H23.259C23.1269 21.9911 23.0019 21.7982 22.884 21.6011H27.1296C27.2805 21.3536 27.4213 21.0999 27.5521 20.8399H22.4603C22.364 20.6507 22.2732 20.458 22.1878 20.2617H27.8221C27.9309 20.0117 28.0309 19.7617 28.1215 19.5005H21.8884C21.8209 19.3105 21.7584 19.1176 21.7009 18.9217H28.3078C28.3809 18.6717 28.4459 18.418 28.5009 18.1611H26.6165L26.5459 18.6017ZM11.2071 18.6017L11.9934 14.4867H11.9809L10.2846 18.6017H9.19527L9.03465 14.4867H9.02215L8.27215 18.6017H7.22027L8.16152 13.5805H9.96902L10.0371 16.9555H10.0496L11.4053 13.5805H13.2503L12.3334 18.6017H11.2071ZM15.2034 18.5924L15.2578 18.0136L15.244 17.9973V18.0136C14.9834 18.4899 14.5234 18.6874 14.0434 18.6874C13.2753 18.6874 12.8496 18.2905 12.8496 17.4886C12.8496 16.473 13.7246 15.9724 14.8184 15.9724C15.0684 15.9724 15.3128 15.9967 15.484 16.0124C15.4959 15.9578 15.5007 15.9019 15.4984 15.8461C15.4984 15.4949 15.1859 15.3586 14.8821 15.3211C14.5104 15.2717 14.1327 15.2946 13.7696 15.3886C13.7165 15.4036 13.4965 15.4574 13.4759 15.5136L13.8034 14.5986C14.2208 14.4331 14.6669 14.3522 15.1159 14.3605C15.9665 14.3605 16.6665 14.7492 16.6665 15.7661C16.6665 16.4167 16.3509 17.3455 16.2134 18.5911L15.2034 18.5924ZM19.6115 17.1405C19.6115 18.1642 18.8353 18.6717 17.8734 18.688C17.3469 18.694 16.8224 18.6217 16.3171 18.4736L16.5671 17.4999C16.8916 17.6567 17.2474 17.7381 17.6078 17.738C17.8146 17.738 18.3271 17.7136 18.3271 17.373C18.3271 16.7855 16.7959 17.0867 16.7959 15.7217C16.7959 14.753 17.8071 14.3642 18.6709 14.3642C19.0924 14.3785 19.5088 14.4617 19.9034 14.6105L19.6328 15.548C19.3135 15.3924 18.9629 15.3119 18.6078 15.3124C18.3228 15.3124 18.009 15.3842 18.009 15.6699C18.009 16.1317 19.6115 16.1005 19.6115 17.1405ZM25.1659 18.1586L25.1553 18.2536C25.0606 18.3423 24.9496 18.4117 24.8284 18.458C24.4443 18.6003 24.0392 18.6778 23.6296 18.6874C23.0715 18.6874 22.6384 18.4861 22.3409 18.158C22.1899 17.9894 22.0735 17.7927 21.9984 17.5792C21.9112 17.3351 21.8668 17.0778 21.8671 16.8186H21.2996C21.2821 16.6267 21.2684 16.4336 21.2603 16.2399H21.9209C22.089 15.353 22.6709 14.3611 23.9209 14.3611C24.8221 14.3611 25.4996 14.9086 25.4996 16.1636C25.4996 16.1861 25.4996 16.2111 25.4996 16.2399C25.4928 16.3917 25.4678 16.6224 25.4371 16.8186C25.4309 16.8611 25.424 16.903 25.4165 16.9436H22.9865C22.994 17.208 23.0621 17.438 23.2684 17.5817C23.409 17.6799 23.6134 17.7373 23.9078 17.7373C23.9078 17.7373 24.4603 17.7505 24.9296 17.5817L24.9621 17.5698C25.0621 17.5337 25.1574 17.4856 25.2459 17.4267L25.229 17.5817L25.1659 18.1586Z" fill="#ED1B2E"/>
<path d="M21.6959 17.6758L21.6272 18.1589H21.5053C21.4772 18.0339 21.4516 17.9089 21.4297 17.7789C21.5213 17.7523 21.6103 17.7178 21.6959 17.6758Z" fill="#FCB330"/>
<path d="M25.2216 17.5801L25.1591 18.1588H22.3347C22.1837 17.9902 22.0673 17.7936 21.9922 17.5801H23.2609C23.4016 17.6782 23.6059 17.7357 23.9003 17.7357C23.9003 17.7357 24.4528 17.7488 24.9222 17.5801H25.2216Z" fill="#FCB330"/>
<path d="M43.8175 15.7493C43.8175 17.929 43.1864 20.0621 42.0003 21.8908C40.8143 23.7196 39.124 25.1658 37.1338 26.0547C35.1436 26.9435 32.9386 27.2371 30.7851 26.8999C28.6317 26.5627 26.622 25.6091 24.9988 24.1543C25.2263 23.9498 25.4452 23.737 25.6556 23.5162H24.3431C24.1656 23.3291 23.9952 23.1362 23.8319 22.9375H26.1694C26.3727 22.6925 26.565 22.4389 26.7463 22.1768H23.2531C23.121 21.9881 22.996 21.7952 22.8781 21.5981H27.1238C27.2746 21.3506 27.4154 21.0968 27.5463 20.8368H22.4544C22.3581 20.6477 22.2673 20.455 22.1819 20.2587H27.8162C27.925 20.0087 28.025 19.7587 28.1156 19.4975H21.8825C21.815 19.3075 21.7525 19.1145 21.695 18.9187H28.3019C28.375 18.6687 28.44 18.415 28.495 18.1581H25.5369L25.6281 17.5793H28.605C28.6467 17.3293 28.6794 17.0758 28.7031 16.8187H25.7488L25.84 16.24H28.7425C28.7496 16.0775 28.7531 15.9139 28.7531 15.7493C28.7531 15.6587 28.7531 15.5681 28.75 15.4781C28.745 15.2843 28.7356 15.0912 28.7213 14.9006C28.7113 14.7589 28.6981 14.6181 28.6819 14.4781C28.6694 14.3643 28.6544 14.2512 28.6381 14.1387H21.3594C21.385 13.9581 21.4144 13.7806 21.4494 13.6031C21.4494 13.5887 21.4544 13.575 21.4575 13.5606H28.5406C28.4906 13.3039 28.4317 13.0502 28.3638 12.7993H21.6344C21.6869 12.6043 21.7446 12.4116 21.8075 12.2212H28.1906C28.1056 11.9631 28.0119 11.7087 27.9094 11.46H22.0888C22.1688 11.2637 22.2546 11.0708 22.3463 10.8812H27.6519C27.5269 10.6216 27.3933 10.3679 27.2513 10.12H22.7488C22.8617 9.92371 22.9806 9.731 23.1056 9.54183H26.8962C26.7233 9.28017 26.5404 9.02642 26.3475 8.78058H23.6525C23.8088 8.58267 23.971 8.38975 24.1394 8.20183H25.8588C25.5874 7.90101 25.3004 7.61478 24.9988 7.34433C26.622 5.8896 28.6317 4.93601 30.7851 4.59879C32.9386 4.26156 35.1436 4.55513 37.1338 5.44401C39.124 6.3329 40.8143 7.77908 42.0003 9.60782C43.1864 11.4366 43.8175 13.5696 43.8175 15.7493Z" fill="#FCB330"/>
<path d="M11.4038 13.5801L10.0481 16.9551H10.0356L9.9675 13.5801H8.16L7.21875 18.6013H8.27125L9.02125 14.4863H9.03375L9.19438 18.6013H10.2838L11.98 14.4863H11.9925L11.2063 18.6013H12.3313L13.2481 13.5801H11.4038Z" fill="white"/>
<path d="M15.11 14.3619C14.6611 14.3536 14.2149 14.4346 13.7975 14.6L13.47 15.515C13.4906 15.4582 13.7106 15.4044 13.7638 15.39C14.1268 15.2961 14.5045 15.2731 14.8762 15.3225C15.1787 15.36 15.4925 15.4963 15.4925 15.8475C15.4948 15.9033 15.49 15.9592 15.4781 16.0138C15.3069 15.9982 15.06 15.9738 14.8125 15.9738C13.7219 15.9738 12.8438 16.4738 12.8438 17.49C12.8438 18.2919 13.2694 18.6888 14.0375 18.6888C14.5175 18.6888 14.975 18.4907 15.2381 18.0144V18L15.2519 18.0163L15.1975 18.595H16.2056C16.3431 17.3494 16.6587 16.4207 16.6587 15.77C16.6606 14.75 15.9606 14.3619 15.11 14.3619ZM14.4306 17.7369C14.3206 17.7366 14.2151 17.6931 14.1368 17.6159C14.0585 17.5386 14.0137 17.4338 14.0119 17.3238C14.0119 16.9588 14.4444 16.7132 15.0344 16.7369C15.1444 16.734 15.2545 16.7417 15.3631 16.76C15.275 17.3125 14.9594 17.7357 14.4306 17.7357V17.7369Z" fill="white"/>
<path d="M34.1353 18.0125L34.1216 17.9968V18.0125C33.8609 18.4887 33.4009 18.6875 32.9209 18.6875C32.1522 18.6875 31.7266 18.2906 31.7266 17.4887C31.7266 16.4731 32.6053 15.9725 33.6959 15.9725C33.9459 15.9725 34.1903 15.9968 34.3616 16.0125C34.3729 15.9576 34.3775 15.9016 34.3753 15.8456C34.3753 15.4956 34.0628 15.3587 33.7597 15.3212C33.3882 15.2719 33.0107 15.2946 32.6478 15.3881C32.5941 15.4037 32.3741 15.4575 32.3534 15.5131L32.6809 14.5981C33.0983 14.4326 33.5445 14.3516 33.9934 14.36C34.8441 14.36 35.5441 14.7493 35.5441 15.765C35.5441 16.4162 35.2316 17.345 35.0909 18.5912H34.0803L34.1353 18.0125ZM33.3128 17.735C33.8409 17.735 34.1566 17.3143 34.2459 16.7587C34.1372 16.7399 34.0269 16.732 33.9166 16.735C33.3266 16.7112 32.8941 16.9568 32.8941 17.3225C32.896 17.4323 32.941 17.5371 33.0193 17.6142C33.0975 17.6913 33.2029 17.7347 33.3128 17.735Z" fill="white"/>
<path d="M18.6031 15.3125C18.9581 15.3104 19.3089 15.3892 19.6287 15.5431L19.8994 14.6056C19.5047 14.4568 19.0884 14.3737 18.6669 14.3594C17.805 14.3594 16.7919 14.7481 16.7919 15.7169C16.7919 17.0819 18.3231 16.7794 18.3231 17.3681C18.3231 17.7088 17.8106 17.7331 17.6038 17.7331C17.2435 17.7349 16.8876 17.6552 16.5625 17.5L16.3125 18.4737C16.8178 18.6216 17.3423 18.6937 17.8687 18.6875C18.8306 18.6712 19.6069 18.1637 19.6069 17.14C19.6069 16.1 18.0044 16.1313 18.0044 15.6713C18.0044 15.3863 18.3181 15.3125 18.6031 15.3125Z" fill="white"/>
<path d="M21.2331 15.4929H22.0856L22.2294 14.5041H21.4219L21.4887 14.1391L21.5869 13.6035H20.4844L20.4219 13.6248L20.2594 14.5041L20.0719 15.4929L19.87 16.6391C19.7919 17.0704 19.7656 17.2748 19.7656 17.4791C19.7656 18.3348 20.2412 18.6879 20.8394 18.6879C21.0827 18.6842 21.3252 18.658 21.5637 18.6098L21.6262 18.1585L21.6937 17.6754C21.6086 17.7173 21.5199 17.7519 21.4287 17.7785C21.3922 17.7878 21.3546 17.7927 21.3169 17.7929C21.0825 17.7929 20.9325 17.6129 20.9325 17.3379C20.9325 17.1416 20.9781 16.9373 21.0306 16.631L21.2331 15.4929Z" fill="white"/>
<path d="M27.93 14.3617C27.4894 14.3617 27.1431 14.8235 26.97 15.3085H26.9587L27.0781 14.4573H26.0819C26.0525 14.8323 26.0044 15.181 25.9506 15.5392L25.8406 16.2404L25.75 16.8192L25.63 17.5798L25.5387 18.1585L25.4688 18.6017H26.5419L26.6125 18.1585L26.705 17.5798L26.8256 16.8192L26.8463 16.6942C26.8647 16.5407 26.898 16.3893 26.9456 16.2423C27.0756 15.8442 27.3094 15.5548 27.645 15.5548C27.8475 15.5548 28.0025 15.5867 28.14 15.7298L28.3844 14.4654C28.2441 14.3931 28.0878 14.3574 27.93 14.3617Z" fill="white"/>
<path d="M37.0319 14.4572L36.9125 15.3085H36.9244C37.0975 14.8235 37.4437 14.3616 37.8844 14.3616C38.0419 14.3579 38.1979 14.3935 38.3381 14.4653L38.0931 15.7297C37.9562 15.5866 37.8012 15.5547 37.5987 15.5547C37.145 15.5547 36.8769 16.0797 36.7994 16.6922L36.4956 18.6016H35.4219L35.905 15.5391C35.9587 15.181 36.0062 14.831 36.0362 14.4572H37.0319Z" fill="white"/>
<path d="M30.8534 14.4866C31.2047 14.4866 31.5409 14.5441 31.8909 14.7891L32.1534 13.7604C31.9266 13.6591 31.4791 13.4941 30.6803 13.4941C29.8097 13.4941 29.1222 13.8635 28.6841 14.4785C28.3541 14.9429 28.1653 15.5479 28.1484 16.2404C28.1484 16.2766 28.1484 16.3135 28.1484 16.3498C28.1481 16.5068 28.1587 16.6636 28.1803 16.8191C28.2145 17.0826 28.2893 17.3392 28.4022 17.5798C28.7303 18.2673 29.3684 18.6879 30.2584 18.6879C30.6365 18.6854 31.0115 18.6197 31.3678 18.4935L31.4872 17.4148C31.168 17.6041 30.8026 17.7012 30.4316 17.6954C29.7634 17.6954 29.2928 17.2779 29.2928 16.386C29.2909 15.4373 29.7384 14.4866 30.8534 14.4866Z" fill="white"/>
<path d="M41.0438 13.6022L40.7669 15.2616H40.7519C40.5813 14.8341 40.1825 14.5284 39.6069 14.5284C38.4819 14.5284 37.9375 15.7422 37.9375 17.0466C37.9394 17.9366 38.4581 18.6866 39.1669 18.6866C39.7994 18.6866 40.0713 18.4041 40.3625 17.9616H40.375L40.2863 18.5947H41.33C41.3419 18.4347 41.3613 18.2366 41.3994 17.9997L42.1588 13.6016L41.0438 13.6022ZM39.66 17.6341C39.2994 17.6341 39.1163 17.3059 39.1163 16.8178C39.1163 16.1997 39.4388 15.5816 39.9769 15.5816C40.3563 15.5816 40.5206 15.9941 40.5206 16.3909C40.5206 16.9172 40.1981 17.6341 39.66 17.6341Z" fill="white"/>
<path d="M23.9138 14.3613C22.6638 14.3613 22.0831 15.3532 21.9138 16.2401C21.8784 16.4243 21.8602 16.6113 21.8594 16.7988C21.8594 16.8057 21.8594 16.812 21.8594 16.8188C21.859 17.078 21.9034 17.3354 21.9906 17.5795C22.0657 17.793 22.1821 17.9896 22.3331 18.1582C22.6306 18.4863 23.0638 18.6876 23.6219 18.6876C24.031 18.6777 24.4357 18.5999 24.8194 18.4576C24.9406 18.4113 25.0516 18.3419 25.1463 18.2532L25.1569 18.1582L25.2194 17.5795L25.2363 17.4245C25.1477 17.4834 25.0525 17.5314 24.9525 17.5676L24.92 17.5795C24.4506 17.7482 23.8981 17.7351 23.8981 17.7351C23.6038 17.7351 23.3981 17.6776 23.2588 17.5795C23.0525 17.4357 22.9844 17.2045 22.9769 16.9413H25.405C25.4125 16.9032 25.4194 16.8613 25.4256 16.8163C25.4563 16.6201 25.4813 16.3895 25.4881 16.2376C25.4881 16.2088 25.4881 16.1838 25.4881 16.1613C25.4925 14.9088 24.815 14.3613 23.9138 14.3613ZM23.9263 15.3138C24.3638 15.3138 24.5056 15.6888 24.5056 16.132H23.0519C23.1369 15.7351 23.4138 15.312 23.9263 15.312V15.3138Z" fill="white"/>
<path d="M42.6306 18.1418H42.5056V18.3861H42.3906V17.7505H42.6231C42.6858 17.7467 42.7478 17.7641 42.7994 17.7999C42.8203 17.8171 42.8368 17.8389 42.8477 17.8637C42.8585 17.8884 42.8634 17.9154 42.8619 17.9424C42.8632 17.9805 42.852 18.0181 42.83 18.0493C42.8072 18.0792 42.7764 18.1021 42.7412 18.1155L42.8894 18.3799V18.3855H42.7644L42.6306 18.1418ZM42.5056 18.053H42.6231C42.6559 18.055 42.6883 18.045 42.7144 18.0249C42.7251 18.0153 42.7336 18.0034 42.7393 17.9901C42.7449 17.9768 42.7475 17.9624 42.7469 17.948C42.7478 17.9335 42.7456 17.919 42.7404 17.9054C42.7352 17.8918 42.7272 17.8795 42.7169 17.8693C42.6914 17.8489 42.6594 17.8387 42.6269 17.8405H42.5025L42.5056 18.053Z" fill="white"/>
<path d="M42.6094 18.5781C42.5105 18.5781 42.4138 18.5488 42.3316 18.4939C42.2494 18.4389 42.1853 18.3608 42.1474 18.2695C42.1096 18.1781 42.0997 18.0776 42.119 17.9806C42.1383 17.8836 42.1859 17.7945 42.2558 17.7246C42.3257 17.6546 42.4148 17.607 42.5118 17.5877C42.6088 17.5684 42.7094 17.5783 42.8007 17.6162C42.8921 17.654 42.9702 17.7181 43.0251 17.8003C43.0801 17.8826 43.1094 17.9792 43.1094 18.0781C43.1094 18.2107 43.0567 18.3379 42.9629 18.4317C42.8692 18.5254 42.742 18.5781 42.6094 18.5781ZM42.6094 17.6406C42.5227 17.64 42.4378 17.6651 42.3655 17.7128C42.2931 17.7605 42.2365 17.8286 42.203 17.9085C42.1694 17.9884 42.1603 18.0765 42.1768 18.1615C42.1933 18.2466 42.2347 18.3249 42.2958 18.3864C42.3568 18.4479 42.4348 18.4898 42.5197 18.507C42.6047 18.5241 42.6928 18.5156 42.7729 18.4826C42.8531 18.4496 42.9216 18.3935 42.9698 18.3215C43.018 18.2495 43.0437 18.1648 43.0437 18.0781C43.0434 17.9628 42.9976 17.8524 42.9163 17.7707C42.8349 17.689 42.7246 17.6427 42.6094 17.6419V17.6406Z" fill="white"/>
<path d="M42.6306 22.733H42.5056V22.9768H42.3906V22.3424H42.6231C42.6858 22.3382 42.748 22.3557 42.7994 22.3918C42.8332 22.4231 42.8548 22.4655 42.8603 22.5113C42.8658 22.5571 42.8548 22.6033 42.8294 22.6418C42.8067 22.6719 42.7759 22.6949 42.7406 22.708L42.8887 22.9724V22.978H42.7637L42.6306 22.733ZM42.5056 22.6436H42.6231C42.6559 22.6456 42.6883 22.6356 42.7144 22.6155C42.7251 22.6059 42.7336 22.594 42.7393 22.5807C42.7449 22.5674 42.7475 22.5531 42.7469 22.5386C42.7477 22.5241 42.7455 22.5096 42.7403 22.496C42.7352 22.4825 42.7272 22.4701 42.7169 22.4599C42.6914 22.4396 42.6594 22.4293 42.6269 22.4311H42.5025L42.5056 22.6436Z" fill="#FCB330"/>
<path d="M42.6094 23.1699C42.5105 23.1699 42.4138 23.1406 42.3316 23.0857C42.2494 23.0307 42.1853 22.9526 42.1474 22.8613C42.1096 22.7699 42.0997 22.6694 42.119 22.5724C42.1383 22.4754 42.1859 22.3863 42.2558 22.3164C42.3257 22.2464 42.4148 22.1988 42.5118 22.1795C42.6088 22.1602 42.7094 22.1701 42.8007 22.208C42.8921 22.2458 42.9702 22.3099 43.0251 22.3921C43.0801 22.4744 43.1094 22.571 43.1094 22.6699C43.1094 22.8025 43.0567 22.9297 42.9629 23.0235C42.8692 23.1172 42.742 23.1699 42.6094 23.1699ZM42.6094 22.2324C42.5235 22.2324 42.4395 22.2579 42.368 22.3056C42.2966 22.3534 42.2409 22.4212 42.2081 22.5006C42.1752 22.5799 42.1666 22.6673 42.1833 22.7515C42.2001 22.8358 42.2415 22.9132 42.3022 22.9739C42.363 23.0347 42.4404 23.0761 42.5246 23.0928C42.6089 23.1096 42.6962 23.101 42.7756 23.0681C42.855 23.0352 42.9228 22.9796 42.9705 22.9081C43.0183 22.8367 43.0437 22.7527 43.0437 22.6668C43.0426 22.5521 42.9964 22.4424 42.9152 22.3614C42.8339 22.2803 42.7241 22.2345 42.6094 22.2337V22.2324Z" fill="#FCB330"/>
</svg>
