<svg width="21" height="24" viewBox="0 0 21 24" fill="none" xmlns="http://www.w3.org/2000/svg">
<path d="M10.0514 23.9993C7.75627 24.0206 5.47566 23.6329 3.3165 22.8543C2.35106 22.5215 1.47633 21.9686 0.761531 21.2393C0.508578 20.973 0.31112 20.659 0.180647 20.3157C0.050173 19.9723 -0.0107093 19.6064 0.00154114 19.2393C0.0256398 16.6328 1.06402 14.1382 2.89651 12.2844C2.97722 12.1828 3.07831 12.0992 3.19328 12.039C3.30825 11.9787 3.43455 11.9432 3.56406 11.9348C3.69357 11.9263 3.82342 11.945 3.94526 11.9897C4.06709 12.0345 4.17822 12.1042 4.27149 12.1944C4.36332 12.2837 4.43548 12.3912 4.48336 12.51C4.53124 12.6288 4.55379 12.7563 4.54955 12.8844C4.54532 13.0124 4.5144 13.1381 4.45876 13.2535C4.40313 13.3689 4.32402 13.4714 4.22649 13.5544C2.98594 14.8065 2.18129 16.4246 1.93152 18.1694C1.88652 18.4794 1.88152 18.7994 1.84152 19.1143C1.81991 19.316 1.85039 19.5198 1.93005 19.7062C2.00971 19.8927 2.13589 20.0556 2.29651 20.1793C2.85685 20.6504 3.50403 21.0071 4.20149 21.2293C6.4547 21.9789 8.83186 22.2846 11.2014 22.1293C12.8629 22.0878 14.507 21.7806 16.0714 21.2193C16.6464 20.986 17.2001 20.7033 17.7263 20.3743C17.9778 20.2303 18.1793 20.0127 18.3035 19.7508C18.4277 19.4889 18.4688 19.1953 18.4213 18.9093C18.2951 16.9052 17.4521 15.0134 16.0464 13.5794C15.9242 13.4765 15.8276 13.3466 15.7642 13.2C15.7009 13.0533 15.6725 12.8939 15.6814 12.7344C15.6897 12.5535 15.7524 12.3792 15.8614 12.2344C15.9456 12.1301 16.0512 12.0449 16.1711 11.9847C16.291 11.9245 16.4223 11.8907 16.5564 11.8855C16.6904 11.8803 16.824 11.9038 16.9482 11.9545C17.0724 12.0052 17.1843 12.0819 17.2763 12.1794C18.3679 13.256 19.1961 14.5701 19.6963 16.0194C20.0353 17.0111 20.2273 18.0471 20.2663 19.0944C20.2928 19.5404 20.2164 19.9865 20.043 20.3983C19.8696 20.8101 19.6039 21.1766 19.2663 21.4693C18.4135 22.205 17.4126 22.7489 16.3314 23.0643C14.2987 23.6975 12.1804 24.0128 10.0514 23.9993Z" fill="white"/>
<path d="M10.1426 8.18185e-05C11.2093 -0.0052842 12.2607 0.253373 13.2032 0.753003C14.1457 1.25263 14.9499 1.9777 15.5441 2.86357C16.1383 3.74944 16.5041 4.76859 16.6088 5.83014C16.7135 6.89169 16.554 7.96266 16.1444 8.94758C15.7347 9.9325 15.0877 10.8007 14.2611 11.4749C13.4345 12.1491 12.4538 12.6083 11.4067 12.8115C10.3595 13.0147 9.2783 12.9556 8.2595 12.6395C7.24069 12.3234 6.31594 11.7602 5.56766 11C4.9657 10.3956 4.48959 9.67788 4.16689 8.8883C3.84419 8.09872 3.68131 7.25296 3.68768 6.4C3.70479 4.69842 4.39208 3.07219 5.60048 1.87408C6.80888 0.675979 8.44094 0.00262796 10.1426 8.18185e-05ZM10.1426 11.075C10.7478 11.076 11.3474 10.9588 11.9076 10.73C13.0382 10.2592 13.9368 9.36058 14.4076 8.22998C14.6378 7.66807 14.7583 7.06725 14.7626 6.46C14.7626 5.54888 14.4926 4.65819 13.9867 3.90041C13.4808 3.14264 12.7617 2.55177 11.9202 2.20242C11.0787 1.85307 10.1526 1.76091 9.25875 1.93757C8.36492 2.11424 7.54349 2.55179 6.89818 3.19501C6.25288 3.83822 5.81264 4.65823 5.63308 5.55149C5.45351 6.44474 5.54267 7.37116 5.88928 8.21378C6.2359 9.05639 6.82443 9.7774 7.58056 10.2857C8.33668 10.7941 9.22649 11.067 10.1376 11.0699L10.1426 11.075Z" fill="white"/>
</svg>
