<svg width="50" height="32" viewBox="0 0 50 32" fill="none" xmlns="http://www.w3.org/2000/svg">
<path d="M46.61 0H3.38813C2.48979 0.00115796 1.62858 0.358578 0.99342 0.993859C0.358256 1.62914 0.000992261 2.49041 0 3.38875V22.1712H0.015625V22.1875H0V28.115C0.00115762 29.0132 0.358491 29.8743 0.993637 30.5095C1.62878 31.1446 2.4899 31.502 3.38813 31.5031H46.6113C47.5096 31.502 48.3709 31.1446 49.0062 30.5093C49.6414 29.874 49.9988 29.0128 50 28.1144V3.38562C49.998 2.48755 49.6401 1.6269 49.0046 0.992273C48.3692 0.357649 47.5081 0.000824915 46.61 0ZM49.3738 28.1175C49.3731 28.8503 49.0817 29.5529 48.5635 30.071C48.0454 30.5892 47.3428 30.8806 46.61 30.8813H3.38813C2.65539 30.8804 1.9529 30.589 1.43477 30.0709C0.916648 29.5527 0.625205 28.8502 0.624378 28.1175V3.38562C0.626032 2.65343 0.91784 1.95174 1.43587 1.43429C1.95391 0.916841 2.65593 0.625825 3.38813 0.625H46.6113C47.3433 0.625991 48.0451 0.9171 48.5629 1.43455C49.0807 1.952 49.3723 2.65359 49.3738 3.38562V28.1175Z" fill="#325881"/>
<path d="M46.6106 0.625H3.38875C2.65601 0.625827 1.95352 0.917273 1.43539 1.4354C0.91727 1.95352 0.625827 2.65601 0.625 3.38875V28.1144C0.625827 28.8471 0.91727 29.5496 1.43539 30.0677C1.95352 30.5859 2.65601 30.8773 3.38875 30.8781H46.6119C47.3447 30.8775 48.0472 30.5861 48.5654 30.0679C49.0836 29.5498 49.375 28.8472 49.3756 28.1144V3.38562C49.3741 2.65316 49.0822 1.95119 48.5639 1.43367C48.0455 0.916147 47.3431 0.625329 46.6106 0.625ZM47.9375 28.1175C47.9372 28.4693 47.7973 28.8066 47.5485 29.0554C47.2997 29.3041 46.9624 29.444 46.6106 29.4444H3.38875C3.037 29.444 2.69976 29.3041 2.45109 29.0553C2.20243 28.8066 2.06267 28.4692 2.0625 28.1175V22.1712H47.9375V28.1175ZM47.9375 9.31188H2.0625V3.38562C2.06267 3.03387 2.20243 2.69657 2.45109 2.44779C2.69976 2.199 3.037 2.05908 3.38875 2.05875H46.6119C46.9637 2.05908 47.301 2.19898 47.5498 2.44775C47.7985 2.69651 47.9384 3.03382 47.9387 3.38562L47.9375 9.31188Z" fill="white"/>
<path d="M47.9375 3.38547V9.30859H2.0625V3.38547C2.06267 3.03372 2.20243 2.69641 2.45109 2.44763C2.69976 2.19885 3.037 2.05892 3.38875 2.05859H46.6119C46.9635 2.05926 47.3004 2.1993 47.5489 2.44803C47.7974 2.69676 47.9372 3.03388 47.9375 3.38547Z" fill="#325881"/>
<path d="M47.9375 22.1719V28.115C47.9372 28.4668 47.7973 28.8041 47.5485 29.0529C47.2997 29.3016 46.9624 29.4415 46.6106 29.4419H3.38875C3.037 29.4415 2.69976 29.3016 2.45109 29.0528C2.20243 28.8041 2.06267 28.4668 2.0625 28.115V22.1719H47.9375Z" fill="#DFA43B"/>
<path d="M9.35187 11.1248C10.9319 11.1248 12.5112 11.1286 14.0912 11.1211C14.3512 11.1211 14.3319 11.2723 14.3369 11.4461C14.3981 13.574 14.4606 15.7026 14.5244 17.8317C14.5244 17.8892 14.5369 17.9473 14.5531 18.0905C14.6537 17.9373 14.7169 17.8511 14.77 17.7586C15.7344 16.0848 16.6862 14.4042 17.6662 12.7405C17.9694 12.2261 18.1475 11.7305 17.8169 11.1448H20.775C20.7156 11.2561 20.6794 11.3373 20.6312 11.4117C18.6942 14.4017 16.7548 17.3903 14.8131 20.3773C14.7506 20.4748 14.6156 20.5873 14.5125 20.5898C13.7337 20.6073 12.9544 20.5992 12.1375 20.5992C12.1119 20.3417 12.0806 20.0992 12.0644 19.8542C11.9144 17.5861 11.7725 15.3167 11.615 13.0486C11.575 12.4755 11.215 12.1067 10.7231 11.8611C10.2612 11.6298 9.79375 11.413 9.32812 11.1898L9.35187 11.1248Z" fill="#325881"/>
<path d="M36.5863 11.1445H39.3325C39.3731 11.6245 39.4013 12.082 39.4525 12.5327C39.6494 14.2827 39.8538 16.0364 40.055 17.7883C40.1238 18.3858 40.1588 18.9902 40.2706 19.5795C40.3331 19.9214 40.5238 20.2395 40.6606 20.5795H37.6075C37.9281 19.7827 37.5912 18.9977 37.5775 18.2045C37.5737 17.9914 37.4669 17.9239 37.26 17.9258C36.51 17.9345 35.76 17.9227 35.015 17.937C34.9031 17.937 34.7375 18.012 34.6919 18.1014C34.4094 18.6539 34.1338 19.2127 33.8988 19.7889C33.8019 20.0245 33.8119 20.3033 33.7694 20.5889H31.4375C32.3012 19.0227 33.1744 17.4595 34.0287 15.8858C34.875 14.3239 35.7856 12.797 36.5863 11.1445ZM37.1331 13.4927L37.0425 13.4689L35.4037 16.6145H37.4094C37.3156 15.5533 37.2244 14.5233 37.1331 13.4927Z" fill="#325881"/>
<path d="M32.2812 11.9141C32.2069 12.3347 32.12 12.7566 32.0312 13.1984L32.2812 11.9141Z" fill="#325881"/>
<path d="M22.1753 20.5861H18.8672C19.6278 19.2936 19.8766 17.8392 20.3434 16.4642C20.8103 15.0892 21.2397 13.7042 21.6366 12.3092C21.7366 11.9592 21.6516 11.5592 21.6516 11.1523H24.8653C23.9447 12.6148 23.7303 14.3292 23.1628 15.9148C22.8041 16.9192 22.5378 17.9555 22.2016 18.9686C22.0678 19.3394 22.0422 19.7407 22.1278 20.1255C22.1528 20.2779 22.1687 20.4317 22.1753 20.5861Z" fill="#325881"/>
<path d="M32.37 11.4684L32.2844 11.914L32.0344 13.1984C31.4862 12.9359 30.9812 12.6715 30.4587 12.4484C29.9781 12.2446 29.4769 12.1359 28.9406 12.2303C28.0725 12.3884 27.7287 13.2303 28.2887 13.9178C28.5175 14.1862 28.7758 14.428 29.0588 14.6384C29.5181 14.9946 30.0006 15.3215 30.4725 15.6615C31.9837 16.7465 32.035 18.5221 30.6331 19.7315C29.0419 21.1015 27.285 21.1115 25.4325 20.4396C25.0344 20.2953 24.6594 20.0853 24.2812 19.8921L24.0781 19.7903V18.0996V18.1215V18.0996C24.2488 18.1865 24.3613 18.2534 24.4806 18.304C25.0613 18.5503 25.6306 18.8234 26.2156 19.0584C26.7781 19.2853 27.3481 19.4853 27.9544 19.284C28.7475 19.0209 29.3819 18.0965 28.6969 17.3728C28.4729 17.1433 28.2284 16.9349 27.9662 16.7503C27.4694 16.3915 26.9581 16.0528 26.4531 15.7059C25.6313 15.1396 25.1488 13.8565 25.3869 12.8903C25.6731 11.729 26.9494 11.0778 28.0119 10.7953C29.4275 10.4203 30.9375 10.7059 32.2175 11.3846L32.37 11.4684Z" fill="#325881"/>
</svg>
